<svg width="24" height="24" viewBox="0 0 24 24" fill="none" xmlns="http://www.w3.org/2000/svg">
<path fill-rule="evenodd" clip-rule="evenodd" d="M12.001 8C9.79184 8 8.00098 9.79086 8.00098 12C8.00098 14.2091 9.79184 16 12.001 16C14.2101 16 16.001 14.2091 16.001 12C16.001 9.79086 14.2101 8 12.001 8ZM10.001 12C10.001 10.8954 10.8964 10 12.001 10C13.1055 10 14.001 10.8954 14.001 12C14.001 13.1046 13.1055 14 12.001 14C10.8964 14 10.001 13.1046 10.001 12Z" fill="#070F16" fill-opacity="0.82"/>
<path fill-rule="evenodd" clip-rule="evenodd" d="M13.5599 2.21302C12.602 1.63017 11.399 1.63017 10.4411 2.21302C10.0675 2.44034 9.78637 2.7685 9.53938 3.10819C9.29582 3.44317 9.02219 3.88135 8.69461 4.40591L8.67534 4.43677C8.39775 4.88128 8.33732 4.96681 8.27641 5.02797C8.15153 5.1534 7.99558 5.24344 7.82451 5.28888C7.74109 5.31104 7.6368 5.3206 7.11305 5.33875L7.07669 5.34001C6.45862 5.36142 5.94233 5.37931 5.53045 5.42275C5.11277 5.4668 4.68801 5.54619 4.30435 5.75608C3.32062 6.29423 2.71913 7.33605 2.74494 8.45705C2.75501 8.89426 2.89863 9.30181 3.06932 9.68555C3.23764 10.064 3.4803 10.52 3.77081 11.066L3.78788 11.0981C4.03404 11.5608 4.0779 11.6559 4.10042 11.7392C4.1466 11.9101 4.1466 12.0901 4.10042 12.261C4.0779 12.3443 4.03404 12.4394 3.78788 12.9021L3.77079 12.9342C3.4803 13.4802 3.23763 13.9363 3.06932 14.3147C2.89863 14.6984 2.75501 15.106 2.74494 15.5432C2.71913 16.6642 3.32062 17.706 4.30435 18.2441C4.68801 18.454 5.11277 18.5334 5.53045 18.5775C5.94232 18.6209 6.4586 18.6388 7.07666 18.6602L7.11305 18.6615C7.6368 18.6796 7.74109 18.6892 7.82451 18.7113C7.99558 18.7568 8.15153 18.8468 8.27641 18.9722C8.33732 19.0334 8.39775 19.1189 8.67534 19.5635L8.6946 19.5943C9.02218 20.1189 9.29582 20.5571 9.53938 20.892C9.78637 21.2317 10.0675 21.5599 10.4411 21.7872C11.399 22.3701 12.602 22.3701 13.5599 21.7872C13.9335 21.5599 14.2147 21.2317 14.4616 20.892C14.7052 20.5571 14.9788 20.1189 15.3064 19.5943L15.3257 19.5635C15.6033 19.1189 15.6637 19.0334 15.7246 18.9722C15.8495 18.8468 16.0054 18.7568 16.1765 18.7113C16.2599 18.6892 16.3642 18.6796 16.888 18.6615L16.9242 18.6602C17.5423 18.6388 18.0587 18.6209 18.4706 18.5775C18.8883 18.5334 19.313 18.454 19.6967 18.2441C20.6804 17.706 21.2819 16.6642 21.2561 15.5432C21.246 15.106 21.1024 14.6984 20.9317 14.3147C20.7634 13.9362 20.5207 13.4802 20.2302 12.9342L20.2131 12.9021C19.967 12.4394 19.9231 12.3443 19.9006 12.261C19.8544 12.0901 19.8544 11.9101 19.9006 11.7392C19.9231 11.6559 19.967 11.5608 20.2131 11.0981L20.2302 11.066C20.5207 10.52 20.7634 10.064 20.9317 9.68555C21.1024 9.30181 21.246 8.89426 21.2561 8.45705C21.2819 7.33605 20.6804 6.29423 19.6967 5.75608C19.313 5.54619 18.8883 5.4668 18.4706 5.42275C18.0587 5.37931 17.5424 5.36142 16.9243 5.34001L16.888 5.33875C16.3642 5.3206 16.2599 5.31104 16.1765 5.28888C16.0054 5.24344 15.8495 5.1534 15.7246 5.02797C15.6637 4.96681 15.6033 4.88128 15.3257 4.43677L15.3064 4.40593C14.9788 3.88136 14.7052 3.44317 14.4616 3.10819C14.2147 2.7685 13.9335 2.44034 13.5599 2.21302ZM10.3283 5.56582L10.3717 5.49616C10.7236 4.93276 10.96 4.55531 11.157 4.28434C11.3553 4.01154 11.4489 3.94094 11.4807 3.92159C11.8 3.72731 12.201 3.72731 12.5203 3.92159C12.5521 3.94094 12.6457 4.01154 12.844 4.28434C13.0411 4.55531 13.2775 4.93276 13.6293 5.49616L13.6727 5.56581C13.8821 5.90165 14.0659 6.19668 14.3073 6.43913C14.682 6.81542 15.1498 7.08552 15.663 7.22184C15.9937 7.30968 16.3412 7.32141 16.7367 7.33476L16.8187 7.33756C17.4825 7.36056 17.9276 7.37657 18.2608 7.41171C18.5962 7.44709 18.7042 7.49282 18.7368 7.51069C19.0647 7.69007 19.2652 8.03735 19.2566 8.41101C19.2558 8.44823 19.2414 8.56456 19.1043 8.87274C18.9682 9.17885 18.7595 9.57231 18.4475 10.1587L18.4089 10.2312C18.2227 10.5804 18.0591 10.8871 17.9699 11.2174C17.8313 11.73 17.8313 12.2702 17.9699 12.7828C18.0591 13.1131 18.2227 13.4198 18.4089 13.769L18.4475 13.8415C18.7595 14.4279 18.9682 14.8214 19.1043 15.1275C19.2414 15.4357 19.2558 15.552 19.2566 15.5892C19.2652 15.9629 19.0647 16.3101 18.7368 16.4895C18.7042 16.5074 18.5962 16.5531 18.2608 16.5885C17.9276 16.6236 17.4825 16.6397 16.8187 16.6627L16.7366 16.6655C16.3411 16.6788 15.9937 16.6905 15.663 16.7784C15.1498 16.9147 14.682 17.1848 14.3073 17.5611C14.0659 17.8035 13.8821 18.0986 13.6727 18.4344L13.6293 18.5041C13.2775 19.0675 13.0411 19.4449 12.844 19.7159C12.6457 19.9887 12.5521 20.0593 12.5203 20.0786C12.201 20.2729 11.8 20.2729 11.4807 20.0786C11.4489 20.0593 11.3553 19.9887 11.157 19.7159C10.96 19.4449 10.7236 19.0675 10.3717 18.5041L10.3283 18.4344C10.119 18.0986 9.93507 17.8035 9.69368 17.5611C9.31901 17.1848 8.85119 16.9147 8.33798 16.7784C8.00732 16.6905 7.65988 16.6788 7.26438 16.6655L7.18232 16.6627C6.51848 16.6397 6.0734 16.6236 5.74022 16.5885C5.40479 16.5531 5.29687 16.5074 5.26421 16.4895C4.9363 16.3101 4.73581 15.9629 4.74441 15.5892C4.74527 15.552 4.75962 15.4357 4.8967 15.1275C5.03286 14.8214 5.24153 14.4279 5.55352 13.8415L5.59213 13.7691C5.77832 13.4199 5.94188 13.1131 6.03115 12.7828C6.16969 12.2702 6.16969 11.73 6.03115 11.2174C5.94188 10.8871 5.77832 10.5804 5.59213 10.2312L5.55352 10.1587C5.24153 9.57231 5.03286 9.17885 4.8967 8.87274C4.75962 8.56456 4.74527 8.44823 4.74441 8.41101C4.73581 8.03735 4.9363 7.69007 5.26421 7.51069C5.29687 7.49282 5.40479 7.44709 5.74022 7.41171C6.0734 7.37657 6.51848 7.36056 7.18232 7.33756L7.26437 7.33476C7.65987 7.32141 8.00732 7.30968 8.33798 7.22184C8.85119 7.08552 9.31901 6.81542 9.69368 6.43913C9.93508 6.19669 10.119 5.90165 10.3283 5.56582Z" fill="#070F16" fill-opacity="0.82"/>
</svg>
