<svg width="24" height="24" viewBox="0 0 24 24" fill="none" xmlns="http://www.w3.org/2000/svg">
<g clip-path="url(#clip0_292_1148)">
<path fill-rule="evenodd" clip-rule="evenodd" d="M11.4772 1.33611C11.8195 1.24343 12.1803 1.24343 12.5226 1.33611C12.92 1.4437 13.2545 1.70636 13.5215 1.91599C13.547 1.93601 13.5719 1.95554 13.5961 1.9744L20.3784 7.24953C20.4046 7.26983 20.4305 7.28994 20.4562 7.30989C20.8328 7.60217 21.1646 7.85967 21.4119 8.19396C21.6288 8.48735 21.7905 8.81786 21.8889 9.16926C22.0009 9.56967 22.0005 9.98969 22 10.4664C21.9999 10.499 21.9999 10.5317 21.9999 10.5648V17.8383C21.9999 18.3654 21.9999 18.8202 21.9693 19.1948C21.937 19.5901 21.8657 19.9833 21.6729 20.3617C21.3853 20.9262 20.9264 21.3851 20.3619 21.6728C19.9835 21.8656 19.5903 21.9369 19.1949 21.9692C18.8204 21.9998 18.3656 21.9998 17.8385 21.9997H6.16133C5.63419 21.9998 5.17943 21.9998 4.80487 21.9692C4.40952 21.9369 4.0163 21.8656 3.63792 21.6728C3.07344 21.3851 2.6145 20.9262 2.32688 20.3617C2.13408 19.9833 2.06277 19.5901 2.03046 19.1948C1.99986 18.8202 1.99988 18.3654 1.99989 17.8383L1.9999 10.5648C1.9999 10.5317 1.99986 10.499 1.99982 10.4664C1.99931 9.98968 1.99886 9.56967 2.11094 9.16926C2.2093 8.81785 2.37094 8.48735 2.58794 8.19396C2.83519 7.85966 3.16701 7.60216 3.54364 7.30987C3.56934 7.28993 3.59524 7.26983 3.62134 7.24953L10.4037 1.9744C10.4279 1.95554 10.4528 1.936 10.4783 1.91599C10.7453 1.70636 11.0798 1.4437 11.4772 1.33611ZM11.9926 3.28128C11.9174 3.33149 11.8184 3.40773 11.6315 3.55311L4.84923 8.82823C4.35115 9.21562 4.2584 9.29877 4.19591 9.38326C4.12358 9.48105 4.0697 9.59122 4.03691 9.70836C4.00858 9.80956 3.9999 9.93382 3.9999 10.5648V17.7997C3.9999 18.3763 4.00067 18.7486 4.02382 19.0319C4.04602 19.3036 4.0837 19.4043 4.10889 19.4537C4.20476 19.6419 4.35774 19.7949 4.5459 19.8907C4.59535 19.9159 4.69607 19.9536 4.96773 19.9758C5.25107 19.999 5.62334 19.9997 6.1999 19.9997H17.7999C18.3764 19.9997 18.7487 19.999 19.0321 19.9758C19.3037 19.9536 19.4044 19.9159 19.4539 19.8907C19.642 19.7949 19.795 19.6419 19.8909 19.4537C19.9161 19.4043 19.9538 19.3036 19.976 19.0319C19.9991 18.7486 19.9999 18.3763 19.9999 17.7997V10.5648C19.9999 9.93382 19.9912 9.80956 19.9629 9.70836C19.9301 9.59122 19.8762 9.48105 19.8039 9.38326C19.7414 9.29877 19.6486 9.21562 19.1506 8.82823L12.3683 3.55311C12.1814 3.40773 12.0823 3.33149 12.0072 3.28128C12.0046 3.27958 12.0022 3.27797 11.9999 3.27645C11.9976 3.27797 11.9951 3.27958 11.9926 3.28128ZM11.9999 12C12.5522 12 12.9999 12.4477 12.9999 13V18C12.9999 18.5523 12.5522 19 11.9999 19C11.4476 19 10.9999 18.5523 10.9999 18V13C10.9999 12.4477 11.4476 12 11.9999 12Z" fill="#070F16" fill-opacity="0.82"/>
</g>
<defs>
<clipPath id="clip0_292_1148">
<rect width="24" height="24" fill="white"/>
</clipPath>
</defs>
</svg>
