<svg width="24" height="24" viewBox="0 0 24 24" fill="none" xmlns="http://www.w3.org/2000/svg">
<g clip-path="url(#clip0_292_1145)">
<path fill-rule="evenodd" clip-rule="evenodd" d="M8.57516 2L15.8205 2C16.5661 1.99999 17.1835 1.99998 17.6893 2.03982C18.2161 2.08133 18.7012 2.17037 19.1639 2.39179C19.885 2.7368 20.4861 3.28992 20.8898 3.97981C21.1489 4.42258 21.2779 4.89856 21.363 5.42017C21.4447 5.92088 21.496 6.53615 21.5579 7.27917L22.2648 15.7615C22.3369 16.6271 22.3962 17.339 22.3957 17.9195C22.3951 18.5203 22.3327 19.0771 22.1011 19.6056C21.7437 20.4209 21.1246 21.0938 20.3417 21.5176C19.8343 21.7923 19.2846 21.9007 18.6859 21.9512C18.1074 22 17.3931 22 16.5244 22H7.87123C7.00259 22 6.28823 22 5.70977 21.9512C5.11102 21.9007 4.5614 21.7923 4.05395 21.5176C3.27107 21.0938 2.65195 20.4209 2.29461 19.6056C2.06299 19.0771 2.0006 18.5203 2 17.9195C1.99943 17.3389 2.05876 16.6271 2.13091 15.7614L2.83777 7.27916C2.89967 6.53615 2.95094 5.92088 3.03264 5.42017C3.11776 4.89856 3.24677 4.42258 3.50586 3.97981C3.90956 3.28992 4.51069 2.7368 5.23172 2.39179C5.69448 2.17037 6.17953 2.08133 6.70641 2.03982C7.21217 1.99998 7.82957 1.99999 8.57516 2ZM6.86347 4.03364C6.45782 4.0656 6.24632 4.12348 6.09497 4.1959C5.73446 4.3684 5.4339 4.64496 5.23205 4.9899C5.14731 5.13471 5.07207 5.34068 5.00653 5.74227C4.93902 6.15601 4.8936 6.69239 4.82759 7.48443L4.12759 15.8844C4.05098 16.8038 3.99952 17.4313 4 17.9175C4.00048 18.3929 4.05301 18.6353 4.12642 18.8028C4.30509 19.2105 4.61465 19.5469 5.00609 19.7588C5.16692 19.8459 5.40413 19.9184 5.87784 19.9583C6.36227 19.9992 6.9919 20 7.91447 20H16.4812C17.4038 20 18.0334 19.9992 18.5178 19.9583C18.9915 19.9184 19.2287 19.8459 19.3896 19.7588C19.781 19.5469 20.0906 19.2105 20.2692 18.8028C20.3427 18.6353 20.3952 18.3929 20.3957 17.9175C20.3961 17.4313 20.3447 16.8038 20.2681 15.8844L19.5681 7.48443C19.5021 6.69239 19.4566 6.15601 19.3891 5.74228C19.3236 5.34068 19.2484 5.13471 19.1636 4.98991C18.9618 4.64496 18.6612 4.3684 18.3007 4.1959C18.1493 4.12348 17.9378 4.0656 17.5322 4.03364C17.1143 4.00072 16.576 4 15.7812 4L8.61447 4C7.81968 4 7.28138 4.00072 6.86347 4.03364ZM8.19783 7C8.75012 7 9.19783 7.44772 9.19783 8C9.19783 8.79565 9.5139 9.55871 10.0765 10.1213C10.6391 10.6839 11.4022 11 12.1978 11C12.9935 11 13.7565 10.6839 14.3192 10.1213C14.8818 9.55871 15.1978 8.79565 15.1978 8C15.1978 7.44772 15.6455 7 16.1978 7C16.7501 7 17.1978 7.44772 17.1978 8C17.1978 9.32608 16.671 10.5979 15.7334 11.5355C14.7957 12.4732 13.5239 13 12.1978 13C10.8717 13 9.59998 12.4732 8.6623 11.5355C7.72461 10.5979 7.19783 9.32608 7.19783 8C7.19783 7.44772 7.64555 7 8.19783 7Z" fill="#070F16" fill-opacity="0.82"/>
</g>
<defs>
<clipPath id="clip0_292_1145">
<rect width="24" height="24" fill="white"/>
</clipPath>
</defs>
</svg>
