<svg width="24" height="24" viewBox="0 0 24 24" fill="none" xmlns="http://www.w3.org/2000/svg">
<path fill-rule="evenodd" clip-rule="evenodd" d="M11.1917 1.9434C10.6159 2.19142 10.1647 2.90329 9.26214 4.32704C8.93135 4.84888 8.76595 5.1098 8.54367 5.30289C8.34094 5.479 8.10454 5.61346 7.84836 5.69837C7.56748 5.79147 7.25542 5.80212 6.63129 5.82343C4.92846 5.88157 4.07704 5.91063 3.57115 6.27784C3.11554 6.60855 2.82072 7.1116 2.75781 7.66568C2.68796 8.28089 3.08812 9.02183 3.88843 10.5037C4.18176 11.0469 4.32843 11.3184 4.38703 11.6046C4.44048 11.8657 4.44048 12.1346 4.38703 12.3956C4.32843 12.6818 4.18176 12.9534 3.88843 13.4965C3.08812 14.9784 2.68797 15.7193 2.75781 16.3345C2.82072 16.8886 3.11554 17.3917 3.57115 17.7224C4.07704 18.0896 4.92846 18.1187 6.63129 18.1768C7.25539 18.1981 7.56749 18.2088 7.84836 18.3018C8.10454 18.3868 8.34094 18.5212 8.54367 18.6973C8.76595 18.8904 8.93135 19.1513 9.26215 19.6732C10.1647 21.0969 10.6159 21.8088 11.1917 22.0568C11.7102 22.2802 12.2998 22.2802 12.8183 22.0568C13.3941 21.8088 13.8453 21.0969 14.7479 19.6732C15.0786 19.1514 15.2441 18.8904 15.4663 18.6973C15.6691 18.5212 15.9055 18.3868 16.1616 18.3018C16.4425 18.2088 16.7546 18.1981 17.3787 18.1768C19.0815 18.1187 19.933 18.0896 20.4389 17.7224C20.8945 17.3917 21.1893 16.8886 21.2522 16.3345C21.322 15.7193 20.9219 14.9784 20.1216 13.4965C19.8282 12.9534 19.6816 12.6818 19.623 12.3956C19.5695 12.1346 19.5695 11.8657 19.623 11.6046C19.6816 11.3184 19.8282 11.0469 20.1216 10.5037C20.9219 9.02183 21.322 8.28089 21.2522 7.66568C21.1893 7.1116 20.8945 6.60855 20.4389 6.27784C19.933 5.91063 19.0815 5.88157 17.3787 5.82343C16.7546 5.80212 16.4425 5.79147 16.1616 5.69837C15.9055 5.61346 15.6691 5.479 15.4663 5.30289C15.2441 5.1098 15.0787 4.84888 14.7479 4.32704C13.8453 2.90329 13.3941 2.19142 12.8183 1.9434C12.2998 1.72004 11.7102 1.72004 11.1917 1.9434ZM15.0502 12.0001C15.0502 13.657 13.6868 15.0001 12.005 15.0001C10.3232 15.0001 8.95982 13.657 8.95982 12.0001C8.95982 10.3433 10.3232 9.00011 12.005 9.00011C13.6868 9.00011 15.0502 10.3433 15.0502 12.0001Z" fill="#3ABDFF"/>
<path fill-rule="evenodd" clip-rule="evenodd" d="M11.1917 1.9434C10.6159 2.19142 10.1647 2.90329 9.26214 4.32704C8.93135 4.84888 8.76595 5.1098 8.54367 5.30289C8.34094 5.479 8.10454 5.61346 7.84836 5.69837C7.56748 5.79147 7.25542 5.80212 6.63129 5.82343C4.92846 5.88157 4.07704 5.91063 3.57115 6.27784C3.11554 6.60855 2.82072 7.1116 2.75781 7.66568C2.68796 8.28089 3.08812 9.02183 3.88843 10.5037C4.18176 11.0469 4.32843 11.3184 4.38703 11.6046C4.44048 11.8657 4.44048 12.1346 4.38703 12.3956C4.32843 12.6818 4.18176 12.9534 3.88843 13.4965C3.08812 14.9784 2.68797 15.7193 2.75781 16.3345C2.82072 16.8886 3.11554 17.3917 3.57115 17.7224C4.07704 18.0896 4.92846 18.1187 6.63129 18.1768C7.25539 18.1981 7.56749 18.2088 7.84836 18.3018C8.10454 18.3868 8.34094 18.5212 8.54367 18.6973C8.76595 18.8904 8.93135 19.1513 9.26215 19.6732C10.1647 21.0969 10.6159 21.8088 11.1917 22.0568C11.7102 22.2802 12.2998 22.2802 12.8183 22.0568C13.3941 21.8088 13.8453 21.0969 14.7479 19.6732C15.0786 19.1514 15.2441 18.8904 15.4663 18.6973C15.6691 18.5212 15.9055 18.3868 16.1616 18.3018C16.4425 18.2088 16.7546 18.1981 17.3787 18.1768C19.0815 18.1187 19.933 18.0896 20.4389 17.7224C20.8945 17.3917 21.1893 16.8886 21.2522 16.3345C21.322 15.7193 20.9219 14.9784 20.1216 13.4965C19.8282 12.9534 19.6816 12.6818 19.623 12.3956C19.5695 12.1346 19.5695 11.8657 19.623 11.6046C19.6816 11.3184 19.8282 11.0469 20.1216 10.5037C20.9219 9.02183 21.322 8.28089 21.2522 7.66568C21.1893 7.1116 20.8945 6.60855 20.4389 6.27784C19.933 5.91063 19.0815 5.88157 17.3787 5.82343C16.7546 5.80212 16.4425 5.79147 16.1616 5.69837C15.9055 5.61346 15.6691 5.479 15.4663 5.30289C15.2441 5.1098 15.0787 4.84888 14.7479 4.32704C13.8453 2.90329 13.3941 2.19142 12.8183 1.9434C12.2998 1.72004 11.7102 1.72004 11.1917 1.9434ZM15.0502 12.0001C15.0502 13.657 13.6868 15.0001 12.005 15.0001C10.3232 15.0001 8.95982 13.657 8.95982 12.0001C8.95982 10.3433 10.3232 9.00011 12.005 9.00011C13.6868 9.00011 15.0502 10.3433 15.0502 12.0001Z" fill="#3ABDFF"/>
<mask id="mask0_292_1142" style="mask-type:alpha" maskUnits="userSpaceOnUse" x="2" y="1" width="20" height="22">
<path fill-rule="evenodd" clip-rule="evenodd" d="M11.1917 1.9434C10.6159 2.19142 10.1647 2.90329 9.26214 4.32704C8.93135 4.84888 8.76595 5.1098 8.54367 5.30289C8.34094 5.479 8.10454 5.61346 7.84836 5.69837C7.56748 5.79147 7.25542 5.80212 6.63129 5.82343C4.92846 5.88157 4.07704 5.91063 3.57115 6.27784C3.11554 6.60855 2.82072 7.1116 2.75781 7.66568C2.68796 8.28089 3.08812 9.02183 3.88843 10.5037C4.18176 11.0469 4.32843 11.3184 4.38703 11.6046C4.44048 11.8657 4.44048 12.1346 4.38703 12.3956C4.32843 12.6818 4.18176 12.9534 3.88843 13.4965C3.08812 14.9784 2.68797 15.7193 2.75781 16.3345C2.82072 16.8886 3.11554 17.3917 3.57115 17.7224C4.07704 18.0896 4.92846 18.1187 6.63129 18.1768C7.25539 18.1981 7.56749 18.2088 7.84836 18.3018C8.10454 18.3868 8.34094 18.5212 8.54367 18.6973C8.76595 18.8904 8.93135 19.1513 9.26215 19.6732C10.1647 21.0969 10.6159 21.8088 11.1917 22.0568C11.7102 22.2802 12.2998 22.2802 12.8183 22.0568C13.3941 21.8088 13.8453 21.0969 14.7479 19.6732C15.0786 19.1514 15.2441 18.8904 15.4663 18.6973C15.6691 18.5212 15.9055 18.3868 16.1616 18.3018C16.4425 18.2088 16.7546 18.1981 17.3787 18.1768C19.0815 18.1187 19.933 18.0896 20.4389 17.7224C20.8945 17.3917 21.1893 16.8886 21.2522 16.3345C21.322 15.7193 20.9219 14.9784 20.1216 13.4965C19.8282 12.9534 19.6816 12.6818 19.623 12.3956C19.5695 12.1346 19.5695 11.8657 19.623 11.6046C19.6816 11.3184 19.8282 11.0469 20.1216 10.5037C20.9219 9.02183 21.322 8.28089 21.2522 7.66568C21.1893 7.1116 20.8945 6.60855 20.4389 6.27784C19.933 5.91063 19.0815 5.88157 17.3787 5.82343C16.7546 5.80212 16.4425 5.79147 16.1616 5.69837C15.9055 5.61346 15.6691 5.479 15.4663 5.30289C15.2441 5.1098 15.0787 4.84888 14.7479 4.32704C13.8453 2.90329 13.3941 2.19142 12.8183 1.9434C12.2998 1.72004 11.7102 1.72004 11.1917 1.9434ZM15.0502 12.0001C15.0502 13.657 13.6868 15.0001 12.005 15.0001C10.3232 15.0001 8.95982 13.657 8.95982 12.0001C8.95982 10.3433 10.3232 9.00011 12.005 9.00011C13.6868 9.00011 15.0502 10.3433 15.0502 12.0001Z" fill="#3ABDFF"/>
</mask>
<g mask="url(#mask0_292_1142)">
<rect x="12.7822" y="1.16699" width="15.5883" height="25.7318" fill="#104B82" fill-opacity="0.3"/>
</g>
</svg>
