<svg width="24" height="24" viewBox="0 0 24 24" fill="none" xmlns="http://www.w3.org/2000/svg">
<g clip-path="url(#clip0_292_1149)">
<path fill-rule="evenodd" clip-rule="evenodd" d="M11.4755 1.33611C11.8178 1.24343 12.1786 1.24343 12.5209 1.33611C12.9182 1.4437 13.2528 1.70636 13.5198 1.91599C13.5453 1.93601 13.5702 1.95554 13.5944 1.9744L20.3767 7.24953C20.4028 7.26983 20.4288 7.28994 20.4545 7.30989C20.8311 7.60217 21.1629 7.85967 21.4101 8.19396C21.6271 8.48735 21.7888 8.81786 21.8871 9.16926C21.9992 9.56967 21.9988 9.98969 21.9983 10.4664C21.9982 10.499 21.9982 10.5317 21.9982 10.5648V17.8383C21.9982 18.3654 21.9982 18.8202 21.9676 19.1948C21.9353 19.5901 21.864 19.9833 21.6712 20.3617C21.3836 20.9262 20.9246 21.3851 20.3602 21.6728C19.9818 21.8656 19.5886 21.9369 19.1932 21.9692C18.8186 21.9998 18.3639 21.9998 17.8368 21.9997H6.15962C5.63248 21.9998 5.17773 21.9998 4.80316 21.9692C4.40781 21.9369 4.01459 21.8656 3.63621 21.6728C3.07173 21.3851 2.61279 20.9262 2.32517 20.3617C2.13237 19.9833 2.06106 19.5901 2.02876 19.1948C1.99815 18.8202 1.99817 18.3654 1.99819 17.8383L1.99819 10.5648C1.99819 10.5317 1.99815 10.499 1.99812 10.4664C1.9976 9.98968 1.99715 9.56967 2.10923 9.16926C2.20759 8.81785 2.36923 8.48735 2.58623 8.19396C2.83349 7.85966 3.1653 7.60216 3.54193 7.30987C3.56763 7.28993 3.59354 7.26983 3.61964 7.24953L10.4019 1.9744C10.4262 1.95554 10.4511 1.936 10.4766 1.91599C10.7436 1.70636 11.0781 1.4437 11.4755 1.33611ZM11.9909 3.28128C11.9157 3.33149 11.8167 3.40773 11.6298 3.55311L4.84752 8.82823C4.34944 9.21562 4.25669 9.29877 4.1942 9.38326C4.12187 9.48105 4.06799 9.59122 4.0352 9.70836C4.00687 9.80956 3.99819 9.93382 3.99819 10.5648V17.7997C3.99819 18.3763 3.99896 18.7486 4.02211 19.0319C4.04431 19.3036 4.08199 19.4043 4.10718 19.4537C4.20305 19.6419 4.35603 19.7949 4.5442 19.8907C4.59364 19.9159 4.69436 19.9536 4.96602 19.9758C5.24936 19.999 5.62163 19.9997 6.19819 19.9997H17.7982C18.3747 19.9997 18.747 19.999 19.0304 19.9758C19.302 19.9536 19.4027 19.9159 19.4522 19.8907C19.6403 19.7949 19.7933 19.6419 19.8892 19.4537C19.9144 19.4043 19.9521 19.3036 19.9743 19.0319C19.9974 18.7486 19.9982 18.3763 19.9982 17.7997V10.5648C19.9982 9.93382 19.9895 9.80956 19.9612 9.70836C19.9284 9.59122 19.8745 9.48105 19.8022 9.38326C19.7397 9.29877 19.6469 9.21562 19.1489 8.82823L12.3666 3.55311C12.1796 3.40773 12.0806 3.33149 12.0055 3.28128C12.0029 3.27958 12.0005 3.27797 11.9982 3.27645C11.9959 3.27797 11.9934 3.27958 11.9909 3.28128Z" fill="#1F5EFF"/>
<path d="M3.49805 9L11.498 3L11.998 2.5L20.498 9.5V19.5L19.3105 20.5H4.49805L3.49805 20V9Z" fill="#1F5EFF"/>
<mask id="mask0_292_1149" style="mask-type:alpha" maskUnits="userSpaceOnUse" x="1" y="1" width="21" height="21">
<path fill-rule="evenodd" clip-rule="evenodd" d="M11.4755 1.33611C11.8178 1.24343 12.1786 1.24343 12.5209 1.33611C12.9182 1.4437 13.2528 1.70636 13.5198 1.91599C13.5453 1.93601 13.5702 1.95554 13.5944 1.9744L20.3767 7.24953C20.4028 7.26983 20.4288 7.28994 20.4545 7.30989C20.8311 7.60217 21.1629 7.85967 21.4101 8.19396C21.6271 8.48735 21.7888 8.81786 21.8871 9.16926C21.9992 9.56967 21.9988 9.98969 21.9983 10.4664C21.9982 10.499 21.9982 10.5317 21.9982 10.5648V17.8383C21.9982 18.3654 21.9982 18.8202 21.9676 19.1948C21.9353 19.5901 21.864 19.9833 21.6712 20.3617C21.3836 20.9262 20.9246 21.3851 20.3602 21.6728C19.9818 21.8656 19.5886 21.9369 19.1932 21.9692C18.8186 21.9998 18.3639 21.9998 17.8368 21.9997H6.15962C5.63248 21.9998 5.17773 21.9998 4.80316 21.9692C4.40781 21.9369 4.01459 21.8656 3.63621 21.6728C3.07173 21.3851 2.61279 20.9262 2.32517 20.3617C2.13237 19.9833 2.06106 19.5901 2.02876 19.1948C1.99815 18.8202 1.99817 18.3654 1.99819 17.8383L1.99819 10.5648C1.99819 10.5317 1.99815 10.499 1.99812 10.4664C1.9976 9.98968 1.99715 9.56967 2.10923 9.16926C2.20759 8.81785 2.36923 8.48735 2.58623 8.19396C2.83349 7.85966 3.1653 7.60216 3.54193 7.30987C3.56763 7.28993 3.59354 7.26983 3.61964 7.24953L10.4019 1.9744C10.4262 1.95554 10.4511 1.936 10.4766 1.91599C10.7436 1.70636 11.0781 1.4437 11.4755 1.33611ZM11.9909 3.28128C11.9157 3.33149 11.8167 3.40773 11.6298 3.55311L4.84752 8.82823C4.34944 9.21562 4.25669 9.29877 4.1942 9.38326C4.12187 9.48105 4.06799 9.59122 4.0352 9.70836C4.00687 9.80956 3.99819 9.93382 3.99819 10.5648V17.7997C3.99819 18.3763 3.99896 18.7486 4.02211 19.0319C4.04431 19.3036 4.08199 19.4043 4.10718 19.4537C4.20305 19.6419 4.35603 19.7949 4.5442 19.8907C4.59364 19.9159 4.69436 19.9536 4.96602 19.9758C5.24936 19.999 5.62163 19.9997 6.19819 19.9997H17.7982C18.3747 19.9997 18.747 19.999 19.0304 19.9758C19.302 19.9536 19.4027 19.9159 19.4522 19.8907C19.6403 19.7949 19.7933 19.6419 19.8892 19.4537C19.9144 19.4043 19.9521 19.3036 19.9743 19.0319C19.9974 18.7486 19.9982 18.3763 19.9982 17.7997V10.5648C19.9982 9.93382 19.9895 9.80956 19.9612 9.70836C19.9284 9.59122 19.8745 9.48105 19.8022 9.38326C19.7397 9.29877 19.6469 9.21562 19.1489 8.82823L12.3666 3.55311C12.1796 3.40773 12.0806 3.33149 12.0055 3.28128C12.0029 3.27958 12.0005 3.27797 11.9982 3.27645C11.9959 3.27797 11.9934 3.27958 11.9909 3.28128Z" fill="#1F5EFF"/>
<path d="M3.49805 9L11.498 3L11.998 2.5L20.498 9.5V19.5L19.3105 20.5H4.49805L3.49805 20V9Z" fill="#1F5EFF"/>
</mask>
<g mask="url(#mask0_292_1149)">
<rect width="25.1794" height="31.0307" transform="matrix(1 0 -0.0407985 0.999167 12.0654 -0.347412)" fill="#051CAF" fill-opacity="0.37"/>
</g>
<path d="M11.998 11.0002C12.5503 11.0002 12.998 11.448 12.998 12.0002V16.0002C12.998 16.5525 12.5503 17.0002 11.998 17.0002C11.4458 17.0002 10.998 16.5525 10.998 16.0002V12.0002C10.998 11.448 11.4458 11.0002 11.998 11.0002Z" fill="white"/>
</g>
<defs>
<clipPath id="clip0_292_1149">
<rect width="24" height="24" fill="white"/>
</clipPath>
</defs>
</svg>
