<svg width="22" height="22" viewBox="0 0 22 22" fill="none" xmlns="http://www.w3.org/2000/svg">
<g clip-path="url(#clip0_732_11120)">
<path fill-rule="evenodd" clip-rule="evenodd" d="M9.76289 4.64945C6.93883 4.64945 4.64948 6.9388 4.64948 9.76286C4.64948 12.5869 6.93883 14.8763 9.76289 14.8763C12.5869 14.8763 14.8763 12.5869 14.8763 9.76286C14.8763 6.9388 12.5869 4.64945 9.76289 4.64945ZM3 9.76286C3 6.02782 6.02785 2.99997 9.76289 2.99997C13.4979 2.99997 16.5258 6.02782 16.5258 9.76286C16.5258 11.3331 15.9906 12.7784 15.0927 13.9263L18.7584 17.592C19.0805 17.9141 19.0805 18.4363 18.7584 18.7584C18.4364 19.0805 17.9142 19.0805 17.5921 18.7584L13.9263 15.0926C12.7785 15.9906 11.3332 16.5257 9.76289 16.5257C6.02785 16.5257 3 13.4979 3 9.76286Z" fill="#2C333B"/>
</g>
<defs>
<clipPath id="clip0_732_11120">
<rect width="22" height="22" fill="white"/>
</clipPath>
</defs>
</svg>
