<svg width="28" height="28" viewBox="0 0 28 28" fill="none" xmlns="http://www.w3.org/2000/svg">
<g clip-path="url(#clip0_302_7720)">
<path d="M8.92079 12.6648L11.9393 15.6833C12.2295 15.9735 12.5778 16.2057 12.9261 16.3218C13.2744 16.496 13.6807 16.554 14.029 16.554C14.3773 16.554 14.7836 16.496 15.1319 16.3218C15.4802 16.2057 15.8284 15.9735 16.1187 15.6833L19.1372 12.6648L22.1556 9.64636L24.1873 7.61469V7.26641C24.1873 7.26641 24.1873 7.26641 24.1873 7.20836C24.1873 6.91812 24.1292 6.62789 24.0131 6.3957C23.897 6.16351 23.7229 5.93132 23.5488 5.75717C23.3746 5.58303 23.1424 5.40889 22.9102 5.29279C22.6781 5.1767 22.3878 5.11865 22.0976 5.11865H6.01842C5.72818 5.11865 5.43795 5.11865 5.20576 5.29279C4.97357 5.40889 4.74138 5.52498 4.56723 5.75717C4.39309 5.93132 4.21895 6.16351 4.10285 6.3957C3.98676 6.62789 3.92871 6.91812 3.92871 7.20836C3.92871 7.20836 3.92871 7.20836 3.92871 7.26641V7.61469L5.96037 9.64636L8.97884 12.6648H8.92079Z" stroke="#1F5EFF" stroke-width="2" stroke-linecap="round" stroke-linejoin="round"/>
<path d="M3.87061 7.67285V20.7335C3.87061 21.8945 4.79937 22.8813 6.01836 22.8813H21.9814C23.1424 22.8813 24.1292 21.9525 24.1292 20.7335V7.67285" stroke="#1F5EFF" stroke-width="2" stroke-linecap="round" stroke-linejoin="round"/>
</g>
<defs>
<clipPath id="clip0_302_7720">
<rect width="22" height="19.3879" fill="white" transform="translate(3 4.30615)"/>
</clipPath>
</defs>
</svg>
