<svg width="24" height="24" viewBox="0 0 24 24" fill="none" xmlns="http://www.w3.org/2000/svg">
<g clip-path="url(#clip0_292_1146)">
<path d="M10.8852 2.19034C11.3401 1.26989 12.6589 1.26989 13.1138 2.19033L15.5485 7.11649C15.7288 7.48144 16.0781 7.7347 16.4825 7.79374L21.9366 8.58994C22.9534 8.73836 23.3593 9.98121 22.6245 10.696L18.674 14.539C18.3824 14.8226 18.2494 15.2306 18.318 15.6306L19.2493 21.0535C19.4228 22.0636 18.3563 22.8327 17.4456 22.3544L12.5792 19.7984C12.2165 19.6078 11.7826 19.6078 11.4198 19.7984L6.55343 22.3544C5.6427 22.8327 4.57627 22.0636 4.74973 21.0535L5.68099 15.6306C5.74967 15.2306 5.61662 14.8226 5.32503 14.539L1.37455 10.696C0.639766 9.98121 1.04567 8.73836 2.06238 8.58994L7.51649 7.79374C7.92089 7.7347 8.27019 7.48144 8.45056 7.11649L10.8852 2.19034Z" fill="#FEBB10"/>
<mask id="mask0_292_1146" style="mask-type:alpha" maskUnits="userSpaceOnUse" x="0" y="1" width="23" height="22">
<path d="M10.8852 2.19034C11.3401 1.26989 12.6589 1.26989 13.1138 2.19033L15.5485 7.11649C15.7288 7.48144 16.0781 7.7347 16.4825 7.79374L21.9366 8.58994C22.9534 8.73836 23.3593 9.98121 22.6245 10.696L18.674 14.539C18.3824 14.8226 18.2494 15.2306 18.318 15.6306L19.2493 21.0535C19.4228 22.0636 18.3563 22.8327 17.4456 22.3544L12.5792 19.7984C12.2165 19.6078 11.7826 19.6078 11.4198 19.7984L6.55343 22.3544C5.6427 22.8327 4.57627 22.0636 4.74973 21.0535L5.68099 15.6306C5.74967 15.2306 5.61662 14.8226 5.32503 14.539L1.37455 10.696C0.639766 9.98121 1.04567 8.73836 2.06238 8.58994L7.51649 7.79374C7.92089 7.7347 8.27019 7.48144 8.45056 7.11649L10.8852 2.19034Z" fill="#FEBB10"/>
</mask>
<g mask="url(#mask0_292_1146)">
<rect x="22.5801" y="2.19995" width="26.4" height="24.2" transform="rotate(37.943 22.5801 2.19995)" fill="#C48D00" fill-opacity="0.54"/>
</g>
</g>
<defs>
<clipPath id="clip0_292_1146">
<rect width="24" height="24" fill="white"/>
</clipPath>
</defs>
</svg>
