<svg width="22" height="22" viewBox="0 0 22 22" fill="none" xmlns="http://www.w3.org/2000/svg">
<path fill-rule="evenodd" clip-rule="evenodd" d="M3.83351 16.4801C3.80041 16.075 3.79971 15.551 3.79971 14.7801V13.7001C3.79971 13.203 3.39678 12.8001 2.89973 12.8001C2.40269 12.8001 1.99976 13.203 1.99976 13.7001L1.99976 14.8172C1.99974 15.5417 1.99974 16.1396 2.03953 16.6267C2.08086 17.1325 2.16957 17.5976 2.39212 18.0343C2.73726 18.7117 3.28798 19.2624 3.96534 19.6076C4.40213 19.8301 4.86716 19.9188 5.37303 19.9602C5.86009 20 6.45799 19.9999 7.18244 19.9999H14.8166C15.5411 19.9999 16.139 20 16.626 19.9602C17.1319 19.9188 17.5969 19.8301 18.0337 19.6076C18.7111 19.2624 19.2618 18.7117 19.607 18.0343C19.8295 17.5976 19.9182 17.1325 19.9595 16.6267C19.9993 16.1396 19.9993 15.5417 19.9993 14.8173V13.7001C19.9993 13.203 19.5964 12.8001 19.0993 12.8001C18.6023 12.8001 18.1994 13.203 18.1994 13.7001V14.7801C18.1994 15.551 18.1987 16.075 18.1656 16.4801C18.1333 16.8747 18.0749 17.0764 18.0032 17.2172C17.8306 17.5559 17.5553 17.8312 17.2166 18.0038C17.0758 18.0755 16.874 18.1339 16.4795 18.1662C16.0744 18.1993 15.5504 18.2 14.7794 18.2H7.21963C6.44873 18.2 5.92468 18.1993 5.51961 18.1662C5.12504 18.1339 4.92326 18.0755 4.78251 18.0038C4.44382 17.8312 4.16846 17.5559 3.9959 17.2172C3.92418 17.0764 3.86575 16.8747 3.83351 16.4801Z" fill="#2C333B"/>
<path d="M5.86308 8.56344C5.51162 8.91491 5.51162 9.48474 5.86308 9.8362L10.363 14.3361C10.7144 14.6876 11.2843 14.6876 11.6357 14.3361L16.1356 9.83621C16.4871 9.48474 16.4871 8.91491 16.1356 8.56344C15.7842 8.21198 15.2143 8.21198 14.8629 8.56344L11.8993 11.527L11.8993 2.89998C11.8993 2.40293 11.4964 2 10.9994 2C10.5023 2 10.0994 2.40293 10.0994 2.89998L10.0994 11.527L7.13585 8.56344C6.78438 8.21198 6.21455 8.21198 5.86308 8.56344Z" fill="#2C333B"/>
</svg>
