<svg width="56" height="56" viewBox="0 0 56 56" fill="none" xmlns="http://www.w3.org/2000/svg">
<circle cx="28" cy="28" r="27" fill="#FAFAFA" stroke="#C30067" stroke-width="2"/>
<g clip-path="url(#clip0_498_10065)">
<path d="M19.3532 45.4998H14.3855L19.7081 37.2256H24.6758L19.3532 45.4998Z" fill="#611A3F"/>
<path d="M36.4014 45.4685H41.3692L36.0466 37.1943H31.0789L36.4014 45.4685Z" fill="#611A3F"/>
<path d="M18.5467 10.5H37.2887C39.5467 10.5 41.3854 12.3387 41.3854 14.5968V39.2742H14.4338V14.5968C14.4338 12.3387 16.2725 10.5 18.5467 10.5Z" fill="#C30067"/>
<path d="M18.5467 10.5H37.2887C39.5467 10.5 41.3854 12.3387 41.3854 14.5968V25.5645H14.4338V14.5968C14.4338 12.3387 16.2725 10.5 18.5467 10.5Z" fill="#E2EBFF"/>
<path d="M20.1596 34.9207C21.4958 34.9207 22.5789 33.8376 22.5789 32.5014C22.5789 31.1652 21.4958 30.082 20.1596 30.082C18.8234 30.082 17.7402 31.1652 17.7402 32.5014C17.7402 33.8376 18.8234 34.9207 20.1596 34.9207Z" fill="white"/>
<path d="M35.6593 34.9207C36.9955 34.9207 38.0787 33.8376 38.0787 32.5014C38.0787 31.1652 36.9955 30.082 35.6593 30.082C34.3232 30.082 33.24 31.1652 33.24 32.5014C33.24 33.8376 34.3232 34.9207 35.6593 34.9207Z" fill="white"/>
<path d="M28.0801 24.1475C25.5239 24.1475 23.6636 22.8438 23.6563 21.1299C23.6636 19.8115 24.7329 18.7568 26.1025 18.5518V18.4639C24.9087 18.2588 24.0591 17.3066 24.0518 16.1201C24.0591 14.4648 25.7583 13.249 28.0801 13.249C30.3945 13.249 32.1011 14.4722 32.0937 16.1201C32.1011 17.3066 31.2222 18.2588 30.043 18.4639V18.5518C31.3979 18.7568 32.4893 19.8115 32.4893 21.1299C32.4893 22.8438 30.6289 24.1475 28.0801 24.1475ZM26.6152 20.8076C26.6079 21.562 27.2231 22.126 28.0801 22.126C28.9297 22.126 29.5449 21.5693 29.5449 20.8076C29.5449 20.0532 28.9224 19.5039 28.0801 19.5039C27.2305 19.5039 26.6079 20.0459 26.6152 20.8076ZM26.791 16.4424C26.7837 17.1309 27.3257 17.6362 28.0801 17.6436C28.8271 17.6362 29.3691 17.1309 29.3691 16.4424C29.3691 15.7612 28.8271 15.2705 28.0801 15.2705C27.3257 15.2705 26.7837 15.7539 26.791 16.4424Z" fill="#C30067"/>
</g>
<defs>
<clipPath id="clip0_498_10065">
<rect width="26.9839" height="35" fill="white" transform="translate(14.3855 10.5)"/>
</clipPath>
</defs>
</svg>
