<svg width="36" height="36" viewBox="0 0 36 36" fill="none" xmlns="http://www.w3.org/2000/svg">
<path d="M14.2063 8.53012V7.55422C14.2063 6.72289 14.8995 6 15.7751 6H23.145C23.7653 6 24.3125 6.36145 24.5679 6.93976L24.8598 7.59036C25.0422 8.16867 25.626 8.53012 26.2462 8.53012H14.2063Z" fill="#AFD0FF"/>
<path d="M6.79999 16.4458C11.2876 16.2289 15.4103 14.0241 19.7885 12.9036C24.2031 11.7831 28.9461 11.7831 33.3607 12.9036V10.0482C33.3607 9.21687 32.6675 8.53012 31.8284 8.53012H23.2545H14.6807C14.0604 8.53012 13.5131 8.16867 13.2578 7.59036L12.9659 6.93976C12.747 6.36145 12.1632 6 11.543 6H4.20958C3.33395 6 2.64075 6.68675 2.64075 7.55422V8.53012V11.5663V16.0482C3.99068 16.3735 5.37709 16.5181 6.79999 16.4458Z" fill="#539EF9"/>
<path d="M19.7885 12.9036C15.4103 14.0241 11.2876 16.1927 6.79999 16.4458C5.37709 16.5181 3.99068 16.3735 2.64075 16.0482V23.6747C6.5446 25.4096 10.7038 26.494 14.8996 25.9156C18.8034 25.3735 22.3424 23.4578 26.1733 22.5542C28.5448 22.012 30.9528 21.8674 33.3607 22.0482V12.9036C28.9461 11.7831 24.2396 11.7831 19.7885 12.9036Z" fill="#3885F4"/>
<path d="M26.1733 22.5543C22.3424 23.4579 18.8034 25.3735 14.8996 25.9157C10.7038 26.494 6.5446 25.4097 2.64075 23.6386V28.4458C2.64075 29.2772 3.33395 30.0001 4.20958 30.0001H31.8284C32.6675 30.0001 33.3972 29.3133 33.3972 28.4458V22.0121C30.9528 21.8675 28.5448 22.0121 26.1733 22.5543Z" fill="#256EEF"/>
<g clip-path="url(#clip0_180_1179)">
<path d="M20.6789 14.4432C20.6789 15.9173 19.4992 17.1263 18.0246 17.1263C16.5663 17.1263 15.3702 15.9338 15.3702 14.4432C15.3866 12.9691 16.5663 11.76 18.0409 11.76C19.4992 11.76 20.6789 12.9691 20.6789 14.4432Z" fill="white"/>
<path d="M18.0245 18.4514C15.0917 18.4514 12.6995 20.6708 12.3226 23.5196C12.9453 23.5196 13.5679 23.4865 14.1741 23.3871C16.9267 22.9068 19.2042 21.0683 21.6947 19.8096C20.6952 18.9649 19.4336 18.4514 18.0245 18.4514Z" fill="white"/>
<path d="M12.3226 23.5196C12.2899 23.7846 12.2407 24.033 12.2407 24.298V24.5299C12.2407 24.8612 12.5029 25.1262 12.8306 25.1262H14.1086H21.9569H23.2349C23.5626 25.1262 23.8247 24.8612 23.8247 24.5299V24.298C23.8247 22.4761 22.9891 20.8695 21.6947 19.793C19.1878 21.0683 16.9268 22.8902 14.1741 23.3705C13.5679 23.4865 12.9453 23.5196 12.3226 23.5196Z" fill="white"/>
</g>
<defs>
<clipPath id="clip0_180_1179">
<rect width="11.584" height="13.3662" fill="white" transform="translate(12.2407 11.76)"/>
</clipPath>
</defs>
</svg>
