<?xml version="1.0" encoding="UTF-8"?>
<svg id="_레이어_1" data-name="레이어 1" xmlns="http://www.w3.org/2000/svg" viewBox="0 0 14.173 14.172">
  <defs>
    <style>
      .cls-1 {
        fill: #73757e;
        fill-rule: evenodd;
      }
    </style>
  </defs>
  <path class="cls-1" d="M7.087,1.417C3.956,1.417,1.417,3.955,1.417,7.086s2.538,5.669,5.669,5.669,5.669-2.538,5.669-5.669S10.218,1.417,7.087,1.417ZM0,7.086C0,3.173,3.173,0,7.087,0s7.087,3.173,7.087,7.086-3.173,7.086-7.087,7.086S0,11,0,7.086ZM6.378,4.535c0-.391.317-.709.709-.709h.006c.391,0,.709.317.709.709s-.317.709-.709.709h-.006c-.391,0-.709-.317-.709-.709ZM7.087,6.378c.391,0,.709.317.709.709v2.551c0,.391-.317.709-.709.709s-.709-.317-.709-.709v-2.551c0-.391.317-.709.709-.709Z"/>
</svg>