<svg width="28" height="28" viewBox="0 0 28 28" fill="none" xmlns="http://www.w3.org/2000/svg">
<path d="M18.7926 6.79532V5.31579C18.7926 4.99415 18.7282 4.67251 18.5996 4.4152C18.4709 4.15789 18.3423 3.90058 18.085 3.7076C17.892 3.51462 17.6347 3.32164 17.3774 3.19298C17.12 3.06433 16.7984 3 16.4768 3H7.14929C6.82765 3 6.50601 3.06433 6.2487 3.19298C5.99139 3.32164 5.73408 3.45029 5.5411 3.7076C5.34812 3.90058 5.15513 4.15789 5.02648 4.4152C4.89782 4.67251 4.8335 4.99415 4.8335 5.31579V22.6842C4.8335 23.0058 4.89782 23.3275 5.02648 23.5848C5.15513 23.8421 5.28379 24.0994 5.5411 24.2924C5.73408 24.4854 5.99139 24.6784 6.2487 24.807C6.50601 24.9357 6.82765 25 7.14929 25H16.4124C16.7341 25 17.0557 24.9357 17.313 24.807C17.5703 24.6784 17.8276 24.5497 18.0206 24.2924C18.2136 24.0994 18.4066 23.8421 18.5352 23.5848C18.6639 23.3275 18.7282 23.0058 18.7282 22.6842V21.2047" stroke="#2C333B" stroke-width="2" stroke-linecap="round" stroke-linejoin="round"/>
<path d="M13.0674 6.40942H10.5586" stroke="#2C333B" stroke-width="2" stroke-linecap="round" stroke-linejoin="round"/>
<path d="M18.6636 9.75464C21.1463 9.75464 23.1665 11.7749 23.1665 14.2576H23.1421C23.1421 16.7403 21.1219 18.7605 18.6392 18.7605C16.1565 18.7605 14.1606 16.7402 14.1606 14.2576C14.1606 11.7749 16.1809 9.75464 18.6636 9.75464ZM17.8853 13.0457C17.471 13.0457 17.1353 13.3814 17.1353 13.7957C17.1357 14.2095 17.4713 14.5457 17.8853 14.5457H17.9146V15.9451C17.5324 15.9796 17.2329 16.301 17.2329 16.6921C17.2333 17.106 17.5689 17.4421 17.9829 17.4421H19.3218C19.7355 17.4418 20.0714 17.1058 20.0718 16.6921C20.0718 16.3096 19.7846 15.994 19.4146 15.948V13.7957C19.4146 13.3817 19.0784 13.0461 18.6646 13.0457H17.8853ZM18.6646 10.8367C18.2503 10.8367 17.9146 11.1725 17.9146 11.5867V12.0007C17.9149 12.4146 18.2506 12.7507 18.6646 12.7507C19.0783 12.7504 19.4142 12.4144 19.4146 12.0007V11.5867C19.4145 11.1727 19.0785 10.837 18.6646 10.8367Z" fill="#2C333B"/>
</svg>
