<svg width="36" height="36" viewBox="0 0 36 36" fill="none" xmlns="http://www.w3.org/2000/svg">
<path d="M31.9998 13.0717L29.5623 11.2773L23.875 7.14678L20.875 4.94611C19.1251 3.65957 16.8439 3.65957 15.0939 4.94611L12.1565 7.07907L6.40668 11.3111L4.00049 13.0717V22.7546H31.9998V13.0717Z" fill="#3C55D2"/>
<path d="M29.4682 7.31592H6.53125V29.1533H29.4682V7.31592Z" fill="#D7E8F9"/>
<path d="M31.9998 31.9974L23.9062 21.6373C23.4687 21.0956 22.8437 20.7571 22.1875 20.7571H13.8127C13.1565 20.7571 12.5315 21.0618 12.094 21.6373L4.00049 31.9974H31.9998Z" fill="#AD6BFE"/>
<path d="M23.625 21.3327L31.9998 13.0718V31.9975L23.625 21.3327Z" fill="#7D57F0"/>
<path d="M12.3753 21.3327L4.00049 13.0718V31.9975L12.3753 21.3327Z" fill="#7D57F0"/>
<path d="M24.3117 13.7827H12.0932C11.6558 13.7827 11.312 13.4102 11.312 12.9363C11.312 12.4623 11.6558 12.0898 12.0932 12.0898H24.3117C24.7492 12.0898 25.0929 12.4623 25.0929 12.9363C25.0929 13.4102 24.7492 13.7827 24.3117 13.7827Z" fill="white"/>
<path d="M24.3117 18.0822H12.0932C11.6558 18.0822 11.312 17.7098 11.312 17.2358C11.312 16.7618 11.6558 16.3894 12.0932 16.3894H24.3117C24.7492 16.3894 25.0929 16.7618 25.0929 17.2358C25.1242 17.6759 24.7492 18.0822 24.3117 18.0822Z" fill="white"/>
</svg>
