<svg width="72" height="72" viewBox="0 0 72 72" fill="none" xmlns="http://www.w3.org/2000/svg">
<path d="M34.752 5.34863C35.8099 4.45568 37.3835 4.45563 38.4414 5.34863C44.5082 10.4703 52.4294 14.2273 61.3594 15.9854C62.5948 16.2287 63.5 17.2869 63.5 18.5186V34.457C63.5 41.845 61.7182 49.2054 57.5312 55.2705C53.3501 61.3273 46.7462 66.1286 37.0273 68.3701C36.6847 68.4491 36.3153 68.4491 35.9727 68.3701C26.2538 66.1286 19.6499 61.3273 15.4688 55.2705C11.2818 49.2054 9.50002 41.8451 9.5 34.457V18.5557C9.50008 17.3209 10.41 16.2613 11.6494 16.0215C20.6549 14.2789 28.642 10.5057 34.752 5.34863Z" fill="#EE444A" stroke="#EE444A"/>
<path fill-rule="evenodd" clip-rule="evenodd" d="M36.0022 21.3574C37.6591 21.3574 39.0022 22.7006 39.0022 24.3574V39.3574C39.0022 41.0143 37.6591 42.3574 36.0022 42.3574C34.3453 42.3574 33.0022 41.0143 33.0022 39.3574V24.3574C33.0022 22.7006 34.3453 21.3574 36.0022 21.3574ZM36.0429 46.892C37.6996 46.9145 39.0244 48.2757 39.0019 49.9324L38.9995 50.1124C38.977 51.7691 37.6158 53.0939 35.9591 53.0714C34.3024 53.049 32.9776 51.6877 33 50.031L33.0025 49.851C33.025 48.1943 34.3862 46.8695 36.0429 46.892Z" fill="white"/>
</svg>
