<svg width="36" height="36" viewBox="0 0 36 36" fill="none" xmlns="http://www.w3.org/2000/svg">
<g clip-path="url(#clip0_297_3220)">
<path d="M19.6804 14.1108C19.6804 14.1108 20.0909 13.205 20.7752 10.5934C21.2465 8.81201 21.2617 6.59286 21.0337 5.80785C20.6992 4.70582 20.2126 3.951 18.616 3.30186C17.2324 2.7433 15.4077 2.90936 14.9212 4.63034C14.4346 6.35132 15.4381 7.89114 13.9784 10.382C12.5035 12.8729 11.9409 14.1259 11.9409 14.1259V32.015H26.614C28.5603 32.015 30.2481 30.6564 30.6434 28.7542L32.9394 17.8094C33.3347 15.9073 31.875 14.1108 29.9135 14.1108H19.6956H19.6804Z" fill="#FFD77D"/>
<path d="M11.9255 14.1108H3V32H11.9255V14.1108Z" fill="#FEBB10"/>
<path d="M27.8453 18.0662H23.2686V20.8439H27.8453V18.0662Z" fill="white"/>
<path d="M7.45537 19.9079C8.32873 19.9079 9.03672 19.2049 9.03672 18.3378C9.03672 17.4707 8.32873 16.7678 7.45537 16.7678C6.58202 16.7678 5.87402 17.4707 5.87402 18.3378C5.87402 19.2049 6.58202 19.9079 7.45537 19.9079Z" fill="white"/>
</g>
<defs>
<clipPath id="clip0_297_3220">
<rect width="30" height="29" fill="white" transform="translate(3 3)"/>
</clipPath>
</defs>
</svg>
