<svg width="28" height="28" viewBox="0 0 28 28" fill="none" xmlns="http://www.w3.org/2000/svg">
<g clip-path="url(#clip0_302_7405)">
<path d="M8.92067 12.6648L11.9391 15.6833C12.2294 15.9735 12.5777 16.2057 12.926 16.3218C13.2742 16.496 13.6806 16.554 14.0289 16.554C14.3771 16.554 14.7835 16.496 15.1318 16.3218C15.48 16.2057 15.8283 15.9735 16.1186 15.6833L19.137 12.6648L22.1555 9.64636L24.1872 7.61469V7.26641C24.1872 7.26641 24.1872 7.26641 24.1872 7.20836C24.1872 6.91812 24.1291 6.62789 24.013 6.3957C23.8969 6.16351 23.7228 5.93132 23.5486 5.75717C23.3745 5.58303 23.1423 5.40889 22.9101 5.29279C22.6779 5.1767 22.3877 5.11865 22.0975 5.11865H6.0183C5.72806 5.11865 5.43782 5.11865 5.20563 5.29279C4.97344 5.40889 4.74125 5.52498 4.56711 5.75717C4.39297 5.93132 4.21883 6.16351 4.10273 6.3957C3.98664 6.62789 3.92859 6.91812 3.92859 7.20836C3.92859 7.20836 3.92859 7.20836 3.92859 7.26641V7.61469L5.96025 9.64636L8.97872 12.6648H8.92067Z" stroke="#B5B7BA" stroke-width="2" stroke-linecap="round" stroke-linejoin="round"/>
<path d="M3.87048 7.67285V20.7335C3.87048 21.8945 4.79924 22.8813 6.01824 22.8813H21.9813C23.1423 22.8813 24.1291 21.9525 24.1291 20.7335V7.67285" stroke="#B5B7BA" stroke-width="2" stroke-linecap="round" stroke-linejoin="round"/>
</g>
<defs>
<clipPath id="clip0_302_7405">
<rect width="22" height="19.3879" fill="white" transform="translate(3 4.30615)"/>
</clipPath>
</defs>
</svg>
