<svg width="19" height="19" viewBox="0 0 19 19" fill="none" xmlns="http://www.w3.org/2000/svg">
<rect width="19" height="19" fill="#CBCBCB"/>
<path fill-rule="evenodd" clip-rule="evenodd" d="M9.82915 5.5876C10.057 5.81541 10.057 6.18475 9.82915 6.41256L6.74163 9.50008L9.82915 12.5876C10.057 12.8154 10.057 13.1848 9.82915 13.4126C9.60134 13.6404 9.23199 13.6404 9.00419 13.4126L5.50419 9.91256C5.27638 9.68475 5.27638 9.31541 5.50419 9.0876L9.00419 5.5876C9.23199 5.3598 9.60134 5.3598 9.82915 5.5876Z" fill="white"/>
<path fill-rule="evenodd" clip-rule="evenodd" d="M13.4958 5.5876C13.7236 5.81541 13.7236 6.18475 13.4958 6.41256L10.4083 9.50008L13.4958 12.5876C13.7236 12.8154 13.7236 13.1848 13.4958 13.4126C13.268 13.6404 12.8987 13.6404 12.6709 13.4126L9.17085 9.91256C8.94305 9.68475 8.94305 9.31541 9.17085 9.0876L12.6709 5.5876C12.8987 5.3598 13.268 5.3598 13.4958 5.5876Z" fill="white"/>
</svg>
