<svg width="28" height="28" viewBox="0 0 28 28" fill="none" xmlns="http://www.w3.org/2000/svg">
<g clip-path="url(#clip0_302_7676)">
<path d="M23.8853 11.3307V10.1574C23.8853 9.86405 23.8266 9.57072 23.7093 9.27739C23.592 9.04272 23.416 8.74939 23.24 8.57339C23.064 8.39739 22.8293 8.22139 22.536 8.10405C22.3013 7.98672 22.008 7.92805 21.656 7.92805H10.92V6.16805C10.92 5.87472 10.8613 5.58139 10.744 5.28805C10.6266 5.05339 10.4506 4.76005 10.2746 4.58405C10.0986 4.40805 9.86396 4.23205 9.57062 4.11472C9.33596 3.99739 9.04262 3.93872 8.69062 3.93872H6.05062C5.75729 3.93872 5.46396 3.99739 5.17062 4.11472C4.93596 4.23205 4.64262 4.40805 4.46662 4.58405C4.29062 4.76005 4.11462 4.99472 3.99729 5.28805C3.87996 5.52272 3.82129 5.81605 3.82129 6.16805V21.7734C3.82129 22.0667 3.87996 22.3601 3.99729 22.6534C4.11462 22.9467 4.29062 23.1814 4.46662 23.3574C4.64262 23.5334 4.87729 23.7094 5.17062 23.8267C5.40529 23.9441 5.69862 24.0027 6.05062 24.0027H21.656C21.9493 24.0027 22.2426 23.9441 22.536 23.8267C22.8293 23.7094 23.064 23.5334 23.24 23.3574C23.416 23.1814 23.592 22.9467 23.7093 22.6534C23.8266 22.4187 23.8853 22.1254 23.8853 21.7734V20.1894" stroke="#1F5EFF" stroke-width="2" stroke-linecap="round" stroke-linejoin="round"/>
<path d="M24.12 15.7896H13.9707L16.904 18.7229" stroke="#1F5EFF" stroke-width="2" stroke-linecap="round" stroke-linejoin="round"/>
</g>
<defs>
<clipPath id="clip0_302_7676">
<rect width="22" height="21.7653" fill="white" transform="translate(3 3.11743)"/>
</clipPath>
</defs>
</svg>
