<svg width="24" height="24" viewBox="0 0 24 24" fill="none" xmlns="http://www.w3.org/2000/svg">
<g clip-path="url(#clip0_833_6031)">
<path fill-rule="evenodd" clip-rule="evenodd" d="M10.2773 4.39691C7.02966 4.39691 4.39691 7.02966 4.39691 10.2773C4.39691 13.525 7.02966 16.1577 10.2773 16.1577C13.525 16.1577 16.1577 13.525 16.1577 10.2773C16.1577 7.02966 13.525 4.39691 10.2773 4.39691ZM2.5 10.2773C2.5 5.98203 5.98203 2.5 10.2773 2.5C14.5726 2.5 18.0546 5.98203 18.0546 10.2773C18.0546 12.0832 17.4392 13.7452 16.4066 15.0653L20.6222 19.2809C20.9926 19.6513 20.9926 20.2518 20.6222 20.6222C20.2518 20.9926 19.6513 20.9926 19.2809 20.6222L15.0653 16.4066C13.7452 17.4392 12.0832 18.0546 10.2773 18.0546C5.98203 18.0546 2.5 14.5726 2.5 10.2773Z" fill="#2C333B"/>
</g>
<defs>
<clipPath id="clip0_833_6031">
<rect width="24" height="24" fill="white"/>
</clipPath>
</defs>
</svg>
