<svg width="50" height="50" viewBox="0 0 50 50" fill="none" xmlns="http://www.w3.org/2000/svg">
<path d="M17.8047 18.6001H32.6817L18.2566 32.4334H32.6817" stroke="#8597A8" stroke-width="2.33333" stroke-linecap="round" stroke-linejoin="round"/>
<path d="M21.4875 19.5377C22.0348 17.335 20.6163 15.1239 18.3193 14.5991C16.0224 14.0744 13.7167 15.4346 13.1695 17.6374C12.6223 19.8401 14.0408 22.0511 16.3377 22.5759C18.6347 23.1007 20.9403 21.7404 21.4875 19.5377Z" fill="white" stroke="#8597A8" stroke-width="2.33333" stroke-linecap="round" stroke-linejoin="round"/>
<path d="M35.7023 21.5145C37.372 19.9133 37.372 17.3174 35.7023 15.7162C34.0327 14.1151 31.3256 14.1151 29.656 15.7162C27.9863 17.3174 27.9863 19.9133 29.656 21.5145C31.3256 23.1156 34.0327 23.1156 35.7023 21.5145Z" fill="#18E2D7" stroke="#8597A8" stroke-width="2.33333" stroke-linecap="round" stroke-linejoin="round"/>
<path d="M21.4768 33.3768C22.024 31.1741 20.6056 28.963 18.3086 28.4382C16.0116 27.9135 13.706 29.2737 13.1588 31.4765C12.6116 33.6792 14.03 35.8902 16.327 36.415C18.6239 36.9398 20.9296 35.5795 21.4768 33.3768Z" fill="white" stroke="#8597A8" stroke-width="2.33333" stroke-linecap="round" stroke-linejoin="round"/>
<path d="M35.7179 35.3294C37.3876 33.7283 37.3876 31.1323 35.7179 29.5312C34.0483 27.93 31.3413 27.93 29.6716 29.5312C28.002 31.1323 28.002 33.7283 29.6716 35.3294C31.3413 36.9306 34.0483 36.9306 35.7179 35.3294Z" fill="white" stroke="#8597A8" stroke-width="2.33333" stroke-linecap="round" stroke-linejoin="round"/>
</svg>
