<svg width="24" height="24" viewBox="0 0 24 24" fill="none" xmlns="http://www.w3.org/2000/svg">
<g clip-path="url(#clip0_439_11156)">
<path fill-rule="evenodd" clip-rule="evenodd" d="M15 4H9V3C9 2.44772 8.55229 2 8 2C7.44772 2 7 2.44772 7 3L7 4.00003C6.54097 4.00031 6.14075 4.00314 5.80497 4.03057C5.40963 4.06287 5.01641 4.13419 4.63803 4.32698C4.07354 4.6146 3.6146 5.07354 3.32698 5.63803C3.13419 6.01641 3.06287 6.40963 3.03057 6.80497C2.99997 7.17954 2.99998 7.63428 3 8.16142V15.8385C2.99998 16.3657 2.99997 16.8205 3.03057 17.195C3.06287 17.5904 3.13419 17.9836 3.32698 18.362C3.6146 18.9265 4.07354 19.3854 4.63803 19.673C5.01641 19.8658 5.40963 19.9371 5.80497 19.9694C6.17951 20 6.63423 20 7.16131 20H16.8385C17.3656 20 17.8205 20 18.195 19.9694C18.5904 19.9371 18.9836 19.8658 19.362 19.673C19.9265 19.3854 20.3854 18.9265 20.673 18.362C20.8658 17.9836 20.9371 17.5904 20.9694 17.195C21 16.8205 21 16.3657 21 15.8386V8.16144C21 7.6343 21 7.17954 20.9694 6.80497C20.9371 6.40963 20.8658 6.01641 20.673 5.63803C20.3854 5.07354 19.9265 4.6146 19.362 4.32698C18.9836 4.13419 18.5904 4.06287 18.195 4.03057C17.8593 4.00314 17.459 4.00031 17 4.00003V3C17 2.44772 16.5523 2 16 2C15.4477 2 15 2.44772 15 3V4ZM19 9V8.2C19 7.62345 18.9992 7.25117 18.9761 6.96784C18.9539 6.69617 18.9162 6.59546 18.891 6.54601C18.7951 6.35785 18.6422 6.20487 18.454 6.109C18.4045 6.0838 18.3038 6.04612 18.0322 6.02393C17.7488 6.00078 17.3766 6 16.8 6H7.2C6.62345 6 6.25118 6.00078 5.96784 6.02393C5.69618 6.04612 5.59546 6.0838 5.54601 6.109C5.35785 6.20487 5.20487 6.35785 5.109 6.54601C5.0838 6.59546 5.04613 6.69617 5.02393 6.96784C5.00078 7.25117 5 7.62345 5 8.2V9H19ZM5 11H19V15.8C19 16.3766 18.9992 16.7488 18.9761 17.0322C18.9539 17.3038 18.9162 17.4045 18.891 17.454C18.7951 17.6422 18.6422 17.7951 18.454 17.891C18.4045 17.9162 18.3038 17.9539 18.0322 17.9761C17.7488 17.9992 17.3766 18 16.8 18H7.2C6.62345 18 6.25118 17.9992 5.96784 17.9761C5.69618 17.9539 5.59546 17.9162 5.54601 17.891C5.35785 17.7951 5.20487 17.6422 5.109 17.454C5.0838 17.4045 5.04613 17.3038 5.02393 17.0322C5.00078 16.7488 5 16.3766 5 15.8V11Z" fill="#73757E"/>
</g>
<defs>
<clipPath id="clip0_439_11156">
<rect width="24" height="24" fill="white"/>
</clipPath>
</defs>
</svg>
