<svg width="24" height="24" viewBox="0 0 24 24" fill="none" xmlns="http://www.w3.org/2000/svg">
<g clip-path="url(#clip0_1368_12054)">
<path d="M22.3125 20.9375V3.0625C22.3125 2.30311 21.6969 1.6875 20.9375 1.6875L3.0625 1.6875C2.30311 1.6875 1.6875 2.30311 1.6875 3.0625V20.9375C1.6875 21.6969 2.30311 22.3125 3.0625 22.3125H20.9375C21.6969 22.3125 22.3125 21.6969 22.3125 20.9375Z" stroke="#4B5058" stroke-width="1.83333" stroke-linecap="round" stroke-linejoin="round"/>
<path d="M9.66309 17.5691V16.8129H9.86934C10.0068 16.8129 10.1443 16.8129 10.3506 16.8129C10.4881 16.8129 10.6256 16.6754 10.7631 16.5379C10.9006 16.4004 10.9006 16.1941 10.9006 15.9191V11.5191C10.9006 11.2441 10.9006 11.1066 10.6943 10.9691C10.5568 10.8316 10.4193 10.7629 10.2818 10.6941C10.1443 10.6941 10.0068 10.6941 9.86934 10.6941H9.66309V9.93789H13.0318V15.9879C13.0318 16.2629 13.0318 16.4691 13.1693 16.6066C13.3068 16.7441 13.4443 16.8129 13.5818 16.8816C13.7193 16.8816 13.9256 16.8816 14.0631 16.8816H14.2693V17.6379H9.66309V17.5691ZM11.8631 8.56289C11.5193 8.56289 11.2443 8.49414 10.9693 8.28789C10.7631 8.15039 10.6256 7.87539 10.6256 7.53164C10.6256 7.18789 10.7631 6.91289 10.9693 6.70664C11.1756 6.56914 11.5193 6.43164 11.8631 6.43164C12.2068 6.43164 12.4818 6.50039 12.7568 6.70664C13.0318 6.84414 13.1006 7.11914 13.1006 7.53164C13.1006 7.94414 12.9631 8.15039 12.7568 8.28789C12.4818 8.42539 12.2068 8.56289 11.8631 8.56289Z" fill="#4B5058"/>
</g>
<defs>
<clipPath id="clip0_1368_12054">
<rect width="22" height="22" fill="white" transform="translate(1 1)"/>
</clipPath>
</defs>
</svg>
