<svg width="36" height="36" viewBox="0 0 36 36" fill="none" xmlns="http://www.w3.org/2000/svg">
<g clip-path="url(#clip0_297_3029)">
<path d="M33 32.0033L30.1332 25.5083C31.3743 23.3 32.0886 20.7367 32.0886 18.0017C32.0886 9.715 25.5776 3 17.5443 3C9.51099 3 3 9.715 3 18C3 26.285 9.51099 33 17.5443 33C20.4871 33 23.2246 32.095 25.5145 30.545L33 32.0033Z" fill="#FF6B57"/>
<path d="M14.1927 12.9216H12.1484V15.9383H14.1927V12.9216Z" fill="white"/>
<path d="M23.3558 12.9216H21.3115V15.9383H23.3558V12.9216Z" fill="white"/>
<path d="M12.543 18.9966H22.9615V21.3516C22.9615 23.6066 21.1871 25.4366 19.0006 25.4366H16.5039C14.3174 25.4366 12.543 23.6066 12.543 21.3516V18.9966Z" fill="#FFCD50"/>
</g>
<defs>
<clipPath id="clip0_297_3029">
<rect width="30" height="30" fill="white" transform="translate(3 3)"/>
</clipPath>
</defs>
</svg>
