<svg width="72" height="72" viewBox="0 0 72 72" fill="none" xmlns="http://www.w3.org/2000/svg">
<rect width="72" height="72" rx="36" fill="#DBFFDD"/>
<path d="M56.0005 52.0556V27.3601C56.0005 25.7339 54.6091 24.4156 52.8927 24.4156L19.1083 24.4156C17.3919 24.4156 16.0005 25.7339 16.0005 27.3601V52.0556C16.0005 53.6817 17.3919 55 19.1083 55H52.8927C54.6091 55 56.0005 53.6817 56.0005 52.0556Z" stroke="#0C7D02" stroke-width="3" stroke-linecap="round" stroke-linejoin="round"/>
<mask id="path-3-inside-1_2529_28473" fill="white">
<path d="M47.209 24.0812V19.3188C47.209 18.5861 47.8296 18 48.6276 18C49.4255 18 50.0461 18.5861 50.0461 19.3188V24.0812C50.0461 24.8139 49.4255 25.4 48.6276 25.4C47.8296 25.4 47.209 24.8139 47.209 24.0812Z"/>
</mask>
<path d="M47.209 24.0812V19.3188C47.209 18.5861 47.8296 18 48.6276 18C49.4255 18 50.0461 18.5861 50.0461 19.3188V24.0812C50.0461 24.8139 49.4255 25.4 48.6276 25.4C47.8296 25.4 47.209 24.8139 47.209 24.0812Z" fill="#0C7D02"/>
<path d="M47.209 24.0812H50.209V19.3188H47.209H44.209V24.0812H47.209ZM47.209 19.3188H50.209C50.209 20.4321 49.2908 21 48.6276 21V18V15C46.3684 15 44.209 16.7401 44.209 19.3188H47.209ZM48.6276 18V21C47.9643 21 47.0461 20.4321 47.0461 19.3188H50.0461H53.0461C53.0461 16.7401 50.8866 15 48.6276 15V18ZM50.0461 19.3188H47.0461V24.0812H50.0461H53.0461V19.3188H50.0461ZM50.0461 24.0812H47.0461C47.0461 22.9678 47.9643 22.4 48.6276 22.4V25.4V28.4C50.8866 28.4 53.0461 26.6599 53.0461 24.0812H50.0461ZM48.6276 25.4V22.4C49.2908 22.4 50.209 22.9679 50.209 24.0812H47.209H44.209C44.209 26.6599 46.3684 28.4 48.6276 28.4V25.4Z" fill="#0C7D02" mask="url(#path-3-inside-1_2529_28473)"/>
<mask id="path-5-inside-2_2529_28473" fill="white">
<path d="M20.729 24.0812V19.3188C20.729 18.5861 21.3496 18 22.1476 18C22.9455 18 23.5661 18.5861 23.5661 19.3188V24.0812C23.5661 24.8139 22.9455 25.4 22.1476 25.4C21.3496 25.4 20.729 24.8139 20.729 24.0812Z"/>
</mask>
<path d="M20.729 24.0812V19.3188C20.729 18.5861 21.3496 18 22.1476 18C22.9455 18 23.5661 18.5861 23.5661 19.3188V24.0812C23.5661 24.8139 22.9455 25.4 22.1476 25.4C21.3496 25.4 20.729 24.8139 20.729 24.0812Z" fill="#0C7D02"/>
<path d="M20.729 24.0812H23.729V19.3188H20.729H17.729V24.0812H20.729ZM20.729 19.3188H23.729C23.729 20.4321 22.8108 21 22.1476 21V18V15C19.8885 15 17.729 16.7401 17.729 19.3188H20.729ZM22.1476 18V21C21.4844 21 20.5661 20.4321 20.5661 19.3188H23.5661H26.5661C26.5661 16.7401 24.4067 15 22.1476 15V18ZM23.5661 19.3188H20.5661V24.0812H23.5661H26.5661V19.3188H23.5661ZM23.5661 24.0812H20.5661C20.5661 22.9679 21.4844 22.4 22.1476 22.4V25.4V28.4C24.4067 28.4 26.5661 26.6599 26.5661 24.0812H23.5661ZM22.1476 25.4V22.4C22.8108 22.4 23.729 22.9679 23.729 24.0812H20.729H17.729C17.729 26.6599 19.8885 28.4 22.1476 28.4V25.4Z" fill="#0C7D02" mask="url(#path-5-inside-2_2529_28473)"/>
<path d="M16 32.1092H56" stroke="#0C7D02" stroke-width="3" stroke-linecap="round" stroke-linejoin="round"/>
<path d="M32.0771 41.5264L34.3295 44.825L39.6429 39.275" stroke="#0C7D02" stroke-width="3" stroke-linecap="round" stroke-linejoin="round"/>
</svg>
