<svg width="238" height="20" viewBox="0 0 238 20" fill="none" xmlns="http://www.w3.org/2000/svg">
<path d="M6.62402 0.0996094C8.29441 0.099615 9.9076 0.501362 11.1172 0.845703L11.6924 1.01758V4.57617L11.2324 4.34668C10.3108 3.88756 8.52475 3.31302 6.39355 3.19824C5.58718 3.19825 3.68675 3.37063 3.68652 5.14941C3.68652 6.12505 4.49259 6.64237 5.81738 7.33105C5.99009 7.44576 6.16323 7.50251 6.33594 7.61719L8.29395 8.53613C8.58193 8.70829 8.81261 8.82296 9.10059 8.99512C10.771 9.85596 12.7871 10.9461 12.96 14.1025C12.96 17.8903 10.3101 19.9561 5.47168 19.9561C3.80147 19.956 2.01607 19.4976 0.633789 19.1533L0.230469 19.0381V15.5371L0.633789 15.71C0.748927 15.71 0.864355 15.7669 0.979492 15.8242C1.90108 16.1686 3.45604 16.7998 5.64453 16.7998C6.96932 16.7998 9.15818 16.5131 9.1582 14.3896C9.1582 12.7828 7.89114 12.1518 6.56641 11.5205L5.5293 11.0039C3.22531 9.91349 0 8.30578 0 5.37891C0.000195885 2.10787 2.47699 0.0996094 6.62402 0.0996094ZM36.8057 5.66602C41.0681 5.66602 43.6602 8.42054 43.6602 12.7822C43.66 17.2011 41.068 19.8984 36.8633 19.8984C32.6586 19.8984 30.0664 17.2005 30.0664 12.8389C30.0666 8.47752 32.7163 5.6661 36.8057 5.66602ZM118.368 6.00977H122.169V8.87988H118.425V14.7334C118.425 16.0533 118.541 16.914 119.923 16.9141C120.384 16.9141 120.845 16.8565 121.651 16.627L122.054 16.5127V19.6689L121.766 19.7266C120.672 19.8987 120.038 19.8984 119.462 19.8984C116.467 19.8984 114.97 18.5211 114.97 15.7666V8.82227H112.723V5.95215H114.97V3.37012L118.368 1.30371V6.00977ZM142.444 5.66602C146.649 5.66602 149.299 8.42054 149.299 12.7822C149.299 17.2011 146.707 19.8984 142.502 19.8984C138.297 19.8984 135.705 17.2005 135.705 12.8389C135.705 8.47752 138.355 5.66609 142.444 5.66602ZM49.4785 14.332C49.4785 15.652 49.7086 16.8573 51.3789 16.8574C53.5676 16.8574 54.3741 14.7343 54.6621 13.4717C54.7197 12.8978 54.7774 12.3811 54.835 11.6924V5.89648H58.1182V19.5547H54.8926V17.7754C54.2014 18.8658 52.9915 19.8418 50.7451 19.8418C48.211 19.8416 46.1955 17.8333 46.1953 15.251V5.89648H49.4785V14.332ZM21.7148 5.6084C25.286 5.6084 27.5909 8.07603 27.7061 11.749V13.7578H18.5469C19.0653 15.9386 20.7939 17.0293 23.6738 17.0293C24.0773 17.0292 25.6324 16.7992 26.7842 16.168L27.2451 15.8809V18.6934L27.0723 18.8076C25.9779 19.4963 24.48 19.8408 22.8672 19.8408C20.8513 19.8408 18.8356 19.2668 17.626 18.3486C15.9556 17.086 14.9189 14.9053 14.9189 12.4375C14.919 8.2482 17.5103 5.60857 21.7148 5.6084ZM104.717 5.6084C108.23 5.60844 110.592 8.07606 110.765 11.749V13.7578H101.606C102.125 15.9384 103.853 17.0292 106.732 17.0293C107.136 17.0293 108.691 16.7992 109.843 16.168L110.304 15.8809V18.6934L110.131 18.8076C108.979 19.4962 107.482 19.8408 105.869 19.8408C103.853 19.8408 101.894 19.2669 100.627 18.3486C98.9567 17.086 97.9199 14.9052 97.9199 12.4375C97.92 8.24807 100.512 5.6084 104.717 5.6084ZM65.0303 19.6699H61.6318V0.386719H65.0303V19.6699ZM134.035 5.72266H134.381V9.05176H134.035C132.134 9.05176 129.715 9.56789 129.139 11.9209C129.023 12.4373 128.908 13.0686 128.851 14.0439V19.6689H125.453V5.95215H128.851V7.90332C129.139 7.38687 129.485 7.04279 129.888 6.75586C131.04 6.00978 131.904 5.66527 134.035 5.72266ZM85.9385 14.8496L90.6621 0.386719H95.0967V19.6133H91.8135V6.58496L87.4365 19.6133H84.3262L79.9482 6.52734V19.6133H76.665V0.386719H81.1006L85.9385 14.8496ZM36.8057 8.53516C33.7533 8.53528 33.4649 11.8058 33.5225 12.8965C33.5225 13.8721 33.753 17.0858 36.9209 17.0859C39.8585 17.0859 40.2041 14.1015 40.2041 12.8389C40.204 11.5186 39.8581 8.53516 36.8057 8.53516ZM142.444 8.53516C139.334 8.53527 139.104 11.8058 139.161 12.8965C139.161 13.8721 139.392 17.0858 142.56 17.0859C145.497 17.0859 145.843 14.1015 145.843 12.8389C145.843 11.5186 145.497 8.53516 142.444 8.53516ZM21.6572 8.47754C19.9295 8.47769 18.7772 9.39613 18.4316 11.0029H24.25C24.1348 9.68295 23.3276 8.47754 21.6572 8.47754ZM104.602 8.47754C102.931 8.47754 101.779 9.39599 101.376 11.0029H107.193C107.078 9.68296 106.272 8.47756 104.602 8.47754Z" fill="#515151"/>
<path d="M178.047 10.0339C178.047 15.9223 174.399 19.296 169.631 19.296C164.826 19.296 161.191 15.8974 161.191 10.0339C161.191 4.14552 164.826 0.771839 169.631 0.771839C174.399 0.771839 178.047 4.14552 178.047 10.0339ZM165 10.0339C165 13.8806 166.83 15.9721 169.631 15.9845C172.407 15.9721 174.25 13.8806 174.237 10.0339C174.25 6.17471 172.407 4.09572 169.631 4.08327C166.83 4.09572 165 6.17471 165 10.0339Z" fill="#515151"/>
<path d="M188.877 5.52736V8.29104H186.188V19.047H182.503V8.29104H180.585V5.52736H182.503V4.50654C182.503 1.65572 184.221 0.174286 186.934 0.174286C187.769 0.174286 188.478 0.24898 189.125 0.398368V3.18695C188.59 3.13715 188.204 3.1247 188.005 3.11225C186.822 3.1247 186.188 3.57287 186.188 4.70573V5.52736H188.877Z" fill="#515151"/>
<path d="M199.258 5.52736V8.29104H196.569V19.047H192.884V8.29104H190.967V5.52736H192.884V4.50654C192.884 1.65572 194.602 0.174286 197.316 0.174286C198.15 0.174286 198.86 0.24898 199.507 0.398368V3.18695C198.972 3.13715 198.586 3.1247 198.387 3.11225C197.204 3.1247 196.569 3.57287 196.569 4.70573V5.52736H199.258Z" fill="#515151"/>
<path d="M202.444 19.047V5.52736H206.129V19.047H202.444ZM202.27 1.89225C202.27 0.846533 203.178 0.012449 204.286 0C205.382 0.012449 206.291 0.846533 206.278 1.89225C206.291 2.91307 205.382 3.7596 204.286 3.7596C203.178 3.7596 202.27 2.91307 202.27 1.89225Z" fill="#515151"/>
<path d="M216.087 19.3209C211.942 19.3084 209.452 16.4451 209.464 12.3245C209.452 8.19145 211.991 5.35307 216.087 5.35307C219.573 5.35307 221.938 7.38226 222.087 10.4821H218.627C218.403 9.15002 217.531 8.2288 216.137 8.21635C214.369 8.2288 213.199 9.71023 213.199 12.2747C213.199 14.889 214.344 16.3829 216.137 16.3829C217.432 16.3829 218.39 15.5737 218.627 14.1421H222.087C221.926 17.2045 219.672 19.3084 216.087 19.3209Z" fill="#515151"/>
<path d="M231.523 19.3209C227.377 19.3084 224.838 16.6319 224.85 12.3494C224.838 8.179 227.415 5.35307 231.373 5.35307C234.921 5.35307 237.722 7.5939 237.722 12.2V13.2457H228.485C228.485 15.2874 229.693 16.5447 231.598 16.5572C232.855 16.5447 233.751 15.997 234.112 15.1878H237.623C237.1 17.69 234.859 19.3084 231.523 19.3209ZM228.485 10.9302H234.237C234.224 9.28696 233.091 8.10431 231.448 8.11675C229.755 8.10431 228.56 9.3741 228.485 10.9302Z" fill="#515151"/>
</svg>
