<svg width="36" height="36" viewBox="0 0 36 36" fill="none" xmlns="http://www.w3.org/2000/svg">
<path d="M10.1974 9.11255H26.1914C28.1184 9.11255 29.6875 10.7101 29.6875 12.672V34.1126H6.6875V12.672C6.6875 10.7101 8.25662 9.11255 10.1974 9.11255Z" fill="#162C8F"/>
<path d="M10.1974 8.11255H26.1914C28.1184 8.11255 29.6875 9.69927 29.6875 11.6479V21.1125H6.6875V11.6479C6.6875 9.69927 8.25662 8.11255 10.1974 8.11255Z" fill="#D7DEFE"/>
<path d="M11.902 30.0446C13.1583 30.0446 14.1767 29.0262 14.1767 27.77C14.1767 26.5137 13.1583 25.4954 11.902 25.4954C10.6458 25.4954 9.62744 26.5137 9.62744 27.77C9.62744 29.0262 10.6458 30.0446 11.902 30.0446Z" fill="white"/>
<path d="M24.4748 30.0446C25.731 30.0446 26.7494 29.0262 26.7494 27.77C26.7494 26.5137 25.731 25.4954 24.4748 25.4954C23.2186 25.4954 22.2002 26.5137 22.2002 27.77C22.2002 29.0262 23.2186 30.0446 24.4748 30.0446Z" fill="white"/>
<path d="M23 19H20.6084V16.3913L17.9925 18.7826L15.3916 16.3913V19H13V11L17.9925 15.5942L23 11V19Z" fill="#162C8F"/>
<path d="M13.2441 3.85913C14.5805 2.57024 16.3547 1.85913 18.2441 1.85913C20.1335 1.85913 21.9077 2.57024 23.2441 3.85913" stroke="#1F5EFF" stroke-width="2" stroke-miterlimit="10" stroke-linecap="round"/>
<path d="M16.2441 5.85913C17.3465 4.5258 19.1418 4.5258 20.2441 5.85913" stroke="#1F5EFF" stroke-width="2" stroke-miterlimit="10" stroke-linecap="round"/>
<line x1="3.75" y1="34.2874" x2="32.25" y2="34.2874" stroke="#B9B5B5" stroke-width="1.5" stroke-linecap="round"/>
</svg>
