<svg width="31" height="27" viewBox="0 0 31 27" fill="none" xmlns="http://www.w3.org/2000/svg">
<path d="M6 15L13 15" stroke="white" stroke-width="1.5" stroke-linecap="round"/>
<path d="M13 9L13 15" stroke="white" stroke-width="1.5" stroke-linecap="round"/>
<path d="M24.25 14C24.25 14.1989 24.329 14.3897 24.4697 14.5303C24.6103 14.671 24.8011 14.75 25 14.75C25.1989 14.75 25.3897 14.671 25.5303 14.5303C25.671 14.3897 25.75 14.1989 25.75 14C25.7502 12.9239 25.6154 11.8475 25.3463 10.8055C25.3233 10.7164 25.2994 10.6276 25.2745 10.5392C24.8508 9.03092 24.143 7.60388 23.2026 6.35234C22.415 5.30284 21.4654 4.3759 20.3972 3.61407C18.2595 2.08087 15.6291 1.24222 13 1.25C6.20777 1.08583 0.0858302 7.20778 0.25 14C0.0858305 20.7922 6.20778 26.9142 13 26.75C15.1608 26.7539 17.3263 26.1949 19.2132 25.1361C20.2329 24.5662 21.173 23.8555 22 23.0312C22.1408 22.8908 22.2202 22.7002 22.2205 22.5013C22.2209 22.3024 22.1422 22.1115 22.0018 21.9706C21.8614 21.8297 21.6707 21.7503 21.4718 21.75C21.2729 21.7497 21.082 21.8283 20.9411 21.9688C20.9411 21.9688 20.9411 21.9688 20.9411 21.9688C20.2109 22.6966 19.3808 23.3241 18.4813 23.8268C16.8161 24.7607 14.9113 25.253 13 25.25C7.00836 25.3967 1.60333 19.9916 1.75 14C1.60333 8.00836 7.00835 2.60333 13 2.75C15.3249 2.74374 17.6379 3.48188 19.5261 4.83516C20.4689 5.50758 21.3078 6.3264 22.003 7.25288C22.8332 8.35783 23.4571 9.61616 23.8306 10.9455C23.8525 11.0234 23.8736 11.1017 23.8939 11.1803C24.1311 12.0988 24.2502 13.0479 24.25 14Z" fill="white"/>
<circle cx="21.5" cy="18.5" r="1.5" fill="white"/>
<circle cx="26.5" cy="18.5" r="1.5" fill="white"/>
<circle cx="16.5" cy="18.5" r="1.5" fill="white"/>
</svg>
