<svg width="56" height="56" viewBox="0 0 56 56" fill="none" xmlns="http://www.w3.org/2000/svg">
<circle cx="28" cy="28" r="27" fill="#FAFAFA" stroke="#ED6C00" stroke-width="2"/>
<g clip-path="url(#clip0_498_10062)">
<path d="M19.3532 45.4998H14.3855L19.7081 37.2256H24.6758L19.3532 45.4998Z" fill="#A4652F"/>
<path d="M36.4014 45.4685H41.3692L36.0466 37.1943H31.0789L36.4014 45.4685Z" fill="#A4652F"/>
<path d="M18.5467 10.5H37.2887C39.5467 10.5 41.3854 12.3387 41.3854 14.5968V39.2742H14.4338V14.5968C14.4338 12.3387 16.2725 10.5 18.5467 10.5Z" fill="#ED6C00"/>
<path d="M18.5467 10.5H37.2887C39.5467 10.5 41.3854 12.3387 41.3854 14.5968V25.5645H14.4338V14.5968C14.4338 12.3387 16.2725 10.5 18.5467 10.5Z" fill="#E2EBFF"/>
<path d="M20.1596 34.9207C21.4958 34.9207 22.5789 33.8376 22.5789 32.5014C22.5789 31.1652 21.4958 30.082 20.1596 30.082C18.8234 30.082 17.7402 31.1652 17.7402 32.5014C17.7402 33.8376 18.8234 34.9207 20.1596 34.9207Z" fill="white"/>
<path d="M35.6593 34.9207C36.9955 34.9207 38.0787 33.8376 38.0787 32.5014C38.0787 31.1652 36.9955 30.082 35.6593 30.082C34.3232 30.082 33.24 31.1652 33.24 32.5014C33.24 33.8376 34.3232 34.9207 35.6593 34.9207Z" fill="white"/>
<path d="M27.5068 24.1475C25.0239 24.1475 23.2515 22.7632 23.2295 20.8076H26.042C26.064 21.4375 26.6719 21.8916 27.5215 21.8916C28.3638 21.8916 28.9424 21.4155 28.9424 20.7344C28.9424 20.0605 28.2759 19.5845 27.3018 19.5771H26.2324V17.6436H27.3018C28.188 17.6436 28.8032 17.1675 28.7959 16.501C28.8032 15.8564 28.2832 15.4023 27.5361 15.4023C26.7231 15.4023 26.1299 15.8711 26.1152 16.5303H23.4492C23.4565 14.604 25.1558 13.249 27.5361 13.249C29.8652 13.249 31.4985 14.5527 31.4912 16.3252C31.4985 17.5117 30.5903 18.3247 29.3379 18.4639V18.5518C31.0225 18.7422 31.894 19.665 31.8867 20.9688C31.894 22.8291 30.0776 24.1475 27.5068 24.1475Z" fill="#ED6C00"/>
</g>
<defs>
<clipPath id="clip0_498_10062">
<rect width="26.9839" height="35" fill="white" transform="translate(14.3855 10.5)"/>
</clipPath>
</defs>
</svg>
