<svg width="28" height="28" viewBox="0 0 28 28" fill="none" xmlns="http://www.w3.org/2000/svg">
<path fill-rule="evenodd" clip-rule="evenodd" d="M8.40088 5.17995C9.82287 3.78193 11.7474 3 13.75 3C15.7526 3 17.677 3.78193 19.099 5.17995C20.5217 6.57864 21.3247 8.47992 21.3247 10.4667C21.3247 11.6958 21.4519 12.7558 21.6569 13.6667C21.9578 15.0041 22.4265 16.0202 22.9064 16.7784L22.9202 16.8002C23.3007 17.4015 23.6033 17.8796 23.8078 18.2284C23.9102 18.4031 24.0055 18.5747 24.0768 18.7291C24.1124 18.8062 24.1534 18.9032 24.1858 19.01C24.2124 19.0978 24.2654 19.2924 24.2456 19.5312C24.233 19.6816 24.2011 19.9495 24.0445 20.2267C23.8887 20.5024 23.6768 20.668 23.5563 20.7559C23.2702 20.9646 22.9454 21.0116 22.8417 21.0266L22.8353 21.0276C22.6735 21.0511 22.4915 21.0626 22.3104 21.0696C21.9508 21.0833 21.4539 21.0833 20.8389 21.0833H6.66102C6.04606 21.0833 5.54911 21.0833 5.18951 21.0696C5.00843 21.0626 4.82638 21.0511 4.66464 21.0276L4.65822 21.0266C4.55446 21.0116 4.22971 20.9646 3.94365 20.7559C3.82309 20.668 3.61124 20.5024 3.45546 20.2267C3.29878 19.9495 3.26687 19.6816 3.25435 19.5312C3.23449 19.2924 3.28751 19.0978 3.3141 19.01C3.34649 18.9032 3.38749 18.8062 3.42308 18.7291C3.49442 18.5747 3.5897 18.4031 3.69213 18.2284C3.89656 17.8796 4.19913 17.4016 4.57964 16.8004L4.59355 16.7784C5.4003 15.5038 6.17526 13.5002 6.17526 10.4667C6.17526 8.47992 6.97821 6.57864 8.40088 5.17995ZM13.75 5.33333C12.3535 5.33333 11.0182 5.8789 10.0367 6.84383C9.0559 7.80811 8.50859 9.11168 8.50859 10.4667C8.50859 13.9225 7.61846 16.3621 6.56517 18.0263C6.39116 18.3012 6.2395 18.5409 6.10871 18.7495C6.28197 18.75 6.47481 18.75 6.68922 18.75H20.8107C21.0251 18.75 21.2179 18.75 21.3912 18.7495C21.2604 18.5409 21.1087 18.3012 20.9347 18.0263C20.2857 17.0008 19.6986 15.6809 19.3436 14.0103C19.1224 12.9697 18.9913 11.793 18.9913 10.4667C18.9913 9.11168 18.444 7.80811 17.4632 6.84383C16.4817 5.8789 15.1464 5.33333 13.75 5.33333ZM10.043 23.352C10.4653 22.8654 11.2022 22.8132 11.6888 23.2355C12.2361 23.7104 12.9558 24 13.75 24C14.5441 24 15.2638 23.7104 15.8111 23.2355C16.2977 22.8132 17.0346 22.8654 17.4569 23.352C17.8792 23.8387 17.827 24.5755 17.3403 24.9978C16.3815 25.8299 15.1227 26.3333 13.75 26.3333C12.3772 26.3333 11.1185 25.8299 10.1596 24.9978C9.67292 24.5755 9.62074 23.8387 10.043 23.352Z" fill="#B5B7BA"/>
<path d="M19.7499 11.6666C22.5113 11.6666 24.7498 9.42804 24.7498 6.66667C24.7498 3.90529 22.5113 1.66675 19.7499 1.66675C16.9885 1.66675 14.75 3.90529 14.75 6.66667C14.75 9.42804 16.9885 11.6666 19.7499 11.6666Z" fill="#B5B7BA"/>
<path d="M19.8633 8.3755C19.4859 8.79748 18.8254 8.79748 18.448 8.3755L17.1504 6.92456C16.9224 6.66964 16.9224 6.28411 17.1504 6.02919C17.419 5.72882 17.8898 5.73101 18.1557 6.03385L19.1557 7.17308L21.3835 4.70799C21.6448 4.41884 22.0992 4.42002 22.359 4.71053C22.5816 4.9595 22.5816 5.33602 22.359 5.58499L19.8633 8.3755Z" fill="white"/>
</svg>
