<svg width="28" height="28" viewBox="0 0 28 28" fill="none" xmlns="http://www.w3.org/2000/svg">
<path d="M12.9888 5.27832C8.97358 5.27832 5.48497 8.96439 5.45206 13.177V18.6732L3.93814 20.0226C3.41156 20.5163 3.31282 21.3062 3.67485 21.9315C4.00396 22.4251 4.53054 22.7213 5.12295 22.7213H20.8217C21.4141 22.7213 21.9736 22.4251 22.2698 21.9315C22.6647 21.3062 22.5331 20.5163 22.0065 20.0226L20.4926 18.6732V13.177" stroke="#2C333B" stroke-width="1.97468" stroke-linecap="round" stroke-linejoin="round"/>
<path d="M17.1355 22.8203C17.1355 25.1241 15.2595 27.0001 12.9886 27.0001C10.7177 27.0001 8.8418 25.1241 8.8418 22.8203H17.1355Z" stroke="#2C333B" stroke-width="1.97468" stroke-linecap="round" stroke-linejoin="round"/>
<path d="M19.5903 1.16479C20.0322 1.16503 20.403 1.49703 20.4517 1.93628L20.5083 2.44507L20.52 2.55347L20.6245 2.58472C21.2172 2.7614 21.7392 3.05962 22.1636 3.4646L22.2417 3.53979L22.3423 3.49683L22.8423 3.27905C23.24 3.10616 23.7049 3.2584 23.9224 3.63354C24.1423 4.01306 24.0388 4.49793 23.6831 4.75464L23.2554 5.06323L23.1646 5.12866L23.1919 5.23706C23.2605 5.50752 23.3013 5.80513 23.3013 6.10132V6.26538H23.3101C23.298 6.50234 23.2619 6.73338 23.2056 6.96655L23.1802 7.07397L23.27 7.13843L23.6968 7.44702C24.0525 7.70371 24.156 8.18855 23.936 8.56812C23.7186 8.94324 23.2546 9.09644 22.8569 8.92358L22.3569 8.70581L22.2563 8.66187L22.1772 8.73706C21.7512 9.14367 21.2301 9.45416 20.6421 9.61597L20.5347 9.64624L20.5229 9.75659L20.4663 10.2654C20.4178 10.7049 20.0462 11.0378 19.604 11.0378C19.1619 11.0378 18.7902 10.7049 18.7417 10.2654L18.686 9.75659L18.6743 9.64819L18.5688 9.61694C17.9764 9.44024 17.455 9.14193 17.0308 8.73706L16.9517 8.66187L16.8521 8.70581L16.3511 8.92358C15.9534 9.09625 15.4894 8.94325 15.272 8.56812C15.052 8.18856 15.1555 7.7037 15.5112 7.44702L15.939 7.13843L16.0298 7.073L16.0024 6.9646C15.9339 6.6943 15.8921 6.39732 15.8921 6.10132C15.8921 5.80597 15.9332 5.52192 16.0024 5.23511L16.0288 5.12769L15.939 5.06323L15.5034 4.74878C15.1511 4.49459 15.047 4.01578 15.2622 3.63843C15.4772 3.26155 15.9414 3.10708 16.3394 3.28003L16.8374 3.49683L16.938 3.53979L17.0161 3.4646C17.4421 3.05807 17.9634 2.74753 18.5513 2.58569L18.6597 2.5564L18.6714 2.44507L18.728 1.93628C18.7767 1.49687 19.1482 1.16479 19.5903 1.16479ZM19.5972 4.14136C18.5054 4.14136 17.6128 5.01911 17.6128 6.10132C17.613 7.18339 18.5055 8.0603 19.5972 8.0603C20.6888 8.06022 21.5814 7.18334 21.5815 6.10132C21.5815 5.01916 20.6889 4.14144 19.5972 4.14136Z" fill="#2C333B" stroke="#2C333B" stroke-width="0.329114"/>
</svg>
