<svg width="36" height="36" viewBox="0 0 36 36" fill="none" xmlns="http://www.w3.org/2000/svg">
<g clip-path="url(#clip0_1763_14897)">
<path d="M31.0367 9.02758L28.327 11.7373C27.8016 12.2626 26.9169 12.2626 26.3915 11.7373L24.2625 9.60823C23.7371 9.08288 23.7371 8.19809 24.2625 7.67274L26.9722 4.96306C27.6634 4.27182 27.221 3.08288 26.2256 2.99993C24.1795 2.86168 22.1058 3.55293 20.5574 5.10131C18.5113 7.1474 17.9307 10.0783 18.8155 12.6221L5.76478 25.7557C4.65879 26.8617 4.43759 28.6589 5.37768 29.9308C6.56662 31.5345 8.86156 31.6727 10.2164 30.3179L23.3777 17.1566C25.9215 18.0414 28.88 17.4608 30.8984 15.4147C32.9169 13.3686 33.1657 11.7649 32.9998 9.74647C32.9169 8.77873 31.7556 8.30869 31.0367 8.99993V9.02758ZM8.8892 28.6036C8.44681 29.2396 7.53437 29.2396 7.11962 28.6036C6.87077 28.2442 6.87077 27.7741 7.11962 27.4147C7.56202 26.7787 8.47446 26.7787 8.8892 27.4147C9.13805 27.7741 9.13805 28.2442 8.8892 28.6036Z" fill="#A8CCFF"/>
<path d="M17.5714 17.765L9.63594 9.85719V8.22586L5.65438 5.37793L3 8.03231L5.84793 12.0139H7.47926L15.3871 19.9494" fill="#B8B8B8"/>
<path d="M17.5859 17.7706L15.3766 19.9799C14.5236 20.8329 14.5236 22.2159 15.3766 23.069L23.901 31.5934C24.754 32.4464 26.137 32.4464 26.9901 31.5934L29.1994 29.3841C30.0524 28.531 30.0524 27.148 29.1994 26.2949L20.675 17.7706C19.822 16.9175 18.4389 16.9175 17.5859 17.7706Z" fill="#0059DB"/>
</g>
<defs>
<clipPath id="clip0_1763_14897">
<rect width="30" height="29.1982" fill="white" transform="translate(3 3)"/>
</clipPath>
</defs>
</svg>
