<svg width="20" height="20" viewBox="0 0 20 20" fill="none" xmlns="http://www.w3.org/2000/svg">
<path fill-rule="evenodd" clip-rule="evenodd" d="M5.83331 7.49999L5.83331 5.83332C5.83331 3.53214 7.69879 1.66666 9.99998 1.66666C12.3012 1.66666 14.1666 3.53214 14.1666 5.83332V7.49999C15.5474 7.49999 16.6666 8.61928 16.6666 9.99999V15.8333C16.6666 17.214 15.5474 18.3333 14.1666 18.3333H5.83331C4.4526 18.3333 3.33331 17.214 3.33331 15.8333V9.99999C3.33331 8.61928 4.4526 7.49999 5.83331 7.49999ZM5.83331 9.16666C5.37308 9.16666 4.99998 9.53975 4.99998 9.99999V15.8333C4.99998 16.2936 5.37308 16.6667 5.83331 16.6667H14.1666C14.6269 16.6667 15 16.2936 15 15.8333V9.99999C15 9.53975 14.6269 9.16666 14.1666 9.16666H5.83331ZM12.5 7.49999V5.83332C12.5 4.45261 11.3807 3.33332 9.99998 3.33332C8.61927 3.33332 7.49998 4.45261 7.49998 5.83332V7.49999H12.5Z" fill="#31373D"/>
</svg>
