<svg width="36" height="36" viewBox="0 0 36 36" fill="none" xmlns="http://www.w3.org/2000/svg">
<path d="M14.2061 8.53012V7.55422C14.2061 6.72289 14.8993 6 15.7749 6H23.1448C23.765 6 24.3123 6.36145 24.5677 6.93976L24.8595 7.59036C25.042 8.16867 25.6257 8.53012 26.246 8.53012H14.2061Z" fill="#AFD0FF"/>
<path d="M6.79986 16.4458C11.2875 16.2289 15.4102 14.0241 19.7884 12.9036C24.203 11.7831 28.946 11.7831 33.3606 12.9036V10.0482C33.3606 9.21687 32.6674 8.53012 31.8283 8.53012H23.2544H14.6805C14.0603 8.53012 13.513 8.16867 13.2576 7.59036L12.9658 6.93976C12.7468 6.36145 12.1631 6 11.5429 6H4.20946C3.33383 6 2.64062 6.68675 2.64062 7.55422V8.53012V11.5663V16.0482C3.99055 16.3735 5.37697 16.5181 6.79986 16.4458Z" fill="#539EF9"/>
<path d="M19.7884 12.9036C15.4102 14.0241 11.2875 16.1927 6.79986 16.4458C5.37697 16.5181 3.99055 16.3735 2.64062 16.0482V23.6747C6.54447 25.4096 10.7037 26.494 14.8994 25.9156C18.8033 25.3735 22.3423 23.4578 26.1732 22.5542C28.5447 22.012 30.9526 21.8674 33.3606 22.0482V12.9036C28.946 11.7831 24.2395 11.7831 19.7884 12.9036Z" fill="#3885F4"/>
<path d="M26.1732 22.5543C22.3423 23.4579 18.8033 25.3735 14.8994 25.9157C10.7037 26.494 6.54447 25.4097 2.64062 23.6386V28.4458C2.64062 29.2772 3.33383 30.0001 4.20946 30.0001H31.8283C32.6674 30.0001 33.3971 29.3133 33.3971 28.4458V22.0121C30.9526 21.8675 28.5447 22.0121 26.1732 22.5543Z" fill="#256EEF"/>
<g clip-path="url(#clip0_289_3398)">
<path d="M20.6788 14.4432C20.6788 15.9173 19.4991 17.1263 18.0244 17.1263C16.5662 17.1263 15.3701 15.9338 15.3701 14.4432C15.3865 12.9691 16.5662 11.76 18.0408 11.76C19.4991 11.76 20.6788 12.9691 20.6788 14.4432Z" fill="white"/>
<path d="M18.0246 18.4514C15.0918 18.4514 12.6996 20.6708 12.3228 23.5196C12.9454 23.5196 13.568 23.4865 14.1742 23.3871C16.9269 22.9068 19.2043 21.0683 21.6948 19.8096C20.6953 18.9649 19.4337 18.4514 18.0246 18.4514Z" fill="white"/>
<path d="M12.3226 23.5196C12.2899 23.7846 12.2407 24.033 12.2407 24.298V24.5299C12.2407 24.8612 12.5029 25.1262 12.8306 25.1262H14.1086H21.9569H23.2349C23.5626 25.1262 23.8247 24.8612 23.8247 24.5299V24.298C23.8247 22.4761 22.9891 20.8695 21.6947 19.793C19.1878 21.0683 16.9268 22.8902 14.1741 23.3705C13.5679 23.4865 12.9453 23.5196 12.3226 23.5196Z" fill="white"/>
</g>
<defs>
<clipPath id="clip0_289_3398">
<rect width="11.584" height="13.3662" fill="white" transform="translate(12.2407 11.76)"/>
</clipPath>
</defs>
</svg>
