<svg width="70" height="70" viewBox="0 0 70 70" fill="none" xmlns="http://www.w3.org/2000/svg">
<path d="M53.1688 64.9992H16.6753C11.3506 64.9992 7 60.6486 7 52.6616V19.4798C7 16.6876 11.3506 12.3369 16.6753 12.3369H53.1039C58.4935 12.3369 62.8442 16.6876 62.8442 19.4798V52.7265C62.8442 60.6486 58.4935 64.9992 53.1688 64.9992Z" fill="#E6EAED"/>
<path d="M62.8442 28.1161H7V22.0772C7 16.6876 11.3506 12.3369 16.6753 12.3369H53.1039C58.4935 12.3369 62.8442 16.6876 62.8442 22.0772V28.1161Z" fill="#B5B7BA"/>
<path d="M18.948 20C17.1299 20 15.7013 18.5714 15.7013 16.7532V8.24675C15.7013 6.42857 17.1299 5 18.948 5C20.7662 5 22.1948 6.42857 22.1948 8.24675V16.7532C22.1948 18.5714 20.7013 20 18.948 20Z" fill="#B5B7BA"/>
<path d="M50.896 20C49.0779 20 47.6493 18.5714 47.6493 16.7532V8.24675C47.6493 6.42857 49.0779 5 50.896 5C52.7142 5 54.1428 6.42857 54.1428 8.24675V16.7532C54.1428 18.5714 52.7142 20 50.896 20Z" fill="#B5B7BA"/>
<circle cx="23.5" cy="42.5" r="3.5" fill="white"/>
<circle cx="34.5" cy="42.5" r="3.5" fill="white"/>
<circle cx="45.5" cy="42.5" r="3.5" fill="white"/>
</svg>
