<svg width="20" height="20" viewBox="0 0 20 20" fill="none" xmlns="http://www.w3.org/2000/svg">
<path fill-rule="evenodd" clip-rule="evenodd" d="M1.66675 9.99984C1.66675 5.39746 5.39771 1.6665 10.0001 1.6665C14.6025 1.6665 18.3334 5.39746 18.3334 9.99984C18.3334 14.6022 14.6025 18.3332 10.0001 18.3332C5.39771 18.3332 1.66675 14.6022 1.66675 9.99984ZM10.0001 6.16642C9.53984 6.16642 9.16675 6.53952 9.16675 6.99976C9.16675 7.45999 9.53984 7.83309 10.0001 7.83309H10.0076C10.4678 7.83309 10.8409 7.45999 10.8409 6.99976C10.8409 6.53952 10.4678 6.16642 10.0076 6.16642H10.0001ZM10.8334 9.99976C10.8334 9.53952 10.4603 9.16642 10.0001 9.16642C9.53984 9.16642 9.16675 9.53952 9.16675 9.99976V12.9998C9.16675 13.46 9.53984 13.8331 10.0001 13.8331C10.4603 13.8331 10.8334 13.46 10.8334 12.9998V9.99976Z" fill="#B5B7BA"/>
</svg>
