<?xml version="1.0" encoding="UTF-8"?>
<svg id="_레이어_1" data-name="레이어_1" xmlns="http://www.w3.org/2000/svg" version="1.1" viewBox="0 0 72 72">
  <!-- Generator: Adobe Illustrator 30.2.1, SVG Export Plug-In . SVG Version: 2.1.1 Build 1)  -->
  <defs>
    <style>
      .st0 {
        fill: #fff;
        fill-rule: evenodd;
      }

      .st1 {
        fill: #8295a7;
        fill-opacity: .2;
      }
    </style>
  </defs>
  <path class="st1" d="M30.9,9.4c2.2-4.1,8-4.1,10.2,0l25.4,47.6c2.1,4-.7,8.8-5.1,8.8H10.6c-4.4,0-7.2-4.9-5.1-8.8L30.9,9.4Z"/>
  <path class="st0" d="M36,24.2c1.6,0,2.8,1.3,2.8,2.8v14.2c0,1.6-1.3,2.8-2.8,2.8s-2.8-1.3-2.8-2.8v-14.2c0-1.6,1.3-2.8,2.8-2.8ZM36,48.4c1.6,0,2.8,1.3,2.8,2.9v.2c0,1.6-1.3,2.8-2.9,2.8-1.6,0-2.8-1.3-2.8-2.9v-.2c0-1.6,1.3-2.8,2.9-2.8Z"/>
</svg>