<svg width="24" height="24" viewBox="0 0 24 24" fill="none" xmlns="http://www.w3.org/2000/svg">
<path fill-rule="evenodd" clip-rule="evenodd" d="M5.85709 4.88361C5.56782 4.59434 5.09881 4.59434 4.80953 4.88361C4.52025 5.17289 4.52025 5.6419 4.80953 5.93118L7.0712 8.19285C5.66238 9.33701 4.69207 10.7176 4.21456 11.4856C4.10389 11.6635 4.04855 11.7525 4.01757 11.8898C3.99431 11.9929 3.99431 12.1555 4.01757 12.2586C4.04855 12.3959 4.10388 12.4849 4.21455 12.6628C5.12913 14.1337 7.85146 17.852 12.0001 17.852C13.3976 17.852 14.6333 17.43 15.6926 16.8142L18.1429 19.2645C18.4321 19.5538 18.9011 19.5538 19.1904 19.2645C19.4797 18.9752 19.4797 18.5062 19.1904 18.2169L5.85709 4.88361ZM13.5051 14.6268L9.44725 10.5689C9.18659 11.01 9.03701 11.5246 9.03701 12.0741C9.03701 13.7105 10.3636 15.037 12 15.037C12.5495 15.037 13.064 14.8874 13.5051 14.6268Z" fill="#070F16" fill-opacity="0.3"/>
<path d="M14.9546 12.2975C14.946 12.413 14.9834 12.5285 15.0653 12.6104L17.453 14.998C17.5964 15.1414 17.8289 15.1431 17.9699 14.9973C18.8243 14.1129 19.4367 13.2242 19.7857 12.6628C19.8964 12.4849 19.9517 12.3959 19.9827 12.2586C20.0059 12.1555 20.0059 11.9929 19.9827 11.8898C19.9517 11.7525 19.8964 11.6635 19.7857 11.4856C18.8711 10.0147 16.1488 6.29643 12.0001 6.29643C11.2216 6.29643 10.4933 6.42737 9.81773 6.64983C9.5669 6.73243 9.5033 7.04834 9.69003 7.23507L11.4637 9.0087C11.5456 9.09061 11.661 9.12801 11.7765 9.1194C11.8503 9.1139 11.9248 9.1111 12 9.1111C13.6364 9.1111 14.9629 10.4377 14.9629 12.0741C14.9629 12.1492 14.9601 12.2238 14.9546 12.2975Z" fill="#070F16" fill-opacity="0.3"/>
</svg>
