<svg width="50" height="50" viewBox="0 0 50 50" fill="none" xmlns="http://www.w3.org/2000/svg">
<g clip-path="url(#clip0_302_7808)">
<path d="M32.4999 20.8845H17.4999C15.366 20.8845 13.6362 22.6409 13.6362 24.8076V35.423C13.6362 37.5896 15.366 39.3461 17.4999 39.3461H32.4999C34.6337 39.3461 36.3635 37.5896 36.3635 35.423V24.8076C36.3635 22.6409 34.6337 20.8845 32.4999 20.8845Z" stroke="#8597A8" stroke-width="2.38213" stroke-linecap="round" stroke-linejoin="round"/>
<path d="M18.7119 20.5V17.0769C18.7119 13.5769 21.5528 10.6923 24.9998 10.6923C28.4468 10.6923 31.2877 13.5769 31.2877 17.0769V20.5" stroke="#8597A8" stroke-width="2.38213" stroke-linecap="round" stroke-linejoin="round"/>
<path d="M19.9999 31.4999C20.753 31.4999 21.3635 30.88 21.3635 30.1153C21.3635 29.3506 20.753 28.7307 19.9999 28.7307C19.2468 28.7307 18.6362 29.3506 18.6362 30.1153C18.6362 30.88 19.2468 31.4999 19.9999 31.4999Z" fill="#18E2D7"/>
<path d="M24.9999 31.4999C25.753 31.4999 26.3635 30.88 26.3635 30.1153C26.3635 29.3506 25.753 28.7307 24.9999 28.7307C24.2468 28.7307 23.6362 29.3506 23.6362 30.1153C23.6362 30.88 24.2468 31.4999 24.9999 31.4999Z" fill="#18E2D7"/>
<path d="M29.9999 31.4999C30.753 31.4999 31.3635 30.88 31.3635 30.1153C31.3635 29.3506 30.753 28.7307 29.9999 28.7307C29.2468 28.7307 28.6362 29.3506 28.6362 30.1153C28.6362 30.88 29.2468 31.4999 29.9999 31.4999Z" fill="#18E2D7"/>
</g>
<defs>
<clipPath id="clip0_302_7808">
<rect width="25" height="31" fill="white" transform="translate(12.5 9.5)"/>
</clipPath>
</defs>
</svg>
