<svg width="28" height="28" viewBox="0 0 28 28" fill="none" xmlns="http://www.w3.org/2000/svg">
<path fill-rule="evenodd" clip-rule="evenodd" d="M7.56079 6.17995C8.98279 4.78193 10.9073 4 12.9099 4C14.9125 4 16.8369 4.78193 18.2589 6.17995C19.6816 7.57864 20.4846 9.47992 20.4846 11.4667C20.4846 14.5002 21.2595 16.5038 22.0663 17.7784L22.0801 17.8002C22.4606 18.4015 22.7632 18.8796 22.9677 19.2284C23.0701 19.4031 23.1654 19.5747 23.2367 19.7291C23.2723 19.8062 23.3133 19.9032 23.3457 20.01C23.3723 20.0978 23.4253 20.2924 23.4055 20.5312C23.393 20.6816 23.361 20.9495 23.2044 21.2267C23.0486 21.5024 22.8367 21.668 22.7162 21.7559C22.4301 21.9646 22.1054 22.0116 22.0016 22.0266L21.9952 22.0276C21.8334 22.0511 21.6514 22.0626 21.4703 22.0696C21.1107 22.0833 20.6138 22.0833 19.9988 22.0833H5.82093C5.20597 22.0833 4.70902 22.0833 4.34943 22.0696C4.16834 22.0626 3.9863 22.0511 3.82455 22.0276L3.81814 22.0266C3.71437 22.0116 3.38962 21.9646 3.10356 21.7559C2.983 21.668 2.77116 21.5024 2.61537 21.2267C2.4587 20.9495 2.42678 20.6816 2.41427 20.5312C2.3944 20.2924 2.44742 20.0978 2.47402 20.01C2.5064 19.9032 2.5474 19.8062 2.58299 19.7291C2.65433 19.5747 2.74961 19.4031 2.85205 19.2284C3.05647 18.8796 3.35904 18.4016 3.73955 17.8004L3.75346 17.7784C4.56022 16.5038 5.33517 14.5002 5.33517 11.4667C5.33517 9.47992 6.13812 7.57864 7.56079 6.17995ZM12.9099 6.33333C11.5134 6.33333 10.1781 6.8789 9.19662 7.84383C8.21581 8.80811 7.6685 10.1117 7.6685 11.4667C7.6685 14.9225 6.77837 17.3621 5.72508 19.0263C5.55108 19.3012 5.39941 19.5409 5.26863 19.7495C5.44189 19.75 5.63472 19.75 5.84913 19.75H19.9706C20.185 19.75 20.3778 19.75 20.5511 19.7495C20.4203 19.5409 20.2687 19.3012 20.0947 19.0263C19.0414 17.3621 18.1512 14.9225 18.1512 11.4667C18.1512 10.1117 17.6039 8.80811 16.6231 7.84383C15.6416 6.8789 14.3063 6.33333 12.9099 6.33333ZM9.20294 24.352C9.62523 23.8654 10.3621 23.8132 10.8487 24.2355C11.396 24.7104 12.1157 25 12.9099 25C13.704 25 14.4237 24.7104 14.971 24.2355C15.4577 23.8132 16.1945 23.8654 16.6168 24.352C17.0391 24.8387 16.9869 25.5755 16.5002 25.9978C15.5414 26.8299 14.2826 27.3333 12.9099 27.3333C11.5371 27.3333 10.2784 26.8299 9.31949 25.9978C8.83283 25.5755 8.78065 24.8387 9.20294 24.352Z" fill="#1F5EFF"/>
<path d="M24.4594 7.63719C25.0838 5.03627 23.4816 2.42162 20.8807 1.79719C18.2797 1.17277 15.6651 2.77503 15.0407 5.37595C14.4162 7.97687 16.0185 10.5915 18.6194 11.2159C21.2203 11.8404 23.835 10.2381 24.4594 7.63719Z" fill="#1F5EFF"/>
<path d="M21.1847 8.90686C20.9923 8.90686 20.7999 8.82991 20.6652 8.65675L18.9722 6.61742V8.21426C18.9722 8.5798 18.6644 8.88762 18.2989 8.88762C17.9333 8.88762 17.6255 8.5798 17.6255 8.21426V4.75124C17.6255 4.46265 17.7986 4.21255 18.068 4.11635C18.3373 4.02016 18.6259 4.11635 18.8183 4.30874L20.5113 6.34807V4.80896C20.5113 4.44341 20.8192 4.13559 21.1847 4.13559C21.5502 4.13559 21.8581 4.44341 21.8581 4.80896V8.21426C21.8581 8.50284 21.6849 8.75295 21.4156 8.84914C21.3386 8.86838 21.2617 8.88762 21.1847 8.88762V8.90686Z" fill="white"/>
</svg>
