<svg width="32" height="32" viewBox="0 0 32 32" fill="none" xmlns="http://www.w3.org/2000/svg">
<path d="M0 16C0 7.16344 7.16344 0 16 0C24.8366 0 32 7.16344 32 16C32 24.8366 24.8366 32 16 32C7.16344 32 0 24.8366 0 16Z" fill="white"/>
<path d="M16 0.400391C24.6156 0.400391 31.5996 7.38436 31.5996 16C31.5996 24.6156 24.6156 31.5996 16 31.5996C7.38436 31.5996 0.400391 24.6156 0.400391 16C0.400391 7.38436 7.38436 0.400391 16 0.400391Z" stroke="#8597A8" stroke-opacity="0.5" stroke-width="0.8"/>
<path fill-rule="evenodd" clip-rule="evenodd" d="M19.2071 9.29289C19.5976 9.68342 19.5976 10.3166 19.2071 10.7071L13.9142 16L19.2071 21.2929C19.5976 21.6834 19.5976 22.3166 19.2071 22.7071C18.8166 23.0976 18.1834 23.0976 17.7929 22.7071L11.7929 16.7071C11.4024 16.3166 11.4024 15.6834 11.7929 15.2929L17.7929 9.29289C18.1834 8.90237 18.8166 8.90237 19.2071 9.29289Z" fill="#2C333B"/>
</svg>
