<svg width="30" height="30" viewBox="0 0 30 30" fill="none" xmlns="http://www.w3.org/2000/svg">
<g clip-path="url(#clip0_180_1202)">
<path d="M19.8265 0L16.9245 3.50968C16.2979 3.39839 15.6556 3.3371 14.9992 3.3371C14.3429 3.3371 13.6412 3.40323 12.9895 3.52419L10.0438 0.0774193L4.82732 3.18548L6.3213 7.53226C5.48211 8.57097 4.81482 9.76129 4.36318 11.0597L0 11.9677V18.1855L4.38975 19.0226C4.85076 20.3161 5.52899 21.5 6.376 22.5323L4.95546 26.8903L10.1719 29.9984L13.0739 26.4887C13.7006 26.6 14.3429 26.6613 14.9992 26.6613C15.6556 26.6613 16.3572 26.5952 17.0089 26.4742L19.9547 29.9226L25.1711 26.8145L23.6771 22.4677C24.5163 21.429 25.1836 20.2387 25.6353 18.9403L29.9969 18.0323V11.8145L25.6071 10.9774C25.1461 9.68387 24.4679 8.5 23.6209 7.46774L25.0414 3.10968L19.8265 0Z" fill="#0DCADF"/>
<path d="M17.9918 22.4553C21.9811 20.7498 23.8755 16.0295 22.2231 11.9122C20.5706 7.79481 15.9971 5.83959 12.0078 7.54505C8.01851 9.25051 6.1241 13.9708 7.77652 18.0882C9.42894 22.2055 14.0025 24.1607 17.9918 22.4553Z" fill="#0059DB"/>
<path d="M14.9992 21.087C18.2565 21.087 20.897 18.3617 20.897 14.9999C20.897 11.6381 18.2565 8.91284 14.9992 8.91284C11.742 8.91284 9.10144 11.6381 9.10144 14.9999C9.10144 18.3617 11.742 21.087 14.9992 21.087Z" fill="white"/>
<path d="M14.9992 18.3257C16.7789 18.3257 18.2216 16.8367 18.2216 14.9999C18.2216 13.1631 16.7789 11.6741 14.9992 11.6741C13.2196 11.6741 11.7769 13.1631 11.7769 14.9999C11.7769 16.8367 13.2196 18.3257 14.9992 18.3257Z" fill="#7FE8DF"/>
</g>
<defs>
<clipPath id="clip0_180_1202">
<rect width="30" height="30" fill="white"/>
</clipPath>
</defs>
</svg>
