<svg width="60" height="60" viewBox="0 0 60 60" fill="none" xmlns="http://www.w3.org/2000/svg">
<path d="M25.7232 16.8779L10 17.9511V26.2438L25.7232 22.1462V16.8779Z" fill="white" stroke="#343A40" stroke-width="2" stroke-linecap="round" stroke-linejoin="round"/>
<path d="M25.7232 26.0977L10 37.5123V49.9026L25.7232 34.1952V26.0977Z" fill="white" stroke="#343A40" stroke-width="2" stroke-linecap="round" stroke-linejoin="round"/>
<path d="M25.7232 12H10V17.9512L25.7232 16.8781V12Z" fill="white" stroke="#343A40" stroke-width="2" stroke-linecap="round" stroke-linejoin="round"/>
<path d="M25.7232 20.1465L10 24.244V34.1953V37.5124L25.7232 26.0977V20.1465Z" fill="white" stroke="#343A40" stroke-width="2" stroke-linecap="round" stroke-linejoin="round"/>
<path d="M37.5392 35.0731L32.3633 49.9024H33.8282C38.2229 49.9024 41.7386 46.3902 41.7386 42C41.7386 37.6097 39.9807 36.3414 37.5392 34.9756V35.0731Z" fill="white" stroke="#343A40" stroke-width="2" stroke-linecap="round" stroke-linejoin="round"/>
<path d="M25.7232 34.1953L10 49.9026H21.3285L32.3641 34.1953H25.7232Z" fill="white" stroke="#343A40" stroke-width="2" stroke-linecap="round" stroke-linejoin="round"/>
<path d="M33.9262 34.1953H32.4613L21.4258 50.0002H32.4613L37.6373 35.1709C36.563 34.5856 35.2935 34.2929 34.0239 34.2929L33.9262 34.1953Z" fill="white" stroke="#343A40" stroke-width="2" stroke-linecap="round" stroke-linejoin="round"/>
<path d="M51 16.0599H42.9615L45.3626 4L32 19.9401H40.1429L37.7418 32L51 16.0599Z" fill="#3C8FFB" stroke="#3C8FFB" stroke-linecap="round" stroke-linejoin="round"/>
</svg>
