<svg width="37" height="37" viewBox="0 0 37 37" fill="none" xmlns="http://www.w3.org/2000/svg">
<g clip-path="url(#clip0_576_8592)">
<path d="M36.6122 35.3959L33.1135 27.4693C34.6282 24.7743 35.4999 21.646 35.4999 18.3082C35.4999 8.19504 27.5539 0 17.75 0C7.94606 0 0 8.19504 0 18.3061C0 28.4172 7.94606 36.6122 17.75 36.6122C21.3414 36.6122 24.6823 35.5078 27.4769 33.6161L36.6122 35.3959Z" fill="#FF6B57"/>
<path d="M13.6599 12.1085H11.165V15.79H13.6599V12.1085Z" fill="white"/>
<path d="M24.8425 12.1085H22.3477V15.79H24.8425V12.1085Z" fill="white"/>
<path d="M11.6465 19.5225H24.3614V22.3965C24.3614 25.1485 22.1959 27.3819 19.5275 27.3819H16.4804C13.812 27.3819 11.6465 25.1485 11.6465 22.3965V19.5225Z" fill="#FFCD50"/>
</g>
<defs>
<clipPath id="clip0_576_8592">
<rect width="36.6122" height="36.6122" fill="white"/>
</clipPath>
</defs>
</svg>
