<svg width="36" height="36" viewBox="0 0 36 36" fill="none" xmlns="http://www.w3.org/2000/svg">
<g clip-path="url(#clip0_297_2171)">
<path d="M28 3.5H8C6.89543 3.5 6 4.39543 6 5.5V30.5C6 31.6046 6.89543 32.5 8 32.5H28C29.1046 32.5 30 31.6046 30 30.5V5.5C30 4.39543 29.1046 3.5 28 3.5Z" fill="#1BCC9A"/>
<path d="M26.1001 13.8017V7.84937L9.9001 7.84937V13.8017H26.1001Z" fill="#8FFFCC"/>
<path d="M13.3021 19.4469H11.4076C10.6621 19.4469 10.0576 18.8521 10.0576 18.1186C10.0576 17.3851 10.6621 16.7903 11.4076 16.7903H13.3021C14.0476 16.7903 14.6521 17.3851 14.6521 18.1186C14.6521 18.8521 14.0476 19.4469 13.3021 19.4469Z" fill="#FF6B57"/>
<path d="M18.9466 19.4469H17.0521C16.3066 19.4469 15.7021 18.8521 15.7021 18.1186C15.7021 17.3851 16.3066 16.7903 17.0521 16.7903H18.9466C19.6921 16.7903 20.2966 17.3851 20.2966 18.1186C20.2966 18.8521 19.6921 19.4469 18.9466 19.4469Z" fill="white"/>
<path d="M24.5926 19.4469H22.6981C21.9526 19.4469 21.3481 18.8521 21.3481 18.1186C21.3481 17.3851 21.9526 16.7903 22.6981 16.7903H24.5926C25.3381 16.7903 25.9426 17.3851 25.9426 18.1186C25.9426 18.8521 25.3381 19.4469 24.5926 19.4469Z" fill="white"/>
<path d="M13.3021 23.7035H11.4076C10.6621 23.7035 10.0576 23.1087 10.0576 22.3752C10.0576 21.6417 10.6621 21.0469 11.4076 21.0469H13.3021C14.0476 21.0469 14.6521 21.6417 14.6521 22.3752C14.6521 23.1087 14.0476 23.7035 13.3021 23.7035Z" fill="white"/>
<path d="M18.9466 23.7035H17.0521C16.3066 23.7035 15.7021 23.1087 15.7021 22.3752C15.7021 21.6417 16.3066 21.0469 17.0521 21.0469H18.9466C19.6921 21.0469 20.2966 21.6417 20.2966 22.3752C20.2966 23.1087 19.6921 23.7035 18.9466 23.7035Z" fill="white"/>
<path d="M24.5926 23.7035H22.6981C21.9526 23.7035 21.3481 23.1087 21.3481 22.3752C21.3481 21.6417 21.9526 21.0469 22.6981 21.0469H24.5926C25.3381 21.0469 25.9426 21.6417 25.9426 22.3752C25.9426 23.1087 25.3381 23.7035 24.5926 23.7035Z" fill="white"/>
<path d="M13.3021 27.9586H11.4076C10.6621 27.9586 10.0576 27.3638 10.0576 26.6303C10.0576 25.8968 10.6621 25.302 11.4076 25.302H13.3021C14.0476 25.302 14.6521 25.8968 14.6521 26.6303C14.6521 27.3638 14.0476 27.9586 13.3021 27.9586Z" fill="white"/>
<path d="M18.9466 27.9586H17.0521C16.3066 27.9586 15.7021 27.3638 15.7021 26.6303C15.7021 25.8968 16.3066 25.302 17.0521 25.302H18.9466C19.6921 25.302 20.2966 25.8968 20.2966 26.6303C20.2966 27.3638 19.6921 27.9586 18.9466 27.9586Z" fill="white"/>
<path d="M24.5926 27.9586H22.6981C21.9526 27.9586 21.3481 27.3638 21.3481 26.6303C21.3481 25.8968 21.9526 25.302 22.6981 25.302H24.5926C25.3381 25.302 25.9426 25.8968 25.9426 26.6303C25.9426 27.3638 25.3381 27.9586 24.5926 27.9586Z" fill="white"/>
</g>
<defs>
<clipPath id="clip0_297_2171">
<rect width="24" height="29" fill="white" transform="translate(6 3.5)"/>
</clipPath>
</defs>
</svg>
