<svg width="33" height="25" viewBox="0 0 33 25" fill="none" xmlns="http://www.w3.org/2000/svg">
<g clip-path="url(#clip0_180_1398)">
<path d="M28.4901 19.8189C28.3107 19.8189 28.1672 19.7827 28.0238 19.674C27.5933 19.4204 27.4499 18.8406 27.7368 18.4059C28.8488 16.5943 29.4227 14.5653 29.4227 12.5001C29.4227 10.4348 28.8488 8.36963 27.7368 6.59427C27.4857 6.15949 27.5933 5.57978 28.0238 5.32615C28.4542 5.07253 29.0281 5.18123 29.2792 5.61601C30.5705 7.71746 31.252 10.0725 31.252 12.5001C31.252 14.9276 30.5705 17.3189 29.2792 19.3841C29.0999 19.674 28.777 19.8189 28.4901 19.8189Z" fill="#D7E8F9"/>
<path d="M24.1858 18.1161C24.0064 18.1161 23.8271 18.0799 23.6477 17.9349C23.2532 17.6451 23.1456 17.0654 23.4325 16.6668C24.2934 15.4349 24.7238 13.9857 24.7238 12.5002C24.7238 10.9784 24.2934 9.52914 23.4325 8.33349C23.1456 7.93494 23.2532 7.35523 23.6477 7.06537C24.0423 6.77552 24.6162 6.88421 24.9032 7.28276C25.9792 8.84074 26.5173 10.6161 26.5173 12.5364C26.5173 14.4204 25.9434 16.232 24.9032 17.7538C24.7597 17.9712 24.4727 18.1161 24.1858 18.1161Z" fill="#D7E8F9"/>
<path d="M-1.3175 18.4419C-0.815331 19.2391 0.00966907 19.8188 1.01402 19.8188H3.38141C4.78032 19.8188 6.14337 20.1086 7.43467 20.6883L16.4379 24.7463C18.3031 25.5796 20.3836 24.2028 20.3836 22.1376V15.797C18.3031 15.2173 16.2227 14.7825 14.0705 14.8188C8.79771 14.855 3.84771 17.4999 -1.3175 18.4419Z" fill="#4B3BCF"/>
<path d="M13.8194 5.76091C8.61836 6.95656 4.34988 10.9058 -0.851205 12.1015C-1.17403 12.174 -1.46099 12.2102 -1.78381 12.2464V16.9566C-1.78381 17.5 -1.5686 18.0073 -1.31751 18.4421C3.81184 17.5 8.79771 14.8551 14.0705 14.7826C16.2227 14.7464 18.3031 15.1812 20.3836 15.7609V5.43482C18.1955 5.28989 15.9716 5.28989 13.8194 5.76091Z" fill="#7C68F2"/>
<path d="M16.4379 0.253589L7.43466 4.27533C6.17923 4.85504 4.78032 5.14489 3.3814 5.14489H1.04988C-0.492509 5.14489 -1.78381 6.41301 -1.78381 8.00721V12.2826C-1.46099 12.2463 -1.17403 12.2101 -0.851205 12.1376C4.34988 10.9058 8.61836 6.95649 13.8194 5.76084C15.9716 5.25359 18.1955 5.25359 20.3836 5.43475V2.86228C20.3836 0.797067 18.3031 -0.579745 16.4379 0.253589Z" fill="#AA9CFF"/>
</g>
<defs>
<clipPath id="clip0_180_1398">
<rect width="33" height="25" fill="white"/>
</clipPath>
</defs>
</svg>
