<svg width="72" height="72" viewBox="0 0 72 72" fill="none" xmlns="http://www.w3.org/2000/svg">
<path d="M30.7399 9.16494C33.0176 5.0116 38.9841 5.01159 41.2617 9.16493L67.557 57.1151C69.7497 61.1137 66.8564 66.0001 62.2961 66.0001H9.70555C5.14521 66.0001 2.25191 61.1137 4.44467 57.1151L30.7399 9.16494Z" fill="#FEBB10"/>
<path fill-rule="evenodd" clip-rule="evenodd" d="M36.0022 23.3571C37.6591 23.3571 39.0022 24.7002 39.0022 26.3571V41.3571C39.0022 43.0139 37.6591 44.3571 36.0022 44.3571C34.3453 44.3571 33.0022 43.0139 33.0022 41.3571V26.3571C33.0022 24.7002 34.3453 23.3571 36.0022 23.3571ZM36.0429 48.8917C37.6996 48.9141 39.0244 50.2754 39.0019 51.9321L38.9995 52.112C38.977 53.7687 37.6158 55.0935 35.9591 55.0711C34.3024 55.0486 32.9776 53.6873 33 52.0306L33.0025 51.8507C33.025 50.194 34.3862 48.8692 36.0429 48.8917Z" fill="white"/>
</svg>
