<?xml version="1.0" encoding="UTF-8"?>
<svg id="_레이어_1" data-name="레이어 1" xmlns="http://www.w3.org/2000/svg" viewBox="0 0 16 16">
  <defs>
    <style>
      .cls-1 {
        fill: #ee444a;
        fill-rule: evenodd;
      }
    </style>
  </defs>
  <path class="cls-1" d="M0,8C0,3.582,3.582,0,8,0s8,3.582,8,8-3.582,8-8,8S0,12.418,0,8ZM8,4.32c-.442,0-.8.358-.8.8s.358.8.8.8h.007c.442,0,.8-.358.8-.8s-.358-.8-.8-.8h-.007ZM8.8,8c0-.442-.358-.8-.8-.8s-.8.358-.8.8v2.88c0,.442.358.8.8.8s.8-.358.8-.8v-2.88Z"/>
</svg>