<svg width="36" height="36" viewBox="0 0 36 36" fill="none" xmlns="http://www.w3.org/2000/svg">
<g clip-path="url(#clip0_297_3316)">
<path d="M32.6667 2H3.33333C3.14924 2 3 2.14924 3 2.33333V31.6667C3 31.8508 3.14924 32 3.33333 32H32.6667C32.8508 32 33 31.8508 33 31.6667V2.33333C33 2.14924 32.8508 2 32.6667 2Z" fill="#E4DEFF"/>
<path d="M33 2H3V10.2317H33V2Z" fill="#4D3FD1"/>
<path d="M8.16985 4.93823H5.51318V7.5949H8.16985V4.93823Z" fill="#A4CDFF"/>
<path d="M11.7748 4.93823H9.11816V7.5949H11.7748V4.93823Z" fill="#FFD77D"/>
<path d="M15.3798 4.93823H12.7231V7.5949H15.3798V4.93823Z" fill="#FFC5CD"/>
<path d="M17.9217 20.1368C19.4662 20.1368 20.7183 18.8847 20.7183 17.3401C20.7183 15.7956 19.4662 14.5435 17.9217 14.5435C16.3771 14.5435 15.125 15.7956 15.125 17.3401C15.125 18.8847 16.3771 20.1368 17.9217 20.1368Z" fill="#4D3FD1"/>
<path d="M21.8065 25.9035H13.8965V23.4701C13.8965 21.2851 15.6665 19.5151 17.8515 19.5151C20.0365 19.5151 21.8065 21.2851 21.8065 23.4701V25.9035Z" fill="#4D3FD1"/>
</g>
<defs>
<clipPath id="clip0_297_3316">
<rect x="3" y="2" width="30" height="30" rx="2" fill="white"/>
</clipPath>
</defs>
</svg>
