<svg width="72" height="72" viewBox="0 0 72 72" fill="none" xmlns="http://www.w3.org/2000/svg">
<path d="M30.7402 9.16481C33.0178 5.01148 38.9843 5.01146 41.2619 9.1648L67.5572 57.115C69.75 61.1136 66.8567 66 62.2963 66H9.70579C5.14546 66 2.25215 61.1136 4.44491 57.115L30.7402 9.16481Z" fill="#E6EAED"/>
<path fill-rule="evenodd" clip-rule="evenodd" d="M36.0024 23.3569C37.6593 23.3569 39.0024 24.7001 39.0024 26.3569V41.3569C39.0024 43.0138 37.6593 44.3569 36.0024 44.3569C34.3456 44.3569 33.0024 43.0138 33.0024 41.3569V26.3569C33.0024 24.7001 34.3456 23.3569 36.0024 23.3569ZM36.0431 48.8915C37.6998 48.914 39.0246 50.2752 39.0022 51.9319L38.9997 52.1119C38.9773 53.7686 37.616 55.0934 35.9593 55.0709C34.3026 55.0485 32.9778 53.6872 33.0003 52.0305L33.0027 51.8506C33.0252 50.1939 34.3864 48.8691 36.0431 48.8915Z" fill="white"/>
</svg>
