<svg width="56" height="56" viewBox="0 0 56 56" fill="none" xmlns="http://www.w3.org/2000/svg">
<circle cx="28" cy="28" r="27" fill="#FAFAFA" stroke="#7C4932" stroke-width="2"/>
<g clip-path="url(#clip0_498_10067)">
<path d="M19.3532 45.4998H14.3855L19.7081 37.2256H24.6758L19.3532 45.4998Z" fill="#48210F"/>
<path d="M36.4014 45.4685H41.3692L36.0466 37.1943H31.0789L36.4014 45.4685Z" fill="#48210F"/>
<path d="M18.5467 10.5H37.2887C39.5467 10.5 41.3854 12.3387 41.3854 14.5968V39.2742H14.4338V14.5968C14.4338 12.3387 16.2725 10.5 18.5467 10.5Z" fill="#7C4932"/>
<path d="M18.5467 10.5H37.2887C39.5467 10.5 41.3854 12.3387 41.3854 14.5968V25.5645H14.4338V14.5968C14.4338 12.3387 16.2725 10.5 18.5467 10.5Z" fill="#E2EBFF"/>
<path d="M20.1596 34.9207C21.4958 34.9207 22.5789 33.8376 22.5789 32.5014C22.5789 31.1652 21.4958 30.082 20.1596 30.082C18.8234 30.082 17.7402 31.1652 17.7402 32.5014C17.7402 33.8376 18.8234 34.9207 20.1596 34.9207Z" fill="white"/>
<path d="M35.6593 34.9207C36.9955 34.9207 38.0787 33.8376 38.0787 32.5014C38.0787 31.1652 36.9955 30.082 35.6593 30.082C34.3232 30.082 33.24 31.1652 33.24 32.5014C33.24 33.8376 34.3232 34.9207 35.6593 34.9207Z" fill="white"/>
<path d="M27.7192 24.1475C25.2803 24.1475 23.1489 22.6973 23.1636 18.8301C23.1709 15.3804 24.98 13.249 27.7485 13.249C30.063 13.249 31.623 14.7285 31.8062 16.5303H29.0669C28.9277 15.915 28.3857 15.6221 27.7485 15.6221C26.5034 15.6221 25.9395 16.7866 25.9321 18.5518H25.9907C26.4082 17.5776 27.4995 16.999 28.7153 16.999C30.627 16.999 31.9453 18.4199 31.938 20.3682C31.9453 22.6313 30.2095 24.1475 27.7192 24.1475ZM26.1812 20.4707C26.1812 21.3643 26.8257 22.0308 27.7046 22.0234C28.5908 22.0308 29.2354 21.3643 29.228 20.4707C29.2354 19.5625 28.5908 18.9033 27.7046 18.9033C26.833 18.9033 26.1812 19.5698 26.1812 20.4707Z" fill="#7C4932"/>
</g>
<defs>
<clipPath id="clip0_498_10067">
<rect width="26.9839" height="35" fill="white" transform="translate(14.3855 10.5)"/>
</clipPath>
</defs>
</svg>
