<svg width="60" height="60" viewBox="0 0 60 60" fill="none" xmlns="http://www.w3.org/2000/svg">
<path d="M23.0004 51.1998C23.0004 52.7998 21.8004 53.9998 20.2004 53.9998C18.6004 53.9998 17.4004 52.7998 17.4004 51.1998C17.4004 49.5998 20.2004 43.7998 20.2004 43.7998C20.2004 43.7998 23.0004 49.5998 23.0004 51.1998Z" fill="#FF828E" stroke="#FF828E" stroke-width="2" stroke-linejoin="round"/>
<path d="M33.8002 51.1998C33.8002 52.7998 32.6002 53.9998 31.0002 53.9998C29.4002 53.9998 28.2002 52.7998 28.2002 51.1998C28.2002 49.5998 31.0002 43.7998 31.0002 43.7998C31.0002 43.7998 33.8002 49.5998 33.8002 51.1998Z" fill="#FF828E" stroke="#FF828E" stroke-width="2" stroke-linejoin="round"/>
<path d="M44.6 51.1998C44.6 52.7998 43.4 53.9998 41.8 53.9998C40.2 53.9998 39 52.7998 39 51.1998C39 49.5998 41.8 43.7998 41.8 43.7998C41.8 43.7998 44.6 49.5998 44.6 51.1998Z" fill="#FF828E" stroke="#FF828E" stroke-width="2" stroke-linejoin="round"/>
<path d="M48.3996 18.3996C48.1996 18.3996 47.9996 18.3996 47.5996 18.3996C47.5996 17.7996 47.7996 16.9996 47.7996 16.1996C47.7996 9.79961 42.5996 4.59961 36.1996 4.59961C29.7996 4.59961 26.1996 8.39961 24.9996 13.3996C23.5996 12.3996 21.7996 11.7996 19.7996 11.7996C14.9996 11.7996 10.9996 15.7996 10.9996 20.5996C10.9996 25.3996 10.9996 21.7996 10.9996 22.3996C10.5996 22.3996 10.3996 22.3996 9.99961 22.3996C5.79961 22.3996 2.59961 25.7996 2.59961 29.7996C2.59961 33.7996 5.99961 37.1996 9.99961 37.1996H48.1996C53.3996 37.1996 57.5996 32.9996 57.5996 27.7996C57.5996 22.5996 53.3996 18.3996 48.1996 18.3996H48.3996Z" fill="white" stroke="#343A40" stroke-width="2" stroke-linejoin="round"/>
<path d="M24.2002 20.5998C21.6002 20.5998 20.4002 18.7998 20.2002 17.7998C20.2002 17.3998 20.2002 16.9998 20.8002 16.7998C21.2002 16.7998 21.6002 16.7998 21.8002 17.3998C21.8002 17.3998 22.4002 18.9998 24.2002 18.9998C26.0002 18.9998 26.6002 17.3998 26.6002 17.3998C26.6002 16.9998 27.2002 16.7998 27.6002 16.7998C28.0002 16.7998 28.2002 17.3998 28.2002 17.7998C28.0002 18.7998 26.8002 20.5998 24.2002 20.5998Z" fill="#343A40"/>
<path d="M37.0001 33.4C36.6001 33.4 36.4001 33.4 36.2001 32.8C36.0001 32 35.2001 31.6 34.2001 31C32.6001 30.4 30.8001 30.4 29.2001 31C28.2001 31.4 27.4001 32 27.2001 32.8C27.2001 33.2 26.6001 33.4 26.2001 33.2C25.8001 33.2 25.6001 32.6 25.8001 32.2C26.2001 31 27.2001 30.2 28.6001 29.6C30.6001 28.8 32.8001 28.8 34.8001 29.6C36.2001 30.2 37.2001 31.2 37.6001 32.2C37.6001 32.6 37.6001 33 37.2001 33.2C37.2001 33.2 37.2001 33.2 37.0001 33.2V33.4Z" fill="#343A40"/>
<path d="M24.1998 22.2002C24.1998 22.2002 21.7998 24.8002 22.5998 26.8002C23.3998 28.8002 28.3998 27.6002 24.1998 22.2002Z" fill="#343A40"/>
<path d="M39 20.5998C36.4 20.5998 35.2 18.7998 35 17.7998C35 17.3998 35 16.9998 35.6 16.7998C36 16.7998 36.4 16.7998 36.6 17.3998C36.6 17.3998 37.2 18.9998 39 18.9998C40.8 18.9998 41.4 17.3998 41.4 17.3998C41.4 16.9998 42 16.7998 42.4 16.7998C42.8 16.7998 43 17.3998 43 17.7998C42.8 18.7998 41.6 20.5998 39 20.5998Z" fill="#343A40"/>
<path d="M38.9996 22.2002C38.9996 22.2002 36.5996 24.8002 37.3996 26.8002C38.1996 28.8002 43.1996 27.6002 38.9996 22.2002Z" fill="#343A40"/>
</svg>
