<?xml version="1.0" encoding="UTF-8"?>
<svg id="_레이어_1" data-name="레이어 1" xmlns="http://www.w3.org/2000/svg" viewBox="0 0 59.528 59.528">
  <defs>
    <style>
      .cls-1 {
        fill: #fff;
      }

      .cls-1, .cls-2 {
        fill-rule: evenodd;
      }

      .cls-2 {
        fill: #ee444a;
      }
    </style>
  </defs>
  <path class="cls-2" d="M29.764,0C13.606,0,0,13.606,0,29.764s13.606,29.764,29.764,29.764,29.764-13.181,29.764-29.764S46.346,0,29.764,0Z"/>
  <path class="cls-1" d="M29.765,14.173c1.565,0,2.833,1.321,2.833,2.95v14.748c0,1.629-1.269,2.95-2.833,2.95s-2.833-1.321-2.833-2.95v-14.748c0-1.629,1.269-2.95,2.833-2.95ZM29.803,39.279c1.565.022,2.816,1.36,2.795,2.989l-.002.177c-.021,1.629-1.307,2.931-2.872,2.909-1.565-.022-2.816-1.36-2.795-2.989l.002-.177c.021-1.629,1.307-2.931,2.872-2.909Z"/>
</svg>