<svg width="56" height="56" viewBox="0 0 56 56" fill="none" xmlns="http://www.w3.org/2000/svg">
<circle cx="28" cy="28" r="27" fill="#FAFAFA" stroke="#794998" stroke-width="2"/>
<g clip-path="url(#clip0_498_10063)">
<path d="M19.3532 45.4998H14.3855L19.7081 37.2256H24.6758L19.3532 45.4998Z" fill="#5A2979"/>
<path d="M36.4014 45.4685H41.3692L36.0466 37.1943H31.0789L36.4014 45.4685Z" fill="#5A2979"/>
<path d="M18.5467 10.5H37.2887C39.5467 10.5 41.3854 12.3387 41.3854 14.5968V39.2742H14.4338V14.5968C14.4338 12.3387 16.2725 10.5 18.5467 10.5Z" fill="#794998"/>
<path d="M18.5467 10.5H37.2887C39.5467 10.5 41.3854 12.3387 41.3854 14.5968V25.5645H14.4338V14.5968C14.4338 12.3387 16.2725 10.5 18.5467 10.5Z" fill="#E2EBFF"/>
<path d="M20.1596 34.9207C21.4958 34.9207 22.5789 33.8376 22.5789 32.5014C22.5789 31.1652 21.4958 30.082 20.1596 30.082C18.8234 30.082 17.7402 31.1652 17.7402 32.5014C17.7402 33.8376 18.8234 34.9207 20.1596 34.9207Z" fill="white"/>
<path d="M35.6593 34.9207C36.9955 34.9207 38.0787 33.8376 38.0787 32.5014C38.0787 31.1652 36.9955 30.082 35.6593 30.082C34.3232 30.082 33.24 31.1652 33.24 32.5014C33.24 33.8376 34.3232 34.9207 35.6593 34.9207Z" fill="white"/>
<path d="M27.646 24.1475C25.2363 24.1475 23.5005 22.7632 23.4858 20.8076H26.1958C26.2178 21.5474 26.8623 22.0308 27.646 22.0234C28.5542 22.0308 29.1914 21.4009 29.1841 20.4561C29.1914 19.4966 28.5542 18.8667 27.646 18.874C26.9209 18.8667 26.4521 19.1743 26.1958 19.709H23.7202L24.1743 13.3955H31.2202V15.6221H26.4741L26.2544 18.0098H26.313C26.6572 17.3872 27.5142 16.9258 28.5688 16.9258C30.4731 16.9258 31.8867 18.354 31.8794 20.3682C31.8867 22.5801 30.2021 24.1475 27.646 24.1475Z" fill="#794998"/>
</g>
<defs>
<clipPath id="clip0_498_10063">
<rect width="26.9839" height="35" fill="white" transform="translate(14.3855 10.5)"/>
</clipPath>
</defs>
</svg>
