<?xml version="1.0" encoding="UTF-8"?>
<svg id="_레이어_1" data-name="레이어 1" xmlns="http://www.w3.org/2000/svg" viewBox="0 0 64.152 59.528">
  <defs>
    <style>
      .cls-1 {
        fill: #febb10;
      }

      .cls-2 {
        fill: #fff;
        fill-rule: evenodd;
      }
    </style>
  </defs>
  <path class="cls-1" d="M26.852,3.093c2.262-4.124,8.186-4.124,10.448,0l26.11,47.612c2.177,3.97-.696,8.822-5.224,8.822H5.966c-4.528,0-7.401-4.852-5.224-8.822L26.852,3.093Z"/>
  <path class="cls-2" d="M32.077,17.362c1.565,0,2.833,1.321,2.833,2.95v14.748c0,1.629-1.269,2.95-2.833,2.95s-2.833-1.321-2.833-2.95v-14.748c0-1.629,1.269-2.95,2.833-2.95ZM32.116,42.468c1.565.022,2.816,1.36,2.795,2.989l-.002.177c-.021,1.629-1.307,2.931-2.872,2.909-1.565-.022-2.816-1.361-2.795-2.989l.002-.177c.021-1.629,1.307-2.931,2.872-2.909Z"/>
</svg>