<svg width="56" height="56" viewBox="0 0 56 56" fill="none" xmlns="http://www.w3.org/2000/svg">
<circle cx="28" cy="28" r="27" fill="#FAFAFA" stroke="#00A23F" stroke-width="2"/>
<g clip-path="url(#clip0_498_10064)">
<path d="M19.3532 45.4998H14.3855L19.7081 37.2256H24.6758L19.3532 45.4998Z" fill="#136533"/>
<path d="M36.4014 45.4685H41.3692L36.0466 37.1943H31.0789L36.4014 45.4685Z" fill="#136533"/>
<path d="M18.5467 10.5H37.2887C39.5467 10.5 41.3854 12.3387 41.3854 14.5968V39.2742H14.4338V14.5968C14.4338 12.3387 16.2725 10.5 18.5467 10.5Z" fill="#00A23F"/>
<path d="M18.5467 10.5H37.2887C39.5467 10.5 41.3854 12.3387 41.3854 14.5968V25.5645H14.4338V14.5968C14.4338 12.3387 16.2725 10.5 18.5467 10.5Z" fill="#E2EBFF"/>
<path d="M20.1596 34.9207C21.4958 34.9207 22.5789 33.8376 22.5789 32.5014C22.5789 31.1652 21.4958 30.082 20.1596 30.082C18.8234 30.082 17.7402 31.1652 17.7402 32.5014C17.7402 33.8376 18.8234 34.9207 20.1596 34.9207Z" fill="white"/>
<path d="M35.6593 34.9207C36.9955 34.9207 38.0787 33.8376 38.0787 32.5014C38.0787 31.1652 36.9955 30.082 35.6593 30.082C34.3232 30.082 33.24 31.1652 33.24 32.5014C33.24 33.8376 34.3232 34.9207 35.6593 34.9207Z" fill="white"/>
<path d="M23.603 24.001V21.9941L27.5435 18.6836C28.3491 18.0024 28.8398 17.5044 28.8472 16.7354C28.8398 15.9077 28.2539 15.4023 27.4409 15.4023C26.6206 15.4023 26.0566 15.9224 26.064 16.8232H23.4126C23.4053 14.6113 25.002 13.249 27.4409 13.249C29.9531 13.249 31.5571 14.5454 31.5571 16.501C31.5571 17.7314 30.9492 18.7642 28.5542 20.7783L27.4849 21.7012V21.7598H31.6743V24.001H23.603Z" fill="#00A23F"/>
</g>
<defs>
<clipPath id="clip0_498_10064">
<rect width="26.9839" height="35" fill="white" transform="translate(14.3855 10.5)"/>
</clipPath>
</defs>
</svg>
