<?xml version="1.0" encoding="UTF-8"?>
<svg id="_레이어_1" data-name="레이어 1" xmlns="http://www.w3.org/2000/svg" viewBox="0 0 54.846 63.35">
  <defs>
    <style>
      .cls-1 {
        fill: #ee444a;
        stroke: #ee444a;
        stroke-width: .988px;
      }

      .cls-2 {
        fill: #fff;
        fill-rule: evenodd;
      }
    </style>
  </defs>
  <path class="cls-1" d="M25.68,1.149c1.055-.874,2.625-.874,3.68,0,6.051,5.01,13.951,8.685,22.858,10.405,1.232.238,2.135,1.273,2.135,2.478v15.591c0,7.227-1.777,14.427-5.953,20.36-4.17,5.925-10.757,10.622-20.45,12.814-.342.077-.71.077-1.052,0-9.693-2.193-16.28-6.889-20.45-12.814C2.271,44.051.494,36.851.494,29.624v-15.555c0-1.208.908-2.244,2.144-2.479,8.982-1.705,16.948-5.396,23.042-10.44Z"/>
  <path class="cls-2" d="M27.424,16.745c1.565,0,2.833,1.321,2.833,2.95v14.748c0,1.629-1.269,2.95-2.833,2.95s-2.833-1.321-2.833-2.95v-14.748c0-1.629,1.269-2.95,2.833-2.95ZM27.463,41.85c1.565.022,2.816,1.36,2.795,2.989l-.002.177c-.021,1.629-1.307,2.931-2.872,2.909-1.565-.022-2.816-1.36-2.795-2.989l.002-.177c.021-1.629,1.307-2.931,2.872-2.909Z"/>
</svg>