<svg width="24" height="24" viewBox="0 0 24 24" fill="none" xmlns="http://www.w3.org/2000/svg">
<path fill-rule="evenodd" clip-rule="evenodd" d="M12 3.92886C12.5523 3.92886 13 4.37658 13 4.92886L13 10.9999L19.0711 10.9999C19.6234 10.9999 20.0711 11.4476 20.0711 11.9999C20.0711 12.5522 19.6234 12.9999 19.0711 12.9999L13 12.9999V19.071C13 19.6233 12.5523 20.071 12 20.071C11.4477 20.071 11 19.6233 11 19.071V12.9999L4.92893 12.9999C4.37665 12.9999 3.92893 12.5522 3.92893 11.9999C3.92893 11.4476 4.37665 10.9999 4.92893 10.9999L11 10.9999L11 4.92886C11 4.37658 11.4477 3.92886 12 3.92886Z" fill="#070F16" fill-opacity="0.82"/>
</svg>
