<svg width="36" height="36" viewBox="0 0 36 36" fill="none" xmlns="http://www.w3.org/2000/svg">
<path d="M31.9086 28.9985C33.19 26.747 33.9451 24.155 34.0019 21.3905C34.1858 12.527 27.067 5.12305 18.2302 5.00155C9.29015 4.87855 2.00537 12.1115 2.00537 21.0515C2.00537 23.9435 2.76794 26.657 4.10318 29H31.9071L31.9086 28.9985Z" fill="#7C68F2"/>
<path d="M24.3429 14.8222L18.5317 20.4675L20.196 22.1916L26.0072 16.5463L24.3429 14.8222Z" fill="white"/>
<path d="M20.4065 24.689C19.2387 25.8995 17.3143 25.931 16.1076 24.7595C14.9009 23.588 14.8695 21.6575 16.0373 20.447C17.2051 19.2365 19.1295 19.205 20.3362 20.3765C21.5429 21.548 21.5743 23.4785 20.4065 24.689Z" fill="#FFDCE6"/>
<path d="M19.2074 7.646H16.8149V10.1825H19.2074V7.646Z" fill="#3B2DC4"/>
<path d="M9.42216 10.9365L7.73047 12.6335L9.45599 14.3645L11.1477 12.6675L9.42216 10.9365Z" fill="#3B2DC4"/>
<path d="M7.56217 19.313H5.03369V21.713H7.56217V19.313Z" fill="#3B2DC4"/>
<path d="M26.5991 10.9365L24.8735 12.6675L26.5652 14.3645L28.2908 12.6335L26.5991 10.9365Z" fill="#3B2DC4"/>
<path d="M30.987 19.313H28.4585V21.713H30.987V19.313Z" fill="#3B2DC4"/>
</svg>
