<svg width="36" height="36" viewBox="0 0 36 36" fill="none" xmlns="http://www.w3.org/2000/svg">
<path d="M19.2116 15.2227C22.1667 13.8328 25.8065 13.9398 28.3292 11.8728C28.7976 11.4808 29.1941 11.0175 29.5905 10.5542C30.0229 11.8015 30.3112 13.1201 30.3112 14.51V25.227H13.0132C13.1934 24.6211 13.4456 21.78 13.6979 21.1742C14.8151 18.6795 16.7251 16.4344 19.2116 15.2227Z" fill="#F84424"/>
<path d="M6.02197 14.5098C6.02197 7.88125 11.4636 2.5 18.1666 2.5C23.4642 2.5 27.9328 5.88556 29.5906 10.5897C29.1941 11.053 28.7977 11.5163 28.3292 11.9083C25.8066 13.9396 22.1668 13.8683 19.2117 15.2582C16.6891 16.4342 14.8151 18.6794 13.6619 21.2097C13.4097 21.8155 13.1574 25.7743 12.9772 26.3801H6.02197V14.5098Z" fill="#FF9797"/>
<path d="M19.2112 15.2225C21.3374 14.2246 23.7879 13.9752 25.9502 13.1555C26.0583 13.6901 26.1304 14.2603 26.1304 14.8305V24.0735H13.0127C13.1929 23.4676 13.4451 21.7441 13.6974 21.1383C14.8146 18.6793 16.7246 16.4342 19.2112 15.2225Z" fill="#F84424"/>
<path d="M10.2021 14.8664C10.2021 10.5186 13.7698 6.99048 18.1664 6.99048C21.9863 6.99048 25.1576 9.66329 25.9505 13.1914C23.7882 14.0111 21.3016 14.2605 19.2114 15.2584C16.6888 16.4344 14.8149 18.6796 13.6617 21.2098C13.4094 21.8157 13.1571 25.7744 12.9769 26.3803H10.166V14.8664H10.2021Z" fill="#FF7860"/>
<path d="M15.7876 15.4009C15.7876 16.7195 16.8687 17.7886 18.2021 17.7886C19.5355 17.7886 20.6166 16.7195 20.6166 15.4009C20.6166 14.0823 19.5355 13.0132 18.2021 13.0132C16.8327 13.0132 15.7876 14.0823 15.7876 15.4009Z" fill="#FFDC16"/>
<path d="M19.1031 15.4006H17.2651V26.0107H19.1031V15.4006Z" fill="#FFDC16"/>
<path d="M31.9327 31.0001H4.43605C3.53511 31.0001 2.77832 30.3883 2.77832 29.66V26.1931C2.77832 25.4648 3.53511 24.853 4.43605 24.853H31.9327C32.8337 24.853 33.5905 25.4648 33.5905 26.1931V29.66C33.5905 30.3883 32.8337 31.0001 31.9327 31.0001Z" fill="#D0E8FF"/>
</svg>
