<svg width="72" height="72" viewBox="0 0 72 72" fill="none" xmlns="http://www.w3.org/2000/svg">
<path fill-rule="evenodd" clip-rule="evenodd" d="M36 6C19.7143 6 6 19.7143 6 36C6 52.2857 19.7143 66 36 66C52.2857 66 66 52.7143 66 36C66 19.2857 52.7143 6 36 6Z" fill="#EE444A"/>
<path fill-rule="evenodd" clip-rule="evenodd" d="M36.001 20.1431C37.6578 20.1431 39.001 21.4862 39.001 23.1431V38.1431C39.001 39.7999 37.6578 41.1431 36.001 41.1431C34.3441 41.1431 33.001 39.7999 33.001 38.1431V23.1431C33.001 21.4862 34.3441 20.1431 36.001 20.1431ZM36.0417 45.6777C37.6984 45.7001 39.0232 47.0614 39.0007 48.7181L38.9983 48.898C38.9758 50.5547 37.6145 51.8796 35.9578 51.8571C34.3011 51.8346 32.9763 50.4734 32.9988 48.8167L33.0013 48.6367C33.0237 46.98 34.385 45.6552 36.0417 45.6777Z" fill="white"/>
</svg>
