<svg width="72" height="72" viewBox="0 0 72 72" fill="none" xmlns="http://www.w3.org/2000/svg">
<path d="M30.9289 33.6393H18.7759C17.2021 33.6393 15.8906 32.3278 15.8906 30.7541V18.6011C15.8906 17.0273 17.2021 15.7158 18.7759 15.7158H30.9289C32.5026 15.7158 33.8141 17.0273 33.8141 18.6011V30.7541C33.8141 32.3278 32.5026 33.6393 30.9289 33.6393ZM21.7485 27.7814H28.0436V21.4863H21.7485V27.7814Z" fill="#8597A8" fill-opacity="0.5"/>
<path d="M30.9289 55.847H18.7759C17.2021 55.847 15.8906 54.5355 15.8906 52.9617V40.8087C15.8906 39.2349 17.2021 37.9235 18.7759 37.9235H30.9289C32.5026 37.9235 33.8141 39.2349 33.8141 40.8087V52.9617C33.8141 54.5355 32.5026 55.847 30.9289 55.847ZM21.7485 49.989H28.0436V43.694H21.7485V49.989Z" fill="#8597A8" fill-opacity="0.5"/>
<path d="M53.224 33.6393H41.071C39.4972 33.6393 38.1857 32.3278 38.1857 30.7541V18.6011C38.1857 17.0273 39.4972 15.7158 41.071 15.7158H53.224C54.7977 15.7158 56.1092 17.0273 56.1092 18.6011V30.7541C56.1092 32.3278 54.7977 33.6393 53.224 33.6393ZM44.0436 27.7814H50.3387V21.4863H44.0436V27.7814Z" fill="#8597A8" fill-opacity="0.5"/>
<path d="M41.2458 43.694H41.071C39.4972 43.694 38.1857 42.3825 38.1857 40.8087C38.1857 39.2349 39.4972 37.9235 41.071 37.9235H41.2458C42.8196 37.9235 44.1311 39.2349 44.1311 40.8087C44.1311 42.3825 42.8196 43.694 41.2458 43.694Z" fill="#8597A8" fill-opacity="0.5"/>
<path d="M41.2458 55.847H41.071C39.4972 55.847 38.1857 54.5355 38.1857 52.9617C38.1857 51.388 39.4972 50.0765 41.071 50.0765H41.2458C42.8196 50.0765 44.1311 51.388 44.1311 52.9617C44.1311 54.5355 42.8196 55.847 41.2458 55.847Z" fill="#8597A8" fill-opacity="0.5"/>
<path d="M53.224 55.847C51.6502 55.847 50.3387 54.5355 50.3387 52.9617V49.8142H47.1037C45.53 49.8142 44.2185 48.5027 44.2185 46.9289C44.2185 45.3552 45.53 44.0437 47.1037 44.0437H53.3114C54.8852 44.0437 56.1966 45.3552 56.1966 46.9289V52.9617C56.1966 54.5355 54.8852 55.847 53.3114 55.847H53.224Z" fill="#8597A8" fill-opacity="0.5"/>
<path d="M7.06021 20.7869C5.39901 20.7869 4.0001 19.388 4.0001 17.7268V12.8306C4.0001 7.93442 7.93453 4 12.8307 4H17.7269C19.3881 4 20.787 5.39891 20.787 7.06011C20.787 8.72131 19.3881 10.1202 17.7269 10.1202H12.8307C11.3444 10.1202 10.1203 11.3443 10.1203 12.8306V17.7268C10.1203 19.388 8.72141 20.7869 7.06021 20.7869Z" fill="url(#paint0_linear_452_8558)"/>
<path d="M64.9399 20.7871C63.2787 20.7871 61.8798 19.3882 61.8798 17.727V12.8308C61.8798 11.3445 60.6557 10.1204 59.1694 10.1204H54.2732C52.612 10.1204 51.2131 8.72153 51.2131 7.06033C51.2131 5.39913 52.612 4.00022 54.2732 4.00022H59.1694C64.0656 4.00022 68 7.93464 68 12.8308V17.727C68 19.3882 66.6011 20.7871 64.9399 20.7871Z" fill="url(#paint1_linear_452_8558)"/>
<path d="M17.7268 67.5631H12.8306C7.93443 67.5631 4 63.6286 4 58.7325V53.8363C4 52.1751 5.39891 50.7762 7.06011 50.7762C8.72131 50.7762 10.1202 52.1751 10.1202 53.8363V58.7325C10.1202 60.2188 11.3443 61.4428 12.8306 61.4428H17.7268C19.388 61.4428 20.7869 62.8418 20.7869 64.503C20.7869 66.1642 19.388 67.5631 17.7268 67.5631Z" fill="url(#paint2_linear_452_8558)"/>
<path d="M59.1694 67.5631H54.2732C52.612 67.5631 51.2131 66.1642 51.2131 64.503C51.2131 62.8418 52.612 61.4428 54.2732 61.4428H59.1694C60.6557 61.4428 61.8798 60.2188 61.8798 58.7325V53.8363C61.8798 52.1751 63.2787 50.7762 64.9399 50.7762C66.6011 50.7762 68 52.1751 68 53.8363V58.7325C68 63.6286 64.0656 67.5631 59.1694 67.5631Z" fill="url(#paint3_linear_452_8558)"/>
<defs>
<linearGradient id="paint0_linear_452_8558" x1="17.8667" y1="4" x2="48.5014" y2="51.8634" gradientUnits="userSpaceOnUse">
<stop stop-color="#18E2D7"/>
<stop offset="1" stop-color="#1F5EFF"/>
</linearGradient>
<linearGradient id="paint1_linear_452_8558" x1="17.8667" y1="4" x2="48.5014" y2="51.8634" gradientUnits="userSpaceOnUse">
<stop stop-color="#18E2D7"/>
<stop offset="1" stop-color="#1F5EFF"/>
</linearGradient>
<linearGradient id="paint2_linear_452_8558" x1="17.8667" y1="4" x2="48.5014" y2="51.8634" gradientUnits="userSpaceOnUse">
<stop stop-color="#18E2D7"/>
<stop offset="1" stop-color="#1F5EFF"/>
</linearGradient>
<linearGradient id="paint3_linear_452_8558" x1="17.8667" y1="4" x2="48.5014" y2="51.8634" gradientUnits="userSpaceOnUse">
<stop stop-color="#18E2D7"/>
<stop offset="1" stop-color="#1F5EFF"/>
</linearGradient>
</defs>
</svg>
