<svg width="60" height="60" viewBox="0 0 60 60" fill="none" xmlns="http://www.w3.org/2000/svg">
<path d="M23.3786 8.32447H23.402V10.5022C22.6776 10.5714 21.9999 10.8364 21.4273 11.2973C20.5744 11.9771 20.0953 12.9796 20.0953 14.0512C20.0953 14.5006 20.4575 14.8578 20.9132 14.8578C21.3689 14.8578 21.7311 14.5006 21.7311 14.0512C21.7311 13.4636 21.9882 12.922 22.4556 12.5418C22.923 12.1615 23.5189 12.0232 24.1381 12.15C24.8743 12.3113 25.4702 12.899 25.6337 13.6249C25.7856 14.3854 25.5052 15.1343 24.8976 15.5953C23.624 16.5747 22.8762 17.9804 22.8762 19.4553V19.8817C22.8762 20.3195 23.2501 20.6883 23.7058 20.6883V21.8751C23.2501 21.8751 22.8762 22.2323 22.8762 22.6817V23.35C22.8762 23.7994 23.2501 24.1566 23.7058 24.1566L23.6123 26.1961C23.4838 26.173 23.3436 26.173 23.2034 26.173C22.0233 26.173 20.8782 26.5763 19.9551 27.2907C19.0437 26.4035 17.8519 25.885 16.5666 25.7582C14.9892 25.2051 13.8441 23.5228 13.8441 21.7483C13.8441 21.3105 13.9259 20.8726 14.0661 20.4348C14.1479 20.2158 14.1246 19.9623 13.996 19.7549C13.8675 19.5475 13.6455 19.4092 13.4118 19.3747C11.6475 19.1442 10.3154 17.6463 10.3154 15.8833C10.3154 13.7286 12.2434 11.9887 14.5686 12.4265C14.849 12.4841 15.1294 12.392 15.3164 12.1846C15.515 11.9887 15.5851 11.7006 15.515 11.4356C15.4332 11.0899 15.3865 10.7557 15.3865 10.4331C15.3865 8.20925 17.2209 6.38867 19.4877 6.38867C20.773 6.38867 21.9765 6.97633 22.7594 8.01336C22.8996 8.19772 23.1333 8.32447 23.3786 8.32447Z" fill="#D5ECFF"/>
<path d="M23.4023 8.32294C23.6243 8.33447 23.858 8.24229 24.0216 8.05792C24.711 7.29743 25.6925 6.87109 26.709 6.87109C28.7071 6.87109 30.3312 8.46122 30.3312 10.4316C30.3312 10.6505 30.3079 10.8579 30.2728 11.0653C30.2144 11.3534 30.3195 11.6415 30.5532 11.8258C30.7869 12.0102 31.0907 12.0678 31.3711 11.9526C31.7918 11.7913 32.2241 11.7106 32.6681 11.7106C34.6662 11.7106 36.2903 13.3122 36.2903 15.2826C36.2903 16.1929 35.9281 17.0686 35.2854 17.7369C34.9816 18.048 34.9816 18.5435 35.2854 18.8546C35.7995 19.3731 36.1384 20.0184 36.3137 20.7098C35.0634 21.597 34.2221 23.0028 34.1287 24.6044C32.3059 24.3624 30.4598 25.0884 29.303 26.5172C29.0226 26.8629 29.081 27.3698 29.4432 27.6464L27.1647 27.946C26.2767 26.955 25.0265 26.2982 23.6127 26.1945L23.7061 24.155C24.1501 24.155 24.5241 23.7978 24.5241 23.3484V22.6801C24.5241 22.2308 24.1501 21.8736 23.7061 21.8736V20.6867C24.1501 20.6867 24.5241 20.318 24.5241 19.8801V19.4538C24.5241 18.4859 25.0265 17.541 25.9028 16.8727C27.0128 16.0316 27.5153 14.6604 27.2348 13.3007C26.9427 11.9526 25.8327 10.8579 24.4656 10.5699C24.1151 10.5007 23.7529 10.4777 23.4023 10.5007V8.32294Z" fill="#D5ECFF"/>
<path d="M43.5343 36.0468V37.2913C43.5343 37.7406 43.1604 38.0978 42.7164 38.0978C42.2723 38.0978 41.8984 37.7406 41.8984 37.2913V36.0468C41.8984 35.5974 42.2607 35.2402 42.7164 35.2402C43.172 35.2402 43.5343 35.5974 43.5343 36.0468Z" fill="#343A40"/>
<path d="M43.5343 26.5527V33.1321C43.5343 33.57 43.1604 33.9387 42.7164 33.9387C42.2723 33.9387 41.8984 33.57 41.8984 33.1321V26.5527C41.8984 26.1033 42.2607 25.7461 42.7164 25.7461C43.172 25.7461 43.5343 26.1033 43.5343 26.5527Z" fill="#343A40"/>
<path d="M24.5245 22.6796V23.3479C24.5245 23.7973 24.1506 24.1545 23.7065 24.1545C23.2625 24.1545 22.877 23.7973 22.877 23.3479V22.6796C22.877 22.2302 23.2509 21.873 23.7065 21.873C24.1622 21.873 24.5245 22.2302 24.5245 22.6796Z" fill="#343A40"/>
<path d="M20.0957 14.0498C20.0957 12.9782 20.5748 11.9757 21.4277 11.2959C22.0003 10.835 22.678 10.57 23.4024 10.5008C23.7529 10.4778 24.1152 10.5008 24.4657 10.57C25.8328 10.858 26.9428 11.9527 27.2349 13.3008C27.5153 14.6605 27.0129 16.0317 25.9029 16.8728C25.0265 17.5412 24.5241 18.486 24.5241 19.4539V19.8802C24.5241 20.3181 24.1502 20.6868 23.7062 20.6868C23.2622 20.6868 22.8766 20.3181 22.8766 19.8802V19.4539C22.8766 17.979 23.6244 16.5733 24.898 15.5938C25.5056 15.1329 25.786 14.384 25.6341 13.6235C25.4706 12.8975 24.8746 12.3099 24.1385 12.1486C23.5192 12.0218 22.9233 12.1486 22.456 12.5403C21.9886 12.9321 21.7315 13.4621 21.7315 14.0498C21.7315 14.4992 21.3576 14.8564 20.9136 14.8564C20.4696 14.8564 20.0957 14.4992 20.0957 14.0498Z" fill="#343A40"/>
<path d="M14.5691 12.4245C12.2439 11.9866 10.316 13.7265 10.316 15.8813C10.316 17.6442 11.648 19.1422 13.4123 19.3726C13.646 19.4072 13.868 19.5454 13.9966 19.7529C14.1251 19.9603 14.1485 20.2138 14.0667 20.4327C13.9265 20.8705 13.8447 21.3084 13.8447 21.7463C13.8447 23.5208 14.9897 25.2031 16.5671 25.7561C17.8524 25.8829 19.0443 26.4014 19.9556 27.2887C20.8787 26.5742 22.0238 26.171 23.2039 26.171C23.3441 26.171 23.4843 26.171 23.6129 26.194C25.0267 26.2977 26.2769 26.9545 27.1649 27.9454C27.9128 28.7866 28.3801 29.8812 28.4502 31.0681C28.6839 31.0335 28.9293 31.022 29.163 31.022C32.0607 31.022 34.421 33.3496 34.421 36.1956C34.421 37.2903 34.0705 38.3273 33.4395 39.203C33.6615 39.5026 33.8368 39.8137 33.9887 40.1249C34.7832 40.0903 35.5427 39.8253 36.197 39.3413C36.419 39.18 36.7111 39.1454 36.9682 39.2376C37.2253 39.3298 37.4239 39.5487 37.4823 39.8253C37.8445 41.4384 39.3285 42.6137 41.011 42.6137C41.9341 42.6137 42.8104 42.2681 43.4881 41.6228C43.7919 41.3463 44.2359 41.3232 44.5631 41.5652L49.0733 45.0104L48.9565 40.7932C48.9565 40.4475 49.1668 40.1249 49.5056 40.0096C51.1414 39.445 52.2398 37.9125 52.2398 36.2072C52.2398 35.7693 52.1697 35.3314 52.0178 34.8936C51.936 34.6747 51.971 34.4212 52.0996 34.2137C52.2281 34.0063 52.4384 33.8681 52.6838 33.8335C54.4481 33.603 55.7685 32.1051 55.7685 30.3421C55.7685 28.1874 53.8522 26.4475 51.5154 26.8854C51.2349 26.9314 50.9545 26.8508 50.7675 26.6434C50.5806 26.4475 50.4988 26.1594 50.5689 25.8944C50.6624 25.5487 50.6974 25.2146 50.6974 24.8919C50.6974 22.6681 48.863 20.8475 46.6079 20.8475C45.3109 20.8475 44.1191 21.4352 43.3362 22.4722C43.1843 22.6566 42.9623 22.7718 42.717 22.7833C42.4716 22.8179 42.2379 22.7026 42.0743 22.5183C41.3849 21.7578 40.4034 21.3315 39.3752 21.3315C37.3772 21.3315 35.7647 22.9216 35.7647 24.8919C35.7647 25.1109 35.7881 25.3183 35.8231 25.5257C35.8699 25.8022 35.7647 26.1018 35.531 26.2862C35.309 26.4705 34.9935 26.5166 34.7248 26.4129C33.2409 25.8483 31.5583 26.3207 30.5885 27.5191C30.3081 27.8648 29.7939 27.9224 29.4434 27.6459C29.0812 27.3693 29.0228 26.8623 29.3032 26.5166C30.46 25.0878 32.3061 24.3619 34.1289 24.6039C34.2224 23.0022 35.0636 21.5965 36.3139 20.7092C36.1386 20.0179 35.7998 19.3726 35.2856 18.8541C34.9818 18.543 34.9818 18.0475 35.2856 17.7364C35.9283 17.0681 36.2905 16.1924 36.2905 15.2821C36.2905 13.3117 34.6664 11.7101 32.6683 11.7101C32.2243 11.7101 31.792 11.7907 31.3713 11.952C31.0909 12.0673 30.7871 12.0096 30.5534 11.8253C30.3197 11.6409 30.2146 11.3529 30.273 11.0648C30.3081 10.8574 30.3314 10.65 30.3314 10.431C30.3314 8.46068 28.7073 6.87056 26.7093 6.87056C25.6927 6.87056 24.7112 7.29689 24.0218 8.05739C23.8582 8.24175 23.6246 8.33393 23.4026 8.32241H23.3792C23.1338 8.32241 22.9001 8.19566 22.7599 8.0113C21.977 6.97426 20.7736 6.38661 19.4883 6.38661C17.2215 6.38661 15.387 8.20718 15.387 10.431C15.387 10.7537 15.4338 11.0878 15.5155 11.4335C15.5857 11.6985 15.5155 11.9866 15.3169 12.1825C15.13 12.3899 14.8495 12.4821 14.5691 12.4245ZM10.3861 33.2804C8.4114 33.2804 6.81063 34.859 6.81063 36.8063C6.81063 38.5578 8.14266 40.0672 9.90701 40.2977C10.1407 40.3323 10.3627 40.4705 10.4912 40.6779C10.6198 40.8853 10.6431 41.1273 10.5613 41.3578C10.4211 41.7841 10.3393 42.2335 10.3393 42.6714C10.3393 44.3767 11.4377 45.9092 13.0852 46.4738C13.4123 46.589 13.6343 46.9117 13.6227 47.2574L13.5058 51.4631L18.0277 48.0294C18.3432 47.7874 18.7989 47.8104 19.091 48.087C19.7687 48.7323 20.6567 49.0779 21.5798 49.0779C23.2623 49.0779 24.7463 47.9026 25.1085 46.2779C25.1669 46.0129 25.3539 45.794 25.6226 45.7018C25.8797 45.6096 26.1718 45.6442 26.3938 45.8055C27.1065 46.3356 27.9478 46.6121 28.8358 46.6121C31.0909 46.6121 32.9254 44.7915 32.9254 42.5677C32.9254 41.5191 32.5281 40.5281 31.7803 39.7677C31.4765 39.4565 31.4765 38.9726 31.7803 38.6615C32.423 37.9932 32.7852 37.1175 32.7852 36.1956C32.7852 34.2368 31.161 32.6351 29.163 32.6351C28.719 32.6351 28.2867 32.7158 27.866 32.8771C27.5856 32.9808 27.2818 32.9347 27.0481 32.7504C26.8261 32.566 26.7093 32.2779 26.7677 31.9899C26.8027 31.7825 26.8261 31.5635 26.8261 31.3561C26.8261 29.3858 25.202 27.7841 23.2039 27.7841C22.1874 27.7841 21.2059 28.222 20.5165 28.9825C20.3529 29.1553 20.1192 29.2705 19.8738 29.2475C19.6285 29.236 19.3948 29.1207 19.2546 28.9249C18.4717 27.8993 17.2799 27.3117 15.9829 27.3117C13.7161 27.3117 11.8817 29.1207 11.8817 31.3561C11.8817 31.6788 11.9284 32.0129 12.0102 32.3471C12.0803 32.6236 12.0102 32.9002 11.8233 33.1076C11.6246 33.3035 11.3442 33.3956 11.0638 33.3496C10.8418 33.3035 10.6081 33.2804 10.3861 33.2804ZM5.1748 36.8063C5.1748 34.0179 7.44159 31.7364 10.2575 31.6672C10.2459 31.5635 10.2459 31.4598 10.2459 31.3561C10.2459 28.9018 11.8466 26.8277 14.0667 26.0442C12.9216 24.9611 12.2088 23.4055 12.2088 21.7463C12.2088 21.4236 12.2439 21.101 12.3023 20.7784C10.1874 20.1101 8.68014 18.1397 8.68014 15.8813C8.68014 13.0928 10.9469 10.8113 13.7629 10.7422C13.7512 10.6385 13.7512 10.5348 13.7512 10.431C13.7512 7.30841 16.3218 4.77344 19.4883 4.77344C20.9956 4.77344 22.3977 5.34957 23.461 6.36356C24.384 5.64916 25.5291 5.24587 26.7093 5.24587C29.5135 5.24587 31.8037 7.42364 31.9556 10.143C32.1893 10.1199 32.4346 10.0969 32.6683 10.0969C35.5661 10.0969 37.9263 12.4245 37.9263 15.2821C37.9263 16.3652 37.5758 17.4138 36.9448 18.2895C37.3304 18.7965 37.6108 19.3726 37.7978 19.9718C38.3002 19.822 38.826 19.7068 39.3752 19.7068C40.5553 19.7068 41.7004 20.1101 42.6235 20.8245C43.6868 19.8105 45.1006 19.2343 46.6079 19.2343C49.7627 19.2343 52.3333 21.7693 52.3333 24.8919V25.2031C55.1375 25.2722 57.4043 27.5537 57.4043 30.3421C57.4043 32.6006 55.9087 34.5594 53.7938 35.2393C53.8522 35.5619 53.8756 35.8845 53.8756 36.2072C53.8756 38.3965 52.5903 40.3783 50.604 41.3117L50.7559 46.6582C50.7559 46.9693 50.5923 47.2574 50.3118 47.4072C50.195 47.4648 50.0665 47.4878 49.938 47.4878C49.7627 47.4878 49.5874 47.4302 49.4355 47.3265L44.084 43.236C43.1843 43.8812 42.121 44.2269 41.011 44.2269C38.9429 44.2269 37.0734 43.0055 36.2321 41.208C35.6829 41.4615 35.0987 41.6228 34.4911 41.7035C34.5378 41.98 34.5612 42.2796 34.5612 42.5677C34.5612 45.6903 31.9906 48.2253 28.8358 48.2253C27.9595 48.2253 27.1182 48.0294 26.347 47.6607C25.5058 49.4697 23.6479 50.6911 21.5798 50.6911C20.4698 50.6911 19.3948 50.3454 18.5068 49.7002L13.1436 53.7792C13.0034 53.8944 12.8281 53.952 12.6412 53.952C12.5243 53.952 12.3958 53.9174 12.279 53.8598C11.9985 53.7216 11.8233 53.4335 11.8233 53.1224L11.9752 47.7644C10.0005 46.8425 8.70351 44.8607 8.70351 42.6714C8.70351 42.3487 8.73856 42.0146 8.79699 41.7035C6.6821 41.0236 5.1748 39.0648 5.1748 36.8063Z" fill="#343A40"/>
<path d="M21.3195 45.318C21.3195 44.7061 20.8348 44.2197 20.2593 44.2197C19.6837 44.2197 19.199 44.7061 19.199 45.318V46.6516C19.199 47.2635 19.6686 47.7499 20.2593 47.7499C20.85 47.7499 21.3195 47.2635 21.3195 46.6516V45.318ZM16.6393 35.0884C17.2148 35.0884 17.6995 34.6021 17.6995 33.9902C17.6995 33.19 18.0327 32.4369 18.6386 31.9348C19.2445 31.4171 20.0169 31.2288 20.8197 31.4014C21.7739 31.6054 22.5464 32.4212 22.7584 33.4097C22.9554 34.4452 22.607 35.465 21.8042 36.0926C20.1532 37.4262 19.199 39.3403 19.199 41.3486V41.9134C19.199 42.5253 19.6686 43.0117 20.2593 43.0117C20.85 43.0117 21.3195 42.5253 21.3195 41.9134V41.3486C21.3195 40.0306 21.9708 38.7441 23.1068 37.8341C24.5457 36.6888 25.197 34.8217 24.8335 32.9547C24.4549 31.119 23.0159 29.6285 21.2438 29.2519C19.8352 28.9538 18.3963 29.299 17.3057 30.2247C16.2 31.1504 15.579 32.531 15.579 33.9902C15.579 34.6021 16.0485 35.0884 16.6393 35.0884ZM18.8204 51.8449C18.4417 51.4683 17.851 51.4369 17.442 51.7664L11.5803 56.4419L11.7318 50.7152C11.7318 50.2445 11.4591 49.8052 11.035 49.6483C8.89939 48.8795 7.47561 46.7928 7.47561 44.4708C7.47561 43.8746 7.58164 43.2627 7.7634 42.6822C7.86942 42.3684 7.83913 42.0389 7.67252 41.7565C7.50591 41.4741 7.21812 41.2858 6.91519 41.2387C4.62807 40.9249 2.90137 38.8696 2.90137 36.4848C2.90137 33.8333 4.97644 31.6838 7.5362 31.6838C7.82398 31.6838 8.12691 31.7152 8.4147 31.778C8.77821 31.8407 9.14173 31.7152 9.39922 31.4485C9.64157 31.1661 9.73244 30.7895 9.64157 30.413C9.53554 29.958 9.47495 29.503 9.47495 29.0637C9.47495 26.0199 11.853 23.5566 14.7914 23.5566C16.4726 23.5566 18.0176 24.3568 19.0324 25.7532C19.2142 26.0199 19.5171 26.1768 19.8352 26.1925C20.1532 26.2239 20.4562 26.067 20.6682 25.8316C21.5619 24.7961 22.8342 24.1999 24.1519 24.1999C26.742 24.1999 28.8473 26.3808 28.8473 29.0637C28.8473 29.3461 28.8171 29.6442 28.7716 29.9266C28.6959 30.3188 28.8473 30.7111 29.1351 30.9621C29.4381 31.2131 29.8319 31.2759 30.1954 31.1347C30.7407 30.915 31.3011 30.8052 31.8766 30.8052C34.4667 30.8052 36.5721 32.986 36.5721 35.6533C36.5721 36.9084 36.1025 38.1008 35.2695 39.0108C34.8757 39.4344 34.8757 40.0934 35.2695 40.517C36.2388 41.5525 36.7538 42.9018 36.7538 44.3296C36.7538 47.3577 34.3758 49.8366 31.4525 49.8366C30.3014 49.8366 29.2109 49.46 28.2869 48.7383C27.9991 48.5187 27.6205 48.4716 27.2873 48.5971C26.9389 48.7226 26.6965 49.0207 26.6208 49.3816C26.1513 51.5938 24.2277 53.1942 22.0466 53.1942C20.85 53.1942 19.6989 52.7235 18.8204 51.8449Z" fill="#3C8FFB"/>
<rect x="15" y="29" width="11" height="21" fill="#3C8FFB"/>
<path d="M21.0186 44.2597V45.2391C21.0186 45.6885 20.6447 46.0457 20.2007 46.0457C19.7567 46.0457 19.3828 45.6885 19.3828 45.2391V44.2597C19.3828 43.8103 19.745 43.4531 20.2007 43.4531C20.6564 43.4531 21.0186 43.8103 21.0186 44.2597Z" fill="white"/>
<path d="M18.9501 34.4299C18.4827 34.7986 18.2257 35.3517 18.2257 35.9393C18.2257 36.3887 17.8518 36.7459 17.4078 36.7459C16.9637 36.7459 16.5898 36.3887 16.5898 35.9393C16.5898 34.8677 17.0689 33.8537 17.9219 33.1739C18.7632 32.4941 19.8732 32.2406 20.9598 32.4595C22.3269 32.736 23.4369 33.8307 23.729 35.1788C24.0095 36.55 23.507 37.9212 22.397 38.7624C21.5207 39.4307 21.0183 40.3755 21.0183 41.3434V41.7582C21.0183 42.2076 20.6443 42.5648 20.2003 42.5648C19.7563 42.5648 19.3824 42.2076 19.3824 41.7582V41.3434C19.3824 39.8685 20.1185 38.4628 21.3922 37.4834C22.0114 37.0224 22.2802 36.2735 22.1283 35.513C21.9647 34.7871 21.3688 34.1879 20.6327 34.0381C20.0134 33.9113 19.4175 34.0496 18.9501 34.4299Z" fill="white"/>
</svg>
