<svg width="19" height="19" viewBox="0 0 19 19" fill="none" xmlns="http://www.w3.org/2000/svg">
<rect width="19" height="19" transform="matrix(-1 0 0 1 19 0)" fill="#CBCBCB"/>
<path fill-rule="evenodd" clip-rule="evenodd" d="M9.17084 5.5876C8.94304 5.81541 8.94304 6.18475 9.17084 6.41256L12.2584 9.50008L9.17084 12.5876C8.94304 12.8154 8.94304 13.1848 9.17084 13.4126C9.39865 13.6404 9.768 13.6404 9.9958 13.4126L13.4958 9.91256C13.7236 9.68475 13.7236 9.31541 13.4958 9.0876L9.9958 5.5876C9.768 5.3598 9.39865 5.3598 9.17084 5.5876Z" fill="white"/>
<path fill-rule="evenodd" clip-rule="evenodd" d="M5.50419 5.5876C5.27638 5.81541 5.27638 6.18475 5.50419 6.41256L8.59171 9.50008L5.50419 12.5876C5.27638 12.8154 5.27638 13.1848 5.50419 13.4126C5.73199 13.6404 6.10134 13.6404 6.32915 13.4126L9.82915 9.91256C10.057 9.68475 10.057 9.31541 9.82915 9.0876L6.32915 5.5876C6.10134 5.3598 5.73199 5.3598 5.50419 5.5876Z" fill="white"/>
</svg>
