<svg width="30" height="30" viewBox="0 0 30 30" fill="none" xmlns="http://www.w3.org/2000/svg">
<rect x="0.75" y="5.75" width="27.5" height="20.5" rx="2.25" stroke="white" stroke-width="1.5"/>
<line x1="6.75" y1="12.25" x2="13.25" y2="12.25" stroke="white" stroke-width="1.5" stroke-linecap="round"/>
<line x1="6.75" y1="16.25" x2="11.25" y2="16.25" stroke="white" stroke-width="1.5" stroke-linecap="round"/>
<path d="M17.3296 17.2462L17.4643 16.8923C17.8209 15.9 18.5103 14.9154 20 14.9154H23.7242L23.3914 15.8H20.4437C19.8336 15.8 19.5087 16.1231 19.2155 16.7077H24.9287C24.5087 14.6 22.4643 13 20 13C17.2425 13 15 15.0154 15 17.5C15 17.5846 15 17.6615 15.0079 17.7462H22.6704L22.5357 18.1C22.1791 19.0923 21.4897 20.0769 20 20.0769H16.2758L16.6086 19.1923H19.5563C20.1664 19.1923 20.4913 18.8692 20.7845 18.2846H15.0792C15.4913 20.3923 17.5357 22 20 22C22.7655 22 25 19.9846 25 17.5C25 17.4154 25 17.3308 24.9921 17.2462H17.3296Z" fill="white"/>
</svg>
