<svg width="24" height="24" viewBox="0 0 24 24" fill="none" xmlns="http://www.w3.org/2000/svg">
<g clip-path="url(#clip0_292_1147)">
<path fill-rule="evenodd" clip-rule="evenodd" d="M9.99766 2.73516C10.8151 1.08828 13.1849 1.08828 14.0023 2.73516L16.1898 7.14213L21.0901 7.85442C22.917 8.11998 23.6464 10.3437 22.3261 11.6226L18.7767 15.0606L19.6134 19.9119C19.9251 21.7192 18.0088 23.0953 16.3723 22.2394L12 19.9528L7.6277 22.2394C5.99119 23.0953 4.0749 21.7192 4.38659 19.9119L5.22329 15.0606L1.67392 11.6226C0.353562 10.3437 1.08295 8.11998 2.9099 7.85442L7.81022 7.14213L9.99766 2.73516ZM14.1874 8.11775L12 3.71077L9.81256 8.11775C9.48845 8.77072 8.86078 9.22387 8.13412 9.32949L3.23379 10.0418L6.78316 13.4797C7.30713 13.9872 7.5462 14.7173 7.42278 15.4329L6.58608 20.2843L10.9584 17.9977C11.6102 17.6568 12.3898 17.6568 13.0416 17.9977L17.4139 20.2843L16.5772 15.4329C16.4538 14.7173 16.6929 13.9872 17.2168 13.4797L20.7662 10.0418L15.8659 9.32949C15.1392 9.22387 14.5115 8.77072 14.1874 8.11775Z" fill="#070F16" fill-opacity="0.82"/>
</g>
<defs>
<clipPath id="clip0_292_1147">
<rect width="24" height="24" fill="white"/>
</clipPath>
</defs>
</svg>
