<svg width="24" height="24" viewBox="0 0 24 24" fill="none" xmlns="http://www.w3.org/2000/svg">
<g clip-path="url(#clip0_1368_12023)">
<path d="M16.2061 2.88574H17.7146C18.4061 2.88574 18.9718 3.45146 18.9718 4.14289V11.4343" stroke="#4B5058" stroke-width="1.67619" stroke-linecap="round" stroke-linejoin="round"/>
<path d="M9.35462 21.7429H3.88605C3.19462 21.7429 2.62891 21.1772 2.62891 20.4857V4.14289C2.62891 3.45146 3.19462 2.88574 3.88605 2.88574H5.39462" stroke="#4B5058" stroke-width="1.67619" stroke-linecap="round" stroke-linejoin="round"/>
<path d="M6.40039 11.0571H15.2004" stroke="#4B5058" stroke-width="1.67619" stroke-linecap="round" stroke-linejoin="round"/>
<path d="M6.40039 14.8286H10.6118" stroke="#4B5058" stroke-width="1.67619" stroke-linecap="round" stroke-linejoin="round"/>
<path d="M14.3207 5.39985H7.34356C6.77784 5.39985 6.33784 5.0227 6.14927 4.51985L5.45784 2.44556C5.33213 2.06842 5.64641 1.62842 6.02356 1.62842H15.5778C16.0178 1.62842 16.3321 2.06842 16.1436 2.44556L15.4521 4.51985C15.2636 5.0227 14.8236 5.39985 14.2578 5.39985H14.3207Z" stroke="#4B5058" stroke-width="1.67619" stroke-linecap="round" stroke-linejoin="round"/>
<path d="M18.2806 18.4116C17.9664 18.4116 17.7149 18.0973 17.8406 17.783C18.1549 17.0287 18.4064 16.2116 18.4064 15.6458C18.4064 14.2001 17.6521 13.6973 16.7092 13.6973C15.7664 13.6973 15.0121 14.2001 15.0121 15.6458C15.0121 17.0916 15.2635 17.0287 15.5778 17.783C15.7035 18.0973 15.5149 18.4116 15.1378 18.4116H14.9492C13.5664 18.4116 12.3721 19.543 12.3721 20.9887V22.3716H20.7321V20.9887C20.7321 19.6058 19.6006 18.4116 18.1549 18.4116H18.2806Z" stroke="#4B5058" stroke-width="1.67619" stroke-linecap="round" stroke-linejoin="round"/>
<path d="M11.8691 22.3716H21.4863" stroke="#4B5058" stroke-width="1.67619" stroke-linecap="round" stroke-linejoin="round"/>
</g>
<defs>
<clipPath id="clip0_1368_12023">
<rect width="20.1143" height="22" fill="white" transform="translate(2 1)"/>
</clipPath>
</defs>
</svg>
