<svg width="56" height="56" viewBox="0 0 56 56" fill="none" xmlns="http://www.w3.org/2000/svg">
<circle cx="28" cy="28" r="27" fill="#FAFAFA" stroke="#009BCE" stroke-width="2"/>
<g clip-path="url(#clip0_498_10061)">
<path d="M19.3532 45.4998H14.3855L19.7081 37.2256H24.6758L19.3532 45.4998Z" fill="#0C5D78"/>
<path d="M36.4014 45.4685H41.3692L36.0466 37.1943H31.0789L36.4014 45.4685Z" fill="#0C5D78"/>
<path d="M18.5467 10.5H37.2887C39.5467 10.5 41.3854 12.3387 41.3854 14.5968V39.2742H14.4338V14.5968C14.4338 12.3387 16.2725 10.5 18.5467 10.5Z" fill="#009BCE"/>
<path d="M18.5467 10.5H37.2887C39.5467 10.5 41.3854 12.3387 41.3854 14.5968V25.5645H14.4338V14.5968C14.4338 12.3387 16.2725 10.5 18.5467 10.5Z" fill="#E2EBFF"/>
<path d="M20.1596 34.9207C21.4958 34.9207 22.5789 33.8376 22.5789 32.5014C22.5789 31.1652 21.4958 30.082 20.1596 30.082C18.8234 30.082 17.7402 31.1652 17.7402 32.5014C17.7402 33.8376 18.8234 34.9207 20.1596 34.9207Z" fill="white"/>
<path d="M35.6593 34.9207C36.9955 34.9207 38.0787 33.8376 38.0787 32.5014C38.0787 31.1652 36.9955 30.082 35.6593 30.082C34.3232 30.082 33.24 31.1652 33.24 32.5014C33.24 33.8376 34.3232 34.9207 35.6593 34.9207Z" fill="white"/>
<path d="M23.605 22.3164V20.1484L27.897 13.3955H31.4272V20.1338H32.6577V22.3164H31.4272V24.001H28.7612V22.3164H23.605ZM26.3589 20.1338H28.8198V16.2959H28.7319L26.3589 20.0605V20.1338Z" fill="#009BCE"/>
</g>
<defs>
<clipPath id="clip0_498_10061">
<rect width="26.9839" height="35" fill="white" transform="translate(14.3855 10.5)"/>
</clipPath>
</defs>
</svg>
