<svg width="17" height="17" viewBox="0 0 17 17" fill="none" xmlns="http://www.w3.org/2000/svg">
<g clip-path="url(#clip0_2763_24893)">
<path d="M16.3124 5.31143C16.6906 5.31143 17 5.00202 17 4.62386V3.02528C17 1.35794 15.6421 0 13.9747 0H12.3761C11.998 0 11.6886 0.309403 11.6886 0.687563C11.6886 1.06572 11.998 1.37513 12.3761 1.37513H13.9747C14.8857 1.37513 15.6249 2.11426 15.6249 3.02528V4.62386C15.6249 5.00202 15.9343 5.31143 16.3124 5.31143Z" fill="white"/>
<path d="M0.687539 5.31143C1.0657 5.31143 1.3751 5.00202 1.3751 4.62386V3.02528C1.3751 2.11426 2.11423 1.37513 3.02525 1.37513H4.62384C5.002 1.37513 5.3114 1.06572 5.3114 0.687563C5.3114 0.309403 5.002 0 4.62384 0H3.02525C1.35791 0 -2.38419e-05 1.35794 -2.38419e-05 3.02528V4.62386C-2.38419e-05 5.00202 0.30938 5.31143 0.687539 5.31143Z" fill="white"/>
<path d="M12.3761 17.0009H13.9747C15.6421 17.0009 17 15.6429 17 13.9756V12.377C17 11.9989 16.6906 11.6895 16.3124 11.6895C15.9343 11.6895 15.6249 11.9989 15.6249 12.377V13.9756C15.6249 14.8866 14.8857 15.6258 13.9747 15.6258H12.3761C11.998 15.6258 11.6886 15.9352 11.6886 16.3133C11.6886 16.6915 11.998 17.0009 12.3761 17.0009Z" fill="white"/>
<path d="M3.02525 17.0009H4.62384C5.002 17.0009 5.3114 16.6915 5.3114 16.3133C5.3114 15.9352 5.002 15.6258 4.62384 15.6258H3.02525C2.11423 15.6258 1.3751 14.8866 1.3751 13.9756V12.377C1.3751 11.9989 1.0657 11.6895 0.687539 11.6895C0.30938 11.6895 -2.38419e-05 11.9989 -2.38419e-05 12.377V13.9756C-2.38419e-05 15.6429 1.35791 17.0009 3.02525 17.0009Z" fill="white"/>
<path d="M9.6602 8.02699H12.9605C13.3387 8.02699 13.6481 7.71759 13.6481 7.33943C13.6481 6.96127 13.3387 6.65187 12.9605 6.65187H10.3478V4.72669H12.2729V5.03609C12.2729 5.41425 12.5823 5.72366 12.9605 5.72366C13.3387 5.72366 13.6481 5.41425 13.6481 5.03609V4.03913C13.6481 3.66097 13.3387 3.35156 12.9605 3.35156H9.6602C9.28204 3.35156 8.97264 3.66097 8.97264 4.03913V7.33943C8.97264 7.71759 9.28204 8.02699 9.6602 8.02699Z" fill="white"/>
<path d="M9.66033 13.6481H12.9606C13.3388 13.6481 13.6482 13.3387 13.6482 12.9605V9.66022C13.6482 9.28206 13.3388 8.97266 12.9606 8.97266H9.66033C9.28217 8.97266 8.97276 9.28206 8.97276 9.66022V12.9605C8.97276 13.3387 9.28217 13.6481 9.66033 13.6481ZM12.2731 12.273H10.3479V10.3478H12.2731V12.273Z" fill="white"/>
<path d="M4.03948 8.02699H7.33978C7.71794 8.02699 8.02734 7.71759 8.02734 7.33943V4.03913C8.02734 3.66097 7.71794 3.35156 7.33978 3.35156H4.03948C3.66132 3.35156 3.35191 3.66097 3.35191 4.03913V7.33943C3.35191 7.71759 3.66132 8.02699 4.03948 8.02699ZM6.65222 6.65187H4.72704V4.72669H6.65222V6.65187Z" fill="white"/>
<path d="M6.22254 10.3302H6.27411C6.65227 10.3302 6.96167 10.0208 6.96167 9.64264C6.96167 9.26448 6.65227 8.95508 6.27411 8.95508H6.22254C5.84438 8.95508 5.53498 9.26448 5.53498 9.64264C5.53498 10.0208 5.84438 10.3302 6.22254 10.3302Z" fill="white"/>
<path d="M4.03943 10.3302H4.091C4.46916 10.3302 4.77856 10.0208 4.77856 9.64264C4.77856 9.26448 4.46916 8.95508 4.091 8.95508H4.03943C3.66127 8.95508 3.35187 9.26448 3.35187 9.64264C3.35187 10.0208 3.66127 10.3302 4.03943 10.3302Z" fill="white"/>
<path d="M5.15674 13.6486H5.20831C5.58647 13.6486 5.89587 13.3392 5.89587 12.961C5.89587 12.5828 5.58647 12.2734 5.20831 12.2734H5.15674C4.77858 12.2734 4.46918 12.5828 4.46918 12.961C4.46918 13.3392 4.77858 13.6486 5.15674 13.6486Z" fill="white"/>
<path d="M5.12244 11.4474H5.17401C5.55217 11.4474 5.86157 11.138 5.86157 10.7598C5.86157 10.3817 5.55217 10.0723 5.17401 10.0723H5.12244C4.74428 10.0723 4.43488 10.3817 4.43488 10.7598C4.43488 11.138 4.74428 11.4474 5.12244 11.4474Z" fill="white"/>
<path d="M4.09105 12.5647H7.33978C7.71794 12.5647 8.02734 12.2553 8.02734 11.8771V10.7598C8.02734 10.3817 7.71794 10.0723 7.33978 10.0723C6.96162 10.0723 6.65222 10.3817 6.65222 10.7598V11.1896H4.09105C3.71289 11.1896 3.40348 11.499 3.40348 11.8771C3.40348 12.2553 3.71289 12.5647 4.09105 12.5647Z" fill="white"/>
</g>
<defs>
<clipPath id="clip0_2763_24893">
<rect width="17" height="17" fill="white" transform="matrix(-1 0 0 1 17 0)"/>
</clipPath>
</defs>
</svg>
