<svg width="28" height="28" viewBox="0 0 28 28" fill="none" xmlns="http://www.w3.org/2000/svg">
<path d="M3 15.2099V20.7833C3 21.3699 3.22 21.9566 3.66 22.3233C4.02667 22.6899 4.61333 22.9833 5.2 22.9833H22.8C23.3867 22.9833 23.9733 22.7633 24.34 22.3233C24.7067 21.9566 25 21.3699 25 20.7833V9.70994C25 9.12327 24.78 8.5366 24.34 8.16994C23.9 7.80327 23.3867 7.50993 22.8 7.50993H17.8867V7.28994L17.74 7.06993C17.5933 6.48327 17.2267 5.96993 16.7867 5.60327C16.2733 5.2366 15.6867 5.0166 15.1 5.0166H12.9C12.3133 5.0166 11.7267 5.2366 11.2133 5.60327C10.7 5.96993 10.3333 6.48327 10.26 7.06993V7.28994L10.1133 7.50993H5.2C4.61333 7.50993 4.02667 7.72994 3.66 8.16994C3.29333 8.5366 3 9.12327 3 9.70994V15.2833V15.2099Z" stroke="#1F5EFF" stroke-width="2" stroke-linecap="round" stroke-linejoin="round"/>
<path d="M17.52 15.21C17.52 17.19 15.9067 18.8034 13.9267 18.8034C11.9467 18.8034 10.3334 17.19 10.3334 15.21C10.3334 13.23 11.9467 11.6167 13.9267 11.6167C15.9067 11.6167 17.52 13.23 17.52 15.21Z" stroke="#1F5EFF" stroke-width="2" stroke-linecap="round" stroke-linejoin="round"/>
</svg>
