<svg width="60" height="60" viewBox="0 0 60 60" fill="none" xmlns="http://www.w3.org/2000/svg">
<g clip-path="url(#clip0_491_7596)">
<path d="M5.55078 45.4729V27.5205C5.55078 26.916 6.04446 26.4258 6.6533 26.4258C7.26213 26.4258 7.75581 26.916 7.75581 27.5205V45.4729" fill="white"/>
<path d="M5.55078 45.4729V27.5205C5.55078 26.916 6.04446 26.4258 6.6533 26.4258C7.26213 26.4258 7.75581 26.916 7.75581 27.5205V45.4729" stroke="#343A40" stroke-width="2" stroke-linecap="round" stroke-linejoin="round"/>
<path d="M5.50684 56.3649V45.1523" stroke="#343A40" stroke-width="2" stroke-linecap="round" stroke-linejoin="round"/>
<path d="M55.4268 37.3574V56.3646" stroke="#343A40" stroke-width="2" stroke-linecap="round" stroke-linejoin="round"/>
<path d="M55.313 45.5039H5.58203V53.2565H55.313V45.5039Z" fill="white" stroke="#343A40" stroke-width="2" stroke-linecap="round" stroke-linejoin="round"/>
<path d="M7.75507 29.4922C7.75507 29.4922 7.27792 41.2359 18.1223 44.681C18.1223 44.681 16.8644 33.7987 7.75507 29.4922Z" fill="#D5ECFF" stroke="#343A40" stroke-width="2" stroke-linecap="round" stroke-linejoin="round"/>
<path d="M21.9408 43.9156C16.3415 39.9317 15.1424 34.673 15.0836 31.0875C15.0464 28.8463 16.892 27.0215 19.1497 27.0215C21.207 27.0215 22.969 28.5443 23.1854 30.5753C23.3382 32.0073 23.7622 33.7522 24.7542 35.5801" fill="white"/>
<path d="M21.9408 43.9156C16.3415 39.9317 15.1424 34.6731 15.0836 31.0875C15.0464 28.8463 16.892 27.0215 19.1497 27.0215C21.207 27.0215 22.969 28.5443 23.1854 30.5753C23.3382 32.0073 23.7622 33.7522 24.7542 35.5801" stroke="#343A40" stroke-width="2" stroke-linecap="round" stroke-linejoin="round"/>
<path d="M24.5768 21.8622C24.9415 19.6317 23.4159 17.5299 21.1694 17.1679C18.9229 16.8058 16.8062 18.3205 16.4415 20.5511C16.0769 22.7816 17.6024 24.8834 19.8489 25.2454C22.0954 25.6075 24.2121 24.0928 24.5768 21.8622Z" fill="white" stroke="#343A40" stroke-width="2" stroke-linecap="round" stroke-linejoin="round"/>
<path d="M21.3662 45.5035C21.3662 45.5035 22.2477 42.0364 24.397 39.2317L29.3844 35.8605C33.5972 35.1293 43.6164 36.648 48.0523 38.6497C53.883 41.2811 54.6343 45.1779 54.6343 45.1779L21.3662 45.5035Z" fill="#D5ECFF" stroke="#343A40" stroke-width="2" stroke-linecap="round" stroke-linejoin="round"/>
<path d="M20.2914 31.7598L22.894 36.0668L27.4487 34.9987C28.3374 34.79 29.2298 35.3325 29.4466 36.2139C29.662 37.0886 29.1316 37.9736 28.2543 38.2028L22.9508 39.5887C22.1437 39.7995 21.2927 39.4631 20.8522 38.7591L17.6484 33.6384" fill="white"/>
<path d="M20.2914 31.7598L22.894 36.0668L27.4487 34.9987C28.3374 34.79 29.2298 35.3325 29.4466 36.2139C29.662 37.0886 29.1316 37.9736 28.2543 38.2028L22.9508 39.5887C22.1437 39.7995 21.2927 39.4631 20.8522 38.7591L17.6484 33.6384" stroke="#343A40" stroke-width="2" stroke-linecap="round" stroke-linejoin="round"/>
<path d="M20.4811 4.56836L18.7031 10.332L22.2585 8.76015L20.4811 14" stroke="#343A40" stroke-width="2" stroke-linecap="round" stroke-linejoin="round"/>
<path d="M15.1861 12.9508L14.001 7.71094" stroke="#343A40" stroke-width="2" stroke-linecap="round" stroke-linejoin="round"/>
<path d="M25.7744 12.9508L26.9596 7.71094" stroke="#343A40" stroke-width="2" stroke-linecap="round" stroke-linejoin="round"/>
<path d="M54.489 25.5609C59.7745 20.3129 59.7745 11.8043 54.489 6.55629C49.2035 1.30831 40.634 1.30831 35.3485 6.55629C30.0631 11.8043 30.0631 20.3129 35.3485 25.5609C40.634 30.8089 49.2035 30.8089 54.489 25.5609Z" fill="#3C8FFB"/>
<path d="M44.9848 17.7396C45.801 17.7396 46.4627 17.0826 46.4627 16.2721C46.4627 15.4617 45.801 14.8047 44.9848 14.8047C44.1685 14.8047 43.5068 15.4617 43.5068 16.2721C43.5068 17.0826 44.1685 17.7396 44.9848 17.7396Z" fill="white" stroke="white" stroke-linecap="round" stroke-linejoin="round"/>
<path d="M44.9844 6.05469V7.81594" stroke="white" stroke-width="2" stroke-linecap="round" stroke-linejoin="round"/>
<path d="M44.9844 24.7285V26.4893" stroke="white" stroke-width="2" stroke-linecap="round" stroke-linejoin="round"/>
<path d="M54.6688 16.2715H52.8955" stroke="white" stroke-width="2" stroke-linecap="round" stroke-linejoin="round"/>
<path d="M37.0722 16.2715H35.2988" stroke="white" stroke-width="2" stroke-linecap="round" stroke-linejoin="round"/>
<path d="M44.9844 12.1621V14.5099" stroke="white" stroke-width="2" stroke-linecap="round" stroke-linejoin="round"/>
<path d="M46.332 15.5806L51.1888 11.1562" stroke="white" stroke-width="2" stroke-linecap="round" stroke-linejoin="round"/>
</g>
<defs>
<clipPath id="clip0_491_7596">
<rect width="60" height="60" fill="white"/>
</clipPath>
</defs>
</svg>
