<svg width="36" height="36" viewBox="0 0 36 36" fill="none" xmlns="http://www.w3.org/2000/svg">
<rect x="3" y="2" width="30" height="30" rx="5.85938" fill="#17288B"/>
<ellipse cx="18" cy="16.8242" rx="12.1875" ry="11.9824" fill="#D9D9D9"/>
<path d="M10.9903 16.2832L11.3439 15.3249C12.2799 12.6374 14.0895 9.9707 18 9.9707H27.7761L26.9025 12.3665H19.1648C17.5632 12.3665 16.7104 13.2415 15.9408 14.8249H30.9378C29.8354 9.11654 24.4689 4.7832 18 4.7832C10.7615 4.7832 4.875 10.2415 4.875 16.9707C4.875 17.1999 4.875 17.4082 4.8958 17.6374H25.0097L24.6561 18.5957C23.7201 21.2832 21.9105 23.9499 18 23.9499H8.22385L9.09746 21.554H16.8352C18.4368 21.554 19.2896 20.679 20.0592 19.0957H5.083C6.16462 24.804 11.5311 29.1582 18 29.1582C25.2593 29.1582 31.125 23.6999 31.125 16.9707C31.125 16.7415 31.125 16.5124 31.1042 16.2832H10.9903Z" fill="#17288B"/>
</svg>
