<svg width="72" height="72" viewBox="0 0 72 72" fill="none" xmlns="http://www.w3.org/2000/svg">
<rect width="72" height="72" rx="36" fill="#EBDBFF"/>
<path d="M19 43.8639V35.3804C19 33.4227 20.5686 31.8164 22.4804 31.8164H39" stroke="#4E108F" stroke-width="3" stroke-linecap="round" stroke-linejoin="round"/>
<path d="M30.7155 28.1519C34.262 28.1519 37.1371 25.2078 37.1371 21.576C37.1371 17.9442 34.262 15 30.7155 15C27.169 15 24.2939 17.9442 24.2939 21.576C24.2939 25.2078 27.169 28.1519 30.7155 28.1519Z" stroke="#4E108F" stroke-width="3" stroke-linecap="round" stroke-linejoin="round"/>
<path d="M22.9468 48.1107H27.2115C28.0448 48.1107 28.7311 49.3131 28.7311 50.1664C28.7311 51.0198 28.5098 53 27.6765 53H21.6471C20.1765 53 19 51.7953 19 50.2893V43.613" stroke="#4E108F" stroke-width="3" stroke-linecap="round" stroke-linejoin="round"/>
<path d="M56.4667 48.7162C57.3135 43.4879 53.7616 38.563 48.5333 37.7162C43.3049 36.8694 38.3801 40.4213 37.5333 45.6497C36.6865 50.878 40.2384 55.8029 45.4667 56.6497C50.6951 57.4965 55.6199 53.9445 56.4667 48.7162Z" stroke="#4E108F" stroke-width="3" stroke-linecap="round" stroke-linejoin="round"/>
<path d="M47.1045 44.0741V50.131" stroke="#4E108F" stroke-width="3" stroke-linecap="round" stroke-linejoin="round"/>
<path d="M50.1326 47.1026H44.0757" stroke="#4E108F" stroke-width="3" stroke-linecap="round" stroke-linejoin="round"/>
</svg>
