<svg width="20" height="20" viewBox="0 0 20 20" fill="none" xmlns="http://www.w3.org/2000/svg">
<g clip-path="url(#clip0_195_5442)">
<path fill-rule="evenodd" clip-rule="evenodd" d="M10 4.36842C8.6469 4.36842 7.55 5.44058 7.55 6.76316C7.55 8.08573 8.6469 9.15789 10 9.15789C11.3531 9.15789 12.45 8.08573 12.45 6.76316C12.45 5.44058 11.3531 4.36842 10 4.36842ZM6.15 6.76316C6.15 4.68482 7.8737 3 10 3C12.1263 3 13.85 4.68482 13.85 6.76316C13.85 8.84149 12.1263 10.5263 10 10.5263C7.8737 10.5263 6.15 8.84149 6.15 6.76316ZM10 13.2632C7.76616 13.2632 5.72533 14.2135 4.20932 15.7852C3.94411 16.0601 3.50109 16.0728 3.2198 15.8136C2.93851 15.5544 2.92547 15.1214 3.19068 14.8464C4.94478 13.0279 7.34366 11.8947 10 11.8947C12.6563 11.8947 15.0552 13.0279 16.8093 14.8464C17.0745 15.1214 17.0615 15.5544 16.7802 15.8136C16.4989 16.0728 16.0559 16.0601 15.7907 15.7852C14.2747 14.2135 12.2338 13.2632 10 13.2632Z" fill="#31373D"/>
</g>
<defs>
<clipPath id="clip0_195_5442">
<rect width="20" height="20" fill="white"/>
</clipPath>
</defs>
</svg>
