<svg width="72" height="72" viewBox="0 0 72 72" fill="none" xmlns="http://www.w3.org/2000/svg">
<path d="M38.7643 4.96656C37.5201 3.9162 35.6738 3.91603 34.4295 4.96627C28.3905 10.0635 20.4837 13.8027 11.5543 15.5306C10.0933 15.8133 9 17.0679 9 18.556V34.457C9 49.3866 16.198 64.3224 35.8605 68.8573C36.2771 68.9533 36.7229 68.9533 37.1395 68.8573C56.802 64.3224 64 49.3866 64 34.457V18.5183C64 17.0341 62.9121 15.7815 61.4558 15.4948C52.6015 13.7516 44.7605 10.0287 38.7643 4.96656Z" fill="#00CDAB"/>
<path d="M33.9752 48.5331C33.9752 48.5331 33.9752 48.5331 33.9065 48.5331C32.944 48.5331 32.119 48.12 31.4315 47.4314L22.9065 38.1359C21.6002 36.7587 21.7377 34.5553 23.1127 33.2471C24.4877 31.9388 26.6877 32.0765 27.994 33.4537L34.1127 40.1327L47.4502 26.9812C48.8252 25.6729 50.9565 25.6729 52.3315 26.9812C53.6377 28.3583 53.6377 30.4928 52.3315 31.87L36.4502 47.5691C35.8315 48.1888 34.9377 48.5331 34.044 48.5331H33.9752Z" fill="white"/>
</svg>
