<svg width="22" height="22" viewBox="0 0 22 22" fill="none" xmlns="http://www.w3.org/2000/svg">
<path fill-rule="evenodd" clip-rule="evenodd" d="M10.0172 6.22371C7.92212 6.22371 6.22371 7.92212 6.22371 10.0172C6.22371 12.1123 7.92212 13.8107 10.0172 13.8107C12.1123 13.8107 13.8107 12.1123 13.8107 10.0172C13.8107 7.92212 12.1123 6.22371 10.0172 6.22371ZM5 10.0172C5 7.24628 7.24628 5 10.0172 5C12.7881 5 15.0344 7.24628 15.0344 10.0172C15.0344 11.1822 14.6374 12.2544 13.9713 13.106L16.6908 15.8255C16.9297 16.0644 16.9297 16.4518 16.6908 16.6908C16.4518 16.9297 16.0644 16.9297 15.8255 16.6908L13.106 13.9713C12.2544 14.6374 11.1822 15.0344 10.0172 15.0344C7.24628 15.0344 5 12.7881 5 10.0172Z" fill="white"/>
</svg>
