<svg width="26" height="31" viewBox="0 0 26 31" fill="none" xmlns="http://www.w3.org/2000/svg">
<g clip-path="url(#clip0_180_1231)">
<path d="M13.0459 0C9.84177 3.10604 5.252 5.32119 0 6.08977V14.7752C0 21.8631 3.47635 28.954 13 31C22.5236 28.954 26 21.8631 26 14.7752V6.07618C20.7862 5.29552 16.2301 3.08792 13.0459 0Z" fill="#FF578B"/>
<path d="M20.0757 19.3291C21.6596 15.5539 19.8437 11.2257 16.0199 9.66196C12.1961 8.0982 7.81223 9.89097 6.22835 13.6662C4.64446 17.4415 6.4603 21.7696 10.2841 23.3334C14.108 24.8972 18.4918 23.1044 20.0757 19.3291Z" fill="white"/>
<path d="M12.4908 20.3199L8.69019 16.566L10.6356 14.6453L12.4908 16.4754L16.1415 12.8711L18.0884 14.7933L12.4908 20.3199Z" fill="#C40050"/>
</g>
<defs>
<clipPath id="clip0_180_1231">
<rect width="26" height="31" fill="white"/>
</clipPath>
</defs>
</svg>
