<svg width="18" height="18" viewBox="0 0 18 18" fill="none" xmlns="http://www.w3.org/2000/svg">
<path fill-rule="evenodd" clip-rule="evenodd" d="M13.5667 3.02816C13.2292 3.00058 12.7924 3 12.15 3H11.25C10.8358 3 10.5 2.66421 10.5 2.25C10.5 1.83579 10.8358 1.5 11.25 1.5L12.181 1.5C12.7847 1.49999 13.283 1.49998 13.6889 1.53315C14.1104 1.56759 14.498 1.64151 14.862 1.82698C15.4265 2.1146 15.8854 2.57354 16.173 3.13803C16.3585 3.50203 16.4324 3.88956 16.4669 4.31113C16.5 4.71702 16.5 5.21529 16.5 5.81901V12.181C16.5 12.7847 16.5 13.283 16.4669 13.6889C16.4324 14.1104 16.3585 14.498 16.173 14.862C15.8854 15.4265 15.4265 15.8854 14.862 16.173C14.498 16.3585 14.1104 16.4324 13.6889 16.4669C13.283 16.5 12.7847 16.5 12.181 16.5H11.25C10.8358 16.5 10.5 16.1642 10.5 15.75C10.5 15.3358 10.8358 15 11.25 15H12.15C12.7924 15 13.2292 14.9994 13.5667 14.9718C13.8955 14.945 14.0637 14.8963 14.181 14.8365C14.4632 14.6927 14.6927 14.4632 14.8365 14.181C14.8963 14.0637 14.945 13.8955 14.9718 13.5667C14.9994 13.2292 15 12.7924 15 12.15V5.85C15 5.20757 14.9994 4.77085 14.9718 4.43328C14.945 4.10447 14.8963 3.93632 14.8365 3.81902C14.6927 3.53677 14.4632 3.3073 14.181 3.16349C14.0637 3.10372 13.8955 3.05503 13.5667 3.02816ZM6.96967 4.71967C7.26256 4.42678 7.73744 4.42678 8.03033 4.71967L11.7803 8.46967C12.0732 8.76256 12.0732 9.23744 11.7803 9.53033L8.03033 13.2803C7.73744 13.5732 7.26256 13.5732 6.96967 13.2803C6.67678 12.9874 6.67678 12.5126 6.96967 12.2197L9.43934 9.75L2.25 9.75C1.83579 9.75 1.5 9.41421 1.5 9C1.5 8.58579 1.83579 8.25 2.25 8.25L9.43934 8.25L6.96967 5.78033C6.67678 5.48744 6.67678 5.01256 6.96967 4.71967Z" fill="#070F16" fill-opacity="0.82"/>
</svg>
