<svg width="44" height="60" viewBox="0 0 44 60" fill="none" xmlns="http://www.w3.org/2000/svg">
<g clip-path="url(#clip0_518_16512)">
<path d="M44 7.18802V58.1032C44 59.1015 43.1889 60 42.0737 60H1.92627C0.912442 60 0 59.1015 0 58.1032V7.18802C0 6.18968 0.81106 5.29118 1.92627 5.29118H8.92166V4.89185C8.92166 2.19634 11.1521 0 13.8894 0H30.0092C32.7465 0 34.977 2.19634 34.977 4.89185V5.29118H41.9723C42.9862 5.29118 43.8986 6.08985 43.8986 7.18802H44ZM42.0737 58.1032V7.28785H34.977C34.977 7.28785 34.977 7.28785 34.977 7.38769C34.977 7.68719 34.8756 7.88686 34.7742 8.18636C34.7742 8.18636 34.7742 8.38602 34.6728 8.48586C34.6728 8.68552 34.47 8.78536 34.3687 8.98503C34.3687 9.08486 34.2673 9.18469 34.1659 9.28453C34.0645 9.38436 33.9631 9.58403 33.8618 9.68386C33.8618 9.68386 33.659 9.88353 33.5576 9.88353C33.4562 9.98336 33.2535 10.0832 33.1521 10.183C33.1521 10.183 32.9493 10.2829 32.8479 10.3827C32.7465 10.4825 32.5438 10.5824 32.341 10.6822C32.341 10.6822 32.1382 10.782 32.0369 10.782C31.8341 10.782 31.6313 10.8819 31.4286 10.9817C31.4286 10.9817 31.2258 10.9817 31.1244 10.9817C30.8203 10.9817 30.5161 11.0815 30.212 11.0815H14.0922C13.788 11.0815 13.4839 11.0815 13.1797 10.9817C12.8756 10.8819 12.977 10.9817 12.8756 10.9817C12.6728 10.9817 12.47 10.8819 12.2673 10.782C12.1659 10.782 12.0645 10.782 11.9631 10.6822C11.7604 10.6822 11.659 10.4825 11.4562 10.3827C11.4562 10.3827 11.2535 10.2829 11.1521 10.183C11.0507 10.0832 10.8479 9.98336 10.7465 9.88353L10.5438 9.68386C10.4424 9.58403 10.341 9.38436 10.2396 9.28453C10.2396 9.28453 10.1382 9.08486 10.0369 8.98503C9.93548 8.78536 9.8341 8.68552 9.73272 8.48586C9.73272 8.48586 9.73272 8.28619 9.63134 8.18636C9.63134 7.98669 9.42857 7.68719 9.42857 7.38769C9.42857 7.28785 2.3318 7.28785 2.3318 7.28785V58.203H42.4793L42.0737 58.1032ZM33.0507 6.28952V4.89185C33.0507 3.29451 31.7327 1.89684 30.1106 1.89684H13.9908C12.3687 1.89684 11.0507 3.19468 11.0507 4.89185V6.28952C11.0507 7.88686 12.3687 9.28453 13.9908 9.28453H30.1106C31.7327 9.28453 33.0507 7.98669 33.0507 6.28952Z" fill="#343A40"/>
<path d="M38.3229 13.8772V51.4147C38.3229 51.9138 37.9174 52.413 37.3091 52.413H6.69156C6.18465 52.413 5.67773 52.0137 5.67773 51.4147V13.8772C5.67773 13.3781 6.08326 12.8789 6.69156 12.8789H9.42889C9.9358 12.8789 10.4427 13.2782 10.4427 13.8772C10.4427 14.4762 10.0372 14.8756 9.42889 14.8756H7.70538V50.5162H36.3966V14.8756H34.6731C34.1662 14.8756 33.6593 14.4762 33.6593 13.8772C33.6593 13.2782 34.0648 12.8789 34.6731 12.8789H37.4105C37.9174 12.8789 38.4243 13.2782 38.4243 13.8772H38.3229Z" fill="#343A40"/>
<path d="M30.1105 1.99609H13.8893C12.2655 1.99609 10.9492 3.29231 10.9492 4.89127V6.38877C10.9492 7.98773 12.2655 9.28395 13.8893 9.28395H30.1105C31.7343 9.28395 33.0506 7.98773 33.0506 6.38877V4.89127C33.0506 3.29231 31.7343 1.99609 30.1105 1.99609Z" fill="#D5ECFF"/>
<path d="M32.4426 39.0332C32.9495 39.0332 33.4564 39.4325 33.4564 40.0315C33.4564 40.6305 33.0509 41.0299 32.4426 41.0299H11.5578C11.0509 41.0299 10.5439 40.6305 10.5439 40.0315C10.5439 39.4325 10.9495 39.0332 11.5578 39.0332H32.4426Z" fill="#343A40"/>
<path d="M32.4426 44.7246C32.9495 44.7246 33.4564 45.1239 33.4564 45.7229C33.4564 46.3219 33.0509 46.7213 32.4426 46.7213H11.5578C11.0509 46.7213 10.5439 46.3219 10.5439 45.7229C10.5439 45.1239 10.9495 44.7246 11.5578 44.7246H32.4426Z" fill="#343A40"/>
<g clip-path="url(#clip1_518_16512)">
<path d="M31.4288 22.5027C31.4288 22.5027 31.4288 22.6285 31.4288 22.8799C31.4288 23.3828 31.3029 23.8856 31.0511 24.3885C30.7993 25.2685 30.1698 26.6514 29.1626 28.0343C28.4072 29.04 27.4 30.1714 26.0151 31.1772C25.7633 31.4286 25.5115 31.5543 25.1338 31.8058C24.882 32.0572 24.6302 32.1829 24.2525 32.4343C24.2525 32.4343 24.2525 32.4343 24.1266 32.4343C23.4971 32.8115 22.7417 33.3144 21.9863 33.5658C21.2309 33.1886 20.6014 32.8115 19.846 32.4343C19.846 32.4343 19.846 32.4343 19.7201 32.4343C19.4683 32.3086 19.0906 32.0572 18.8388 31.8058C18.587 31.5543 18.2093 31.4286 17.9575 31.1772C14.3064 28.6628 13.0474 26.0228 12.5438 24.3885C12.4179 23.8856 12.292 23.3828 12.292 22.8799C12.292 22.6285 12.292 22.5027 12.292 22.5027C12.292 21.1199 12.7956 19.737 13.551 18.857C13.6769 18.7313 13.9287 18.4798 14.0546 18.3541C14.0546 18.3541 14.1805 18.2284 14.3064 18.1027C14.5582 17.977 14.6841 17.8512 14.9359 17.7255C14.9359 17.7255 15.0618 17.7255 15.1877 17.5998C15.4395 17.4741 15.6913 17.3484 15.9431 17.3484C15.9431 17.3484 15.9431 17.3484 16.1949 17.3484C16.5726 17.3484 16.8244 17.2227 17.2021 17.2227C17.8316 17.2227 18.587 17.3484 19.2165 17.7255C19.2165 17.7255 19.3424 17.7255 19.4683 17.8512C19.7201 17.8512 19.846 18.1027 20.0978 18.2284C20.0978 18.2284 20.2237 18.2284 20.3496 18.3541C20.6014 18.6055 20.8532 18.857 20.9791 19.1084C21.2309 19.3598 21.6086 19.6113 21.8604 19.6113C22.1122 19.6113 22.6158 19.4856 22.7417 19.1084C22.9935 18.857 23.2453 18.6055 23.3712 18.3541C23.3712 18.3541 23.4971 18.3541 23.623 18.2284C23.7489 18.1027 24.0007 17.977 24.2525 17.8512C24.2525 17.8512 24.3784 17.8512 24.5043 17.7255C25.1338 17.4741 25.7633 17.2227 26.5187 17.2227C27.2741 17.2227 27.1482 17.2227 27.5259 17.3484C27.5259 17.3484 27.5259 17.3484 27.7777 17.3484C28.0295 17.3484 28.2813 17.4741 28.5331 17.5998C28.5331 17.5998 28.659 17.5998 28.7849 17.7255C29.0367 17.8512 29.1626 17.977 29.4144 18.1027C29.4144 18.1027 29.6662 18.2284 29.6662 18.3541C29.7921 18.4798 29.918 18.6055 30.0439 18.857C30.9252 19.8627 31.4288 21.1199 31.4288 22.6285V22.5027Z" fill="#FF828E"/>
</g>
</g>
<defs>
<clipPath id="clip0_518_16512">
<rect width="44" height="60" fill="white"/>
</clipPath>
<clipPath id="clip1_518_16512">
<rect width="19.2627" height="16.9717" fill="white" transform="translate(12.166 16.9707)"/>
</clipPath>
</defs>
</svg>
