<svg width="24" height="24" viewBox="0 0 24 24" fill="none" xmlns="http://www.w3.org/2000/svg">
<path fill-rule="evenodd" clip-rule="evenodd" d="M5.9107 4.03755C6.36079 4.00078 6.94308 4 7.79966 4H8.99966C9.55195 4 9.99966 3.55229 9.99966 3C9.99966 2.44772 9.55195 2 8.99966 2L7.75837 2C6.95339 1.99999 6.28903 1.99998 5.74784 2.04419C5.18574 2.09012 4.66904 2.18868 4.1837 2.43597C3.43105 2.81947 2.81913 3.43139 2.43564 4.18404C2.18835 4.66937 2.08978 5.18608 2.04386 5.74818C1.99964 6.28937 1.99965 6.95372 1.99966 7.75868V16.2413C1.99965 17.0463 1.99964 17.7106 2.04386 18.2518C2.08978 18.8139 2.18835 19.3306 2.43564 19.816C2.81913 20.5686 3.43105 21.1805 4.1837 21.564C4.66904 21.8113 5.18574 21.9099 5.74784 21.9558C6.28903 22 6.95338 22 7.75834 22H8.99966C9.55195 22 9.99966 21.5523 9.99966 21C9.99966 20.4477 9.55195 20 8.99966 20H7.79966C6.94308 20 6.36079 19.9992 5.9107 19.9625C5.47229 19.9266 5.24808 19.8617 5.09168 19.782C4.71536 19.5903 4.4094 19.2843 4.21765 18.908C4.13796 18.7516 4.07304 18.5274 4.03722 18.089C4.00044 17.6389 3.99966 17.0566 3.99966 16.2V7.8C3.99966 6.94342 4.00044 6.36113 4.03722 5.91104C4.07304 5.47262 4.13796 5.24842 4.21765 5.09202C4.4094 4.7157 4.71536 4.40973 5.09168 4.21799C5.24808 4.1383 5.47229 4.07337 5.9107 4.03755Z" fill="white"/>
<path d="M15.293 6.29265C15.6835 5.90212 16.3167 5.90212 16.7072 6.29265L21.7072 11.2926C22.0977 11.6832 22.0977 12.3163 21.7072 12.7069L16.7072 17.7069C16.3167 18.0974 15.6835 18.0974 15.293 17.7069C14.9025 17.3163 14.9025 16.6832 15.293 16.2926L18.5859 12.9998L9.00009 12.9998C8.44781 12.9998 8.00009 12.552 8.00009 11.9998C8.00009 11.4475 8.44781 10.9998 9.00009 10.9998L18.5859 10.9998L15.293 7.70686C14.9025 7.31634 14.9025 6.68317 15.293 6.29265Z" fill="white"/>
</svg>
