<svg width="28" height="28" viewBox="0 0 28 28" fill="none" xmlns="http://www.w3.org/2000/svg">
<g clip-path="url(#clip0_302_7699)">
<path d="M19.4196 13.7049C18.6684 12.4171 17.5416 12.3634 16.844 13.5439C16.1464 14.7244 14.966 14.6707 14.2684 13.3829L12.8733 10.9683C12.122 9.68049 10.9416 9.68049 10.1903 10.9683L7.50742 15.6366C6.7562 16.9244 7.4001 17.9439 8.84888 17.9439H19.2586C20.7074 17.9439 21.3513 16.9244 20.6001 15.6366L19.4733 13.7049H19.4196Z" stroke="#1F5EFF" stroke-width="2" stroke-linecap="round" stroke-linejoin="round"/>
<path d="M21.512 5.81714H6.48761C5.00587 5.81714 3.80469 7.01833 3.80469 8.50007V19.5001C3.80469 20.9818 5.00587 22.183 6.48761 22.183H21.512C22.9937 22.183 24.1949 20.9818 24.1949 19.5001V8.50007C24.1949 7.01833 22.9937 5.81714 21.512 5.81714Z" stroke="#1F5EFF" stroke-width="2" stroke-linecap="round" stroke-linejoin="round"/>
</g>
<defs>
<clipPath id="clip0_302_7699">
<rect width="22" height="17.9756" fill="white" transform="translate(3 5.01221)"/>
</clipPath>
</defs>
</svg>
