<svg width="36" height="36" viewBox="0 0 36 36" fill="none" xmlns="http://www.w3.org/2000/svg">
<path d="M19.0689 19.0032L34.2413 11.6907C28.362 10.7907 22.5206 10.3782 16.6792 11.3532C13.2654 11.9157 9.85163 12.9282 6.3999 13.4907L17.9309 19.0032C18.3103 19.1907 18.7275 19.1907 19.0689 19.0032Z" fill="#2ADA8E"/>
<path d="M34.2793 11.6906L34.7724 11.4656C35.0759 11.3156 35.0759 10.8656 34.7724 10.7156L19.069 3.14063C18.6897 2.95312 18.2724 2.95312 17.931 3.14063L2.22759 10.6781C1.92414 10.8281 1.92414 11.2781 2.22759 11.4281L6.43793 13.4531C9.85172 12.9281 13.2655 11.8781 16.7172 11.3156C22.5586 10.3781 28.4 10.7906 34.2793 11.6906Z" fill="#4CEFA8"/>
<path d="M13.1139 25.6031L7.15877 22.7156C6.77946 22.5281 6.36222 22.5281 6.02084 22.7156L2.26567 24.5156C1.96222 24.6656 1.96222 25.1156 2.26567 25.2656L7.87946 27.9656C8.48636 27.7031 9.09326 27.4031 9.66222 27.1406C10.8002 26.6156 11.9381 26.0906 13.1139 25.6031Z" fill="#53D5F9"/>
<path d="M29.0069 21.1406L34.7724 18.3656C35.0759 18.2156 35.0759 17.7656 34.7724 17.6156L31.0172 15.8156C30.6379 15.6281 30.2207 15.6281 29.8793 15.8156L19.069 20.9906C18.6897 21.1781 18.2724 21.1781 17.931 20.9906L7.15862 15.7781C6.77931 15.5906 6.36207 15.5906 6.02069 15.7781L2.22759 17.6156C1.92414 17.7656 1.92414 18.2156 2.22759 18.3656L14.9345 24.4781C18.2345 23.1281 21.6103 22.0406 25.1379 21.5156C26.4276 21.3281 27.7172 21.2156 29.0069 21.1406Z" fill="#4CEFD4"/>
<path d="M19.0691 32.8406L34.7725 25.2656C35.076 25.1156 35.076 24.6656 34.7725 24.5156L31.0173 22.7156C30.638 22.5281 30.2208 22.5281 29.8794 22.7156L19.0691 27.9281C18.6897 28.1156 18.2725 28.1156 17.9311 27.9281L13.1139 25.6031C11.938 26.0906 10.8001 26.6156 9.66215 27.1781C9.05526 27.4781 8.44836 27.7406 7.87939 28.0031L17.9311 32.8406C18.2725 33.0281 18.7277 33.0281 19.0691 32.8406Z" fill="#24A6F8"/>
<path d="M19.0689 25.9407L28.9689 21.1782C27.6792 21.2532 26.3896 21.3657 25.0999 21.5532C21.5723 22.0782 18.1965 23.2032 14.8965 24.5157L17.893 25.9782C18.2723 26.0907 18.7275 26.0907 19.0689 25.9407Z" fill="#18CACA"/>
</svg>
