<svg width="16" height="16" viewBox="0 0 16 16" fill="none" xmlns="http://www.w3.org/2000/svg">
<path fill-rule="evenodd" clip-rule="evenodd" d="M8.00004 2.66683C5.05452 2.66683 2.66671 5.05464 2.66671 8.00016C2.66671 10.9457 5.05452 13.3335 8.00004 13.3335C10.9456 13.3335 13.3334 10.9457 13.3334 8.00016C13.3334 5.05464 10.9456 2.66683 8.00004 2.66683ZM1.33337 8.00016C1.33337 4.31826 4.31814 1.3335 8.00004 1.3335C11.6819 1.3335 14.6667 4.31826 14.6667 8.00016C14.6667 11.6821 11.6819 14.6668 8.00004 14.6668C4.31814 14.6668 1.33337 11.6821 1.33337 8.00016ZM7.33337 5.60016C7.33337 5.23197 7.63185 4.9335 8.00004 4.9335H8.00604C8.37423 4.9335 8.67271 5.23197 8.67271 5.60016C8.67271 5.96835 8.37423 6.26683 8.00604 6.26683H8.00004C7.63185 6.26683 7.33337 5.96835 7.33337 5.60016ZM8.00004 7.3335C8.36823 7.3335 8.66671 7.63197 8.66671 8.00016V10.4002C8.66671 10.7684 8.36823 11.0668 8.00004 11.0668C7.63185 11.0668 7.33337 10.7684 7.33337 10.4002V8.00016C7.33337 7.63197 7.63185 7.3335 8.00004 7.3335Z" fill="#73757E"/>
</svg>
