<svg width="33" height="30" viewBox="0 0 33 30" fill="none" xmlns="http://www.w3.org/2000/svg">
<g clip-path="url(#clip0_180_1441)">
<path d="M17.069 16.0124L32.2414 8.69994C26.3621 7.79994 20.5207 7.38744 14.6793 8.36244C11.2655 8.92494 7.85175 9.93744 4.40002 10.4999L15.9311 16.0124C16.3104 16.1999 16.7276 16.1999 17.069 16.0124Z" fill="#2ADA8E"/>
<path d="M32.2793 8.69991L32.7724 8.47491C33.0759 8.32491 33.0759 7.87491 32.7724 7.72491L17.069 0.149902C16.6897 -0.0375977 16.2724 -0.0375977 15.931 0.149902L0.227586 7.68741C-0.0758621 7.83741 -0.0758621 8.28741 0.227586 8.43741L4.43793 10.4624C7.85172 9.93741 11.2655 8.88741 14.7172 8.32491C20.5586 7.38741 26.4 7.79991 32.2793 8.69991Z" fill="#4CEFA8"/>
<path d="M11.1138 22.6124L5.15865 19.7249C4.77934 19.5374 4.3621 19.5374 4.02072 19.7249L0.26555 21.5249C-0.0378982 21.6749 -0.0378982 22.1249 0.26555 22.2749L5.87934 24.9749C6.48624 24.7124 7.09313 24.4124 7.6621 24.1499C8.80003 23.6249 9.93796 23.0999 11.1138 22.6124Z" fill="#53D5F9"/>
<path d="M27.0069 18.1499L32.7724 15.3749C33.0759 15.2249 33.0759 14.7749 32.7724 14.6249L29.0172 12.8249C28.6379 12.6374 28.2207 12.6374 27.8793 12.8249L17.069 17.9999C16.6897 18.1874 16.2724 18.1874 15.931 17.9999L5.15862 12.7874C4.77931 12.5999 4.36207 12.5999 4.02069 12.7874L0.227586 14.6249C-0.0758621 14.7749 -0.0758621 15.2249 0.227586 15.3749L12.9345 21.4874C16.2345 20.1374 19.6103 19.0499 23.1379 18.5249C24.4276 18.3374 25.7172 18.2249 27.0069 18.1499Z" fill="#4CEFD4"/>
<path d="M17.0689 29.8498L32.7724 22.2749C33.0758 22.1249 33.0758 21.6749 32.7724 21.5249L29.0172 19.7249C28.6379 19.5374 28.2207 19.5374 27.8793 19.7249L17.0689 24.9374C16.6896 25.1249 16.2724 25.1249 15.931 24.9374L11.1138 22.6124C9.93789 23.0999 8.79996 23.6249 7.66203 24.1874C7.05514 24.4874 6.44824 24.7499 5.87927 25.0124L15.931 29.8498C16.2724 30.0373 16.7276 30.0373 17.0689 29.8498Z" fill="#24A6F8"/>
<path d="M17.069 22.95L26.969 18.1875C25.6794 18.2625 24.3897 18.375 23.1001 18.5625C19.5725 19.0875 16.1966 20.2125 12.8966 21.525L15.8932 22.9875C16.2725 23.1 16.7276 23.1 17.069 22.95Z" fill="#18CACA"/>
</g>
<defs>
<clipPath id="clip0_180_1441">
<rect width="33" height="30" fill="white"/>
</clipPath>
</defs>
</svg>
