<svg width="18" height="18" viewBox="0 0 18 18" fill="none" xmlns="http://www.w3.org/2000/svg">
<g clip-path="url(#clip0_689_14211)">
<path fill-rule="evenodd" clip-rule="evenodd" d="M8.64579 1.74824C8.87771 1.68544 9.12216 1.68544 9.35408 1.74824C9.62331 1.82113 9.84998 1.99909 10.0309 2.14113C10.0482 2.15469 10.065 2.16792 10.0815 2.1807L14.6767 5.75481C14.6944 5.76856 14.712 5.78219 14.7294 5.7957C14.9846 5.99373 15.2094 6.1682 15.3769 6.3947C15.5239 6.59348 15.6334 6.81741 15.7001 7.05549C15.776 7.32679 15.7757 7.61137 15.7754 7.93438C15.7753 7.95642 15.7753 7.97863 15.7753 8.00103V12.9291C15.7753 13.2863 15.7753 13.5944 15.7546 13.8482C15.7327 14.116 15.6844 14.3824 15.5538 14.6388C15.3589 15.0213 15.048 15.3322 14.6655 15.5271C14.4091 15.6577 14.1427 15.706 13.8748 15.7279C13.6211 15.7487 13.3129 15.7487 12.9558 15.7486H5.04408C4.68693 15.7487 4.37881 15.7487 4.12503 15.7279C3.85717 15.706 3.59075 15.6577 3.33438 15.5271C2.95192 15.3322 2.64097 15.0213 2.44609 14.6388C2.31547 14.3824 2.26715 14.116 2.24526 13.8482C2.22453 13.5944 2.22454 13.2863 2.22455 12.9291L2.22455 8.00103C2.22455 7.97863 2.22453 7.95641 2.2245 7.93437C2.22415 7.61136 2.22385 7.32679 2.29979 7.05549C2.36643 6.81741 2.47595 6.59347 2.62297 6.3947C2.7905 6.16819 3.01532 5.99372 3.2705 5.79569C3.28791 5.78218 3.30546 5.76856 3.32315 5.7548L7.91842 2.1807C7.93485 2.16792 7.95171 2.15469 7.96898 2.14113C8.14989 1.99909 8.37656 1.82113 8.64579 1.74824ZM8.99499 3.06617C8.94407 3.10019 8.87699 3.15184 8.75036 3.25034L4.15508 6.82444C3.81762 7.08691 3.75478 7.14324 3.71244 7.20049C3.66343 7.26675 3.62692 7.34139 3.60471 7.42076C3.58551 7.48932 3.57963 7.57351 3.57963 8.00103V12.903C3.57963 13.2936 3.58016 13.5458 3.59584 13.7378C3.61088 13.9219 3.63641 13.9901 3.65348 14.0236C3.71843 14.1511 3.82208 14.2548 3.94957 14.3197C3.98307 14.3368 4.05131 14.3623 4.23537 14.3774C4.42735 14.393 4.67958 14.3936 5.07021 14.3936H12.9297C13.3203 14.3936 13.5725 14.393 13.7645 14.3774C13.9486 14.3623 14.0168 14.3368 14.0503 14.3197C14.1778 14.2548 14.2814 14.1511 14.3464 14.0236C14.3635 13.9901 14.389 13.9219 14.404 13.7378C14.4197 13.5458 14.4202 13.2936 14.4202 12.903V8.00103C14.4202 7.57352 14.4144 7.48932 14.3952 7.42076C14.373 7.34139 14.3364 7.26675 14.2874 7.20049C14.2451 7.14324 14.1823 7.08691 13.8448 6.82444L9.24952 3.25034C9.12288 3.15184 9.0558 3.10019 9.00488 3.06617C9.00316 3.06501 9.00151 3.06392 8.99994 3.06289C8.99836 3.06392 8.99672 3.06501 8.99499 3.06617ZM8.99994 8.97343C9.37413 8.97343 9.67747 9.27678 9.67747 9.65097V13.0387C9.67747 13.4129 9.37413 13.7162 8.99994 13.7162C8.62574 13.7162 8.3224 13.4129 8.3224 13.0387V9.65097C8.3224 9.27678 8.62574 8.97343 8.99994 8.97343Z" fill="#73757E"/>
</g>
<defs>
<clipPath id="clip0_689_14211">
<rect width="18" height="18" fill="white"/>
</clipPath>
</defs>
</svg>
