<svg width="28" height="28" viewBox="0 0 28 28" fill="none" xmlns="http://www.w3.org/2000/svg">
<path d="M8.65576 22.9651C11.4002 19.8451 12.758 15.5695 12.0358 11.2073" stroke="#2C333B" stroke-width="2" stroke-linecap="round" stroke-linejoin="round"/>
<path d="M9.03128 13.2007C9.11795 16.4362 7.78906 19.4985 5.50684 21.6362" stroke="#2C333B" stroke-width="2" stroke-linecap="round" stroke-linejoin="round"/>
<path d="M15.0403 10.0808C14.6936 8.34746 13.0181 7.24968 11.2847 7.59634C9.98474 7.85634 9.06029 8.86746 8.80029 10.0808" stroke="#2C333B" stroke-width="2" stroke-linecap="round" stroke-linejoin="round"/>
<path d="M5.33324 16.3784C4.84213 17.6495 4.00436 18.8051 2.96436 19.6718" stroke="#2C333B" stroke-width="2" stroke-linecap="round" stroke-linejoin="round"/>
<path d="M18.1602 9.44508C17.4669 6.0073 14.1158 3.78286 10.678 4.47619C7.24021 5.16953 5.01577 8.52064 5.7091 11.9584C5.79577 12.334 5.82466 12.7095 5.85355 13.0562" stroke="#2C333B" stroke-width="2" stroke-linecap="round" stroke-linejoin="round"/>
<path d="M2.41556 11.0627C2.41556 11.5539 2.50222 12.0739 2.58889 12.565C2.93556 14.3272 2.27111 16.0605 1 17.1583" stroke="#2C333B" stroke-width="2" stroke-linecap="round" stroke-linejoin="round"/>
<path d="M21.4827 10.0227C21.4249 9.61823 21.3383 9.21379 21.2805 8.78046C20.2405 3.63823 15.2138 0.287123 10.0427 1.35601C6.63381 2.04934 4.03381 4.47601 2.93604 7.50934" stroke="#2C333B" stroke-width="2" stroke-linecap="round" stroke-linejoin="round"/>
<path d="M16.8201 14.9985H25.3369C26.2594 14.9985 27.0007 15.7398 27.0007 16.6624V25.1792C27.0007 26.1017 26.2594 26.843 25.3369 26.843H16.8201C15.8976 26.843 15.1562 26.1017 15.1562 25.1792V16.6624C15.1562 15.7398 15.8976 14.9985 16.8201 14.9985Z" stroke="#2C333B" stroke-width="2" stroke-linecap="round" stroke-linejoin="round"/>
<path d="M18.4341 19.2485V19.578" stroke="#2C333B" stroke-width="1.5" stroke-linecap="round" stroke-linejoin="round"/>
<path d="M23.7388 19.2485V19.578" stroke="#2C333B" stroke-width="1.5" stroke-linecap="round" stroke-linejoin="round"/>
<path d="M21.0039 20.0063C21.0039 20.0063 20.971 20.5335 20.4438 21.0442L21.0369 21.5549" stroke="#2C333B" stroke-width="1.5" stroke-linecap="round" stroke-linejoin="round"/>
<path d="M19.8179 23.1363C20.0979 23.3505 20.6086 23.4988 21.1852 23.4988C21.7617 23.4988 22.2889 23.3505 22.5689 23.1199" stroke="#2C333B" stroke-width="1.5" stroke-linecap="round" stroke-linejoin="round"/>
</svg>
