<svg width="60" height="60" viewBox="0 0 60 60" fill="none" xmlns="http://www.w3.org/2000/svg">
<path d="M54.9999 23.8643H47.0342V44.2245H54.9999V23.8643Z" stroke="#2F3534" stroke-width="2" stroke-linecap="round" stroke-linejoin="round"/>
<path d="M24.6885 18.1055H47.0339V48.7486C47.0339 51.3193 44.8614 53.4788 42.2752 53.4788H29.4472C26.8609 53.4788 24.6885 51.3193 24.6885 48.7486V18.1055Z" fill="white" stroke="#2F3534" stroke-width="2" stroke-linecap="round" stroke-linejoin="round"/>
<path d="M42.1729 23.4531V47.5152C42.1729 47.8237 41.966 48.0293 41.6557 48.0293H29.9657C29.6553 48.0293 29.4484 47.8237 29.4484 47.5152V23.4531H42.2764H42.1729Z" fill="#D5ECFF"/>
<path d="M45.793 9.98205C44.1378 9.67356 42.6895 10.2905 41.655 11.3188C40.9308 8.85093 38.5515 7 35.8617 7C33.172 7 30.7926 8.7481 30.0685 11.3188C29.034 10.2905 27.5857 9.67356 25.9304 9.98205C24.2752 10.2905 22.5166 11.7301 22.1027 13.5811C21.482 16.5631 23.758 19.2367 26.6546 19.2367C29.5512 19.2367 27.6891 19.2367 28.2064 18.9282C29.965 18.3112 31.8271 18.1056 33.5858 18.8254C35.3445 19.5452 35.0341 19.2367 35.7583 19.2367C36.4824 19.2367 37.3101 19.1339 37.9308 18.8254C39.6894 18.1056 41.5515 18.3112 43.3102 18.9282C45.0689 19.5452 44.3447 19.2367 44.862 19.2367C47.7586 19.2367 50.0345 16.5631 49.4138 13.5811C48.7931 10.599 47.4483 10.2905 45.5861 9.98205H45.793Z" fill="white" stroke="#2F3534" stroke-width="2" stroke-linecap="round" stroke-linejoin="round"/>
<path d="M13.2174 28.8409L4.49801 43.875C3.06187 46.3295 4.90833 49.5 7.7806 49.5H25.2194C28.0917 49.5 29.9381 46.4318 28.502 43.875L19.7826 28.8409C18.3465 26.3864 14.7561 26.3864 13.32 28.8409H13.2174Z" fill="#FF828E" stroke="#FF828E" stroke-width="2" stroke-linecap="round" stroke-linejoin="round"/>
<path d="M16.3975 34.7725V40.0906" stroke="#2F3534" stroke-width="2" stroke-linecap="round" stroke-linejoin="round"/>
<path d="M16.5 43.6709V44.2845" stroke="#2F3534" stroke-width="2" stroke-linecap="round" stroke-linejoin="round"/>
</svg>
