<svg width="28" height="28" viewBox="0 0 28 28" fill="none" xmlns="http://www.w3.org/2000/svg">
<g clip-path="url(#clip0_302_7473)">
<path d="M19.4196 13.7049C18.6684 12.4171 17.5416 12.3634 16.844 13.5439C16.1464 14.7244 14.966 14.6707 14.2684 13.3829L12.8733 10.9683C12.122 9.68049 10.9416 9.68049 10.1903 10.9683L7.50742 15.6366C6.7562 16.9244 7.4001 17.9439 8.84888 17.9439H19.2586C20.7074 17.9439 21.3513 16.9244 20.6001 15.6366L19.4733 13.7049H19.4196Z" stroke="#B5B7BA" stroke-width="2" stroke-linecap="round" stroke-linejoin="round"/>
<path d="M21.5122 5.81702H6.48786C5.00612 5.81702 3.80493 7.0182 3.80493 8.49994V19.4999C3.80493 20.9817 5.00612 22.1829 6.48786 22.1829H21.5122C22.994 22.1829 24.1952 20.9817 24.1952 19.4999V8.49994C24.1952 7.0182 22.994 5.81702 21.5122 5.81702Z" stroke="#B5B7BA" stroke-width="2" stroke-linecap="round" stroke-linejoin="round"/>
</g>
<defs>
<clipPath id="clip0_302_7473">
<rect width="22" height="17.9756" fill="white" transform="translate(3 5.01221)"/>
</clipPath>
</defs>
</svg>
