<svg width="24" height="24" viewBox="0 0 24 24" fill="none" xmlns="http://www.w3.org/2000/svg">
<path fill-rule="evenodd" clip-rule="evenodd" d="M4.21443 12.6113C5.12901 14.1387 7.85134 18 12 18C16.1487 18 18.871 14.1387 19.7856 12.6113C19.8962 12.4265 19.9516 12.334 19.9825 12.1915C20.0058 12.0844 20.0058 11.9156 19.9825 11.8085C19.9516 11.666 19.8962 11.5735 19.7856 11.3887C18.871 9.86132 16.1487 6 12 6C7.85134 6 5.12902 9.86129 4.21444 11.3887C4.10377 11.5735 4.04843 11.666 4.01745 11.8085C3.99418 11.9156 3.99418 12.0844 4.01745 12.1915C4.04843 12.334 4.10376 12.4265 4.21443 12.6113ZM11.9999 15.0768C13.6363 15.0768 14.9628 13.6992 14.9628 11.9998C14.9628 10.3005 13.6363 8.92293 11.9999 8.92293C10.3635 8.92293 9.03689 10.3005 9.03689 11.9998C9.03689 13.6992 10.3635 15.0768 11.9999 15.0768Z" fill="#2C333B"/>
<path fill-rule="evenodd" clip-rule="evenodd" d="M11.9999 11.2306C11.6957 11.2306 11.4327 11.4212 11.3187 11.6967C11.1572 12.087 10.7215 12.2675 10.3457 12.0998C9.96979 11.9321 9.79601 11.4797 9.95752 11.0893C10.2969 10.269 11.0827 9.69216 11.9999 9.69216C12.409 9.69216 12.7406 10.0366 12.7406 10.4614C12.7406 10.8862 12.409 11.2306 11.9999 11.2306Z" fill="#2C333B"/>
</svg>
