<svg width="28" height="28" viewBox="0 0 28 28" fill="none" xmlns="http://www.w3.org/2000/svg">
<path fill-rule="evenodd" clip-rule="evenodd" d="M8.65088 5.51321C10.0729 4.11518 11.9974 3.33325 14 3.33325C16.0026 3.33325 17.927 4.11518 19.349 5.51321C20.7717 6.91189 21.5747 8.81317 21.5747 10.7999C21.5747 13.8335 22.3496 15.837 23.1564 17.1117L23.1702 17.1335C23.5507 17.7348 23.8533 18.2129 24.0578 18.5616C24.1602 18.7363 24.2555 18.9079 24.3268 19.0624C24.3624 19.1394 24.4034 19.2364 24.4358 19.3433C24.4624 19.4311 24.5154 19.6257 24.4956 19.8644C24.483 20.0148 24.4511 20.2827 24.2945 20.56C24.1387 20.8357 23.9268 21.0013 23.8063 21.0892C23.5202 21.2978 23.1954 21.3448 23.0917 21.3599L23.0853 21.3608C22.9235 21.3844 22.7415 21.3959 22.5604 21.4028C22.2008 21.4166 21.7039 21.4166 21.0889 21.4166H6.91102C6.29606 21.4166 5.79911 21.4166 5.43951 21.4028C5.25843 21.3959 5.07638 21.3844 4.91464 21.3608L4.90822 21.3599C4.80446 21.3448 4.47971 21.2978 4.19365 21.0892C4.07309 21.0013 3.86124 20.8357 3.70546 20.56C3.54878 20.2827 3.51687 20.0148 3.50435 19.8644C3.48449 19.6257 3.53751 19.4311 3.5641 19.3433C3.59649 19.2364 3.63749 19.1394 3.67308 19.0624C3.74442 18.9079 3.8397 18.7363 3.94213 18.5616C4.14656 18.2129 4.44913 17.7348 4.82964 17.1336L4.84355 17.1117C5.6503 15.837 6.42526 13.8335 6.42526 10.7999C6.42526 8.81317 7.22821 6.91189 8.65088 5.51321ZM14 5.66659C12.6035 5.66659 11.2682 6.21215 10.2867 7.17709C9.3059 8.14136 8.75859 9.44494 8.75859 10.7999C8.75859 14.2557 7.86846 16.6953 6.81517 18.3595C6.64117 18.6345 6.4895 18.8741 6.35871 19.0828C6.53197 19.0832 6.72481 19.0833 6.93922 19.0833H21.0607C21.2751 19.0833 21.4679 19.0832 21.6412 19.0828C21.5104 18.8741 21.3587 18.6345 21.1847 18.3595C20.1315 16.6953 19.2413 14.2557 19.2413 10.7999C19.2413 9.44494 18.694 8.14136 17.7132 7.17709C16.7317 6.21215 15.3964 5.66659 14 5.66659ZM10.293 23.6853C10.7153 23.1986 11.4522 23.1465 11.9388 23.5688C12.4861 24.0437 13.2058 24.3333 14 24.3333C14.7941 24.3333 15.5138 24.0437 16.0611 23.5688C16.5477 23.1465 17.2846 23.1986 17.7069 23.6853C18.1292 24.172 18.077 24.9088 17.5903 25.3311C16.6315 26.1631 15.3727 26.6666 14 26.6666C12.6272 26.6666 11.3685 26.1631 10.4096 25.3311C9.92292 24.9088 9.87074 24.172 10.293 23.6853Z" fill="#B5B7BA"/>
</svg>
