<svg width="134" height="32" viewBox="0 0 134 32" fill="none" xmlns="http://www.w3.org/2000/svg">
<g clip-path="url(#clip0_196_1875)">
<path d="M51.5679 6.53675H49.2735V8.09573H51.5679V17.1487H53.8622V2.68034H51.5679V6.53675Z" fill="#6D6F71"/>
<path d="M47.1158 4.40342C46.9246 3.41881 46.1325 2.68034 45.1492 2.68034H42.9095L39.9323 14.0034H42.2267L44.7941 4.23932H44.8214L47.3889 14.0034H49.6832L49.1097 11.8154L47.1158 4.40342Z" fill="#6D6F71"/>
<path d="M134 6.53675H131.706V2.68034H129.411V17.1487H131.706V8.09573H134V6.53675Z" fill="#6D6F71"/>
<path d="M80.9026 8.56068H78.6082V14.4684H76.8875V8.56068H74.5931V14.4684H72.1622V16.0547H85.7917V14.4684H80.9026V8.56068Z" fill="#6D6F71"/>
<path d="M95.843 8.77949H100.404V7.19316H92.0465C91.6368 7.19316 91.4729 6.89231 91.4456 6.5094H100.404V4.92308H91.4183V4.23932H100.404V2.68034H89.1512V6.61881C89.1512 7.79487 90.0526 8.77949 91.1724 8.77949H93.576V9.7094H87.7036V11.2957H101.715V9.7094H95.843V8.77949Z" fill="#6D6F71"/>
<path d="M94.7232 11.6786C91.5002 11.6786 89.4244 13.1829 89.4244 15.0427C89.4244 16.9026 91.5002 18.4068 94.7232 18.4068C97.9735 18.4068 100.022 16.9026 100.022 15.0427C100.022 13.1829 97.9462 11.6786 94.7232 11.6786ZM94.7232 16.8479C92.8659 16.8479 91.6914 16.0547 91.6914 15.0701C91.6914 14.0855 92.8659 13.2923 94.7232 13.2923C96.5805 13.2923 97.755 14.0855 97.755 15.0701C97.7277 16.0274 96.5532 16.8479 94.7232 16.8479Z" fill="#6D6F71"/>
<path d="M110.347 6.89232H108.079V9.68206H103.409V11.2684H116.82V9.68206H110.347V6.89232Z" fill="#6D6F71"/>
<path d="M110.101 11.6786C106.85 11.6786 104.802 13.1829 104.802 15.0427C104.802 16.9026 106.878 18.4068 110.101 18.4068C113.351 18.4068 115.4 16.9026 115.4 15.0427C115.427 13.1829 113.351 11.6786 110.101 11.6786ZM110.101 16.8479C108.243 16.8479 107.069 16.0547 107.069 15.0701C107.069 14.0855 108.243 13.2923 110.101 13.2923C111.958 13.2923 113.132 14.0855 113.132 15.0701C113.132 16.0274 111.958 16.8479 110.101 16.8479Z" fill="#6D6F71"/>
<path d="M56.5116 10.1197H62.3021V11.0496H57.4676V12.6359H67.1092V13.3197H57.4676V14.988C57.4676 16.1641 58.3689 17.1487 59.4888 17.1487H69.4036V15.5624H60.3355C59.9258 15.5624 59.7892 15.2615 59.7619 14.8786H69.4036V11.0496H64.5964V10.1197H70.3869V8.53334H56.5116V10.1197Z" fill="#6D6F71"/>
<path d="M63.4492 8.15043C66.6995 8.15043 68.7481 6.64616 68.7481 4.78633C68.7481 2.9265 66.6722 1.42223 63.4492 1.42223C60.2262 1.42223 58.1504 2.9265 58.1504 4.78633C58.1504 6.64616 60.2262 8.15043 63.4492 8.15043ZM63.4492 2.9812C65.3066 2.9812 66.481 3.77436 66.481 4.75898C66.481 5.74359 65.3066 6.56411 63.4492 6.56411C61.5919 6.56411 60.4174 5.77094 60.4174 4.75898C60.4174 3.77436 61.6192 2.9812 63.4492 2.9812Z" fill="#6D6F71"/>
<path d="M81.7766 4.26667C82.2409 4.26667 82.6233 4.67692 82.6233 5.16923V12.8H84.9177V4.84103C84.9177 3.66496 84.0163 2.68034 82.8965 2.68034H73.2002V4.26667H81.7766Z" fill="#6D6F71"/>
<path d="M112.695 4.26667C113.16 4.26667 113.542 4.67692 113.542 5.16923V8.94359H115.809V4.84103C115.809 3.66496 114.908 2.68034 113.815 2.68034H104.392V4.26667H112.695Z" fill="#6D6F71"/>
<path d="M123.675 2.68034H121.436L118.459 14.0034H120.753L123.32 4.23932H123.348L125.915 14.0034H128.21L125.697 4.43077C125.451 3.44616 124.631 2.68034 123.675 2.68034Z" fill="#6D6F71"/>
<path d="M55.5283 25.518C55.3918 25.4359 55.2825 25.3812 55.1459 25.2992L54.2173 24.8615C54.1353 24.8068 54.0534 24.7795 53.9715 24.7248C53.3433 24.3966 52.9609 24.1504 52.9609 23.6855C52.9609 22.8376 53.8622 22.7556 54.2446 22.7556C55.2552 22.8103 56.1019 23.0838 56.5389 23.3026L56.7574 23.412V21.7162L56.4843 21.6342C55.9107 21.4701 55.1459 21.2786 54.3539 21.2786C52.3873 21.2786 51.2128 22.2359 51.2128 23.7949C51.2128 25.1898 52.7424 25.9556 53.8349 26.4752L54.3265 26.7214C54.9547 27.0222 55.5556 27.3231 55.5556 28.0889C55.5556 29.1009 54.5177 29.2376 53.8895 29.2376C52.8516 29.2376 52.1141 28.9368 51.6771 28.7727C51.6225 28.7453 51.5679 28.718 51.5132 28.718L51.3221 28.6359V30.3043L51.5132 30.359C52.1688 30.5231 53.0155 30.7419 53.8076 30.7419C56.1019 30.7419 57.3583 29.7573 57.3583 27.9521C57.2764 26.4479 56.3204 25.9282 55.5283 25.518Z" fill="#6D6F71"/>
<path d="M61.51 23.9043C59.5161 23.9043 58.287 25.1624 58.287 27.159C58.287 28.3351 58.7786 29.3744 59.5707 29.9761C60.1443 30.4137 61.1003 30.6872 62.0563 30.6872C62.821 30.6872 63.5312 30.5231 64.0501 30.1949L64.1321 30.1402V28.8L63.9136 28.9368C63.3673 29.2376 62.6298 29.347 62.4386 29.347C61.073 29.347 60.2536 28.8274 60.0077 27.788H64.3506V26.8308C64.296 25.0803 63.2034 23.9043 61.51 23.9043ZM61.4827 25.2718C62.2748 25.2718 62.6571 25.8462 62.7118 26.4752H59.9531C60.117 25.7094 60.6633 25.2718 61.4827 25.2718Z" fill="#6D6F71"/>
<path d="M68.6661 23.9316C66.7269 23.9316 65.4704 25.2718 65.4704 27.3504C65.4704 29.4291 66.6996 30.7145 68.6934 30.7145C70.6873 30.7145 71.9164 29.4291 71.9164 27.3231C71.9164 25.2444 70.6873 23.9316 68.6661 23.9316ZM68.6661 25.2991C70.1137 25.2991 70.2776 26.7214 70.2776 27.3504C70.2776 27.9521 70.1137 29.3744 68.7208 29.3744C67.2185 29.3744 67.1093 27.8427 67.1093 27.3778C67.0819 26.8581 67.2185 25.2991 68.6661 25.2991Z" fill="#6D6F71"/>
<path d="M77.2152 26.8034C77.1879 27.1316 77.1606 27.3778 77.1333 27.6513C76.9967 28.253 76.6144 29.265 75.5764 29.265C74.7843 29.265 74.6751 28.6906 74.6751 28.0615V24.041H73.1182V28.4991C73.1182 29.7299 74.0742 30.6872 75.276 30.6872C76.3412 30.6872 76.9148 30.2222 77.2426 29.7026V30.5504H78.7721V24.041H77.2152V26.8034Z" fill="#6D6F71"/>
<path d="M82.0497 21.4154H80.4382V30.6051H82.0497V21.4154Z" fill="#6D6F71"/>
<path d="M91.9645 28.3077L89.6702 21.4154H87.5671V30.5778H89.1239V24.3419L91.1998 30.5778H92.6747L94.7505 24.3692V30.5778H96.3074V21.4154H94.2042L91.9645 28.3077Z" fill="#6D6F71"/>
<path d="M100.869 23.9043C98.8748 23.9043 97.6457 25.1624 97.6457 27.159C97.6457 28.3351 98.1374 29.3744 98.9295 29.9761C99.5304 30.4137 100.459 30.6872 101.415 30.6872C102.18 30.6872 102.89 30.5231 103.436 30.1949L103.518 30.1402V28.8L103.3 28.9368C102.753 29.2376 102.016 29.347 101.825 29.347C100.459 29.347 99.6396 28.8274 99.3938 27.788H103.737V26.8308C103.655 25.0803 102.535 23.9043 100.869 23.9043ZM100.814 25.2718C101.606 25.2718 101.989 25.8462 102.043 26.4752H99.2845C99.4757 25.7094 100.022 25.2718 100.814 25.2718Z" fill="#6D6F71"/>
<path d="M107.342 21.853L105.731 22.8376V24.0684H104.665V25.4359H105.731V28.7453C105.731 30.0581 106.441 30.7145 107.861 30.7145C108.134 30.7145 108.435 30.7145 108.954 30.6325L109.09 30.6051V29.1009L108.899 29.1556C108.517 29.265 108.298 29.2923 108.08 29.2923C107.424 29.2923 107.369 28.8821 107.369 28.253V25.4633H109.145V24.0957H107.342V21.853Z" fill="#6D6F71"/>
<path d="M112.805 24.4513C112.614 24.588 112.45 24.7521 112.313 24.9983V24.0684H110.702V30.6051H112.313V27.9248C112.34 27.4598 112.395 27.159 112.45 26.9128C112.723 25.7915 113.87 25.5453 114.771 25.5453H114.935V23.959H114.771C113.761 23.9316 113.351 24.0957 112.805 24.4513Z" fill="#6D6F71"/>
<path d="M118.759 23.9316C116.82 23.9316 115.563 25.2718 115.563 27.3504C115.563 29.4291 116.792 30.7145 118.786 30.7145C120.78 30.7145 122.009 29.4291 122.009 27.3231C122.009 25.2444 120.753 23.9316 118.759 23.9316ZM118.759 25.2991C120.207 25.2991 120.371 26.7214 120.371 27.3504C120.371 27.9521 120.207 29.3744 118.814 29.3744C117.311 29.3744 117.202 27.8427 117.202 27.3778C117.175 26.8581 117.284 25.2991 118.759 25.2991Z" fill="#6D6F71"/>
<path d="M8.03017 15.0974L8.4945 13.8393C9.7236 10.3111 12.0999 6.81026 17.2348 6.81026H30.0722L28.925 9.95556H18.7644C16.6612 9.95556 15.5414 11.1043 14.5308 13.1829H34.2238C32.7762 5.68889 25.7293 0 17.2348 0C7.72972 0 0 7.16581 0 16C0 16.3009 0 16.5744 0.0273135 16.8752H26.4395L25.9751 18.1333C24.746 21.6615 22.3697 25.1624 17.2348 25.1624H4.39747L5.54464 22.0171H15.7053C17.8084 22.0171 18.9282 20.8684 19.9388 18.7897H0.273135C1.69344 26.2838 8.74032 32 17.2348 32C26.7672 32 34.4696 24.8342 34.4696 16C34.4696 15.6991 34.4696 15.3983 34.4423 15.0974H8.03017Z" fill="#17288B"/>
</g>
<defs>
<clipPath id="clip0_196_1875">
<rect width="134" height="32" fill="white"/>
</clipPath>
</defs>
</svg>
