<svg width="36" height="36" viewBox="0 0 36 36" fill="none" xmlns="http://www.w3.org/2000/svg">
<g clip-path="url(#clip0_297_2224)">
<path d="M30.4784 25.4196C30.2917 25.4196 30.1424 25.3823 29.9931 25.2703C29.5451 25.009 29.3958 24.4117 29.6944 23.9638C30.8517 22.0973 31.4489 20.0068 31.4489 17.879C31.4489 15.7512 30.8517 13.6234 29.6944 11.7943C29.4331 11.3463 29.5451 10.749 29.9931 10.4877C30.441 10.2264 31.0383 10.3384 31.2996 10.7863C32.6435 12.9515 33.3528 15.3779 33.3528 17.879C33.3528 20.3801 32.6435 22.8439 31.2996 24.9717C31.113 25.2703 30.777 25.4196 30.4784 25.4196Z" fill="#D7E8F9"/>
<path d="M25.999 23.6652C25.8124 23.6652 25.6257 23.6278 25.4391 23.4785C25.0285 23.1799 24.9165 22.5826 25.2151 22.172C26.111 20.9028 26.559 19.4096 26.559 17.879C26.559 16.3112 26.111 14.818 25.2151 13.5861C24.9165 13.1755 25.0285 12.5782 25.4391 12.2796C25.8497 11.9809 26.447 12.0929 26.7456 12.5035C27.8655 14.1087 28.4255 15.9379 28.4255 17.9164C28.4255 19.8575 27.8282 21.724 26.7456 23.2919C26.5963 23.5158 26.2977 23.6652 25.999 23.6652Z" fill="#D7E8F9"/>
<path d="M-0.542969 24.0008C-0.0203512 24.822 0.838235 25.4193 1.88347 25.4193H4.34724C5.8031 25.4193 7.22163 25.718 8.56551 26.3152L17.9353 30.4962C19.8764 31.3548 22.0416 29.9362 22.0416 27.8084V21.2757C19.8764 20.6784 17.7113 20.2305 15.4715 20.2678C9.98404 20.3051 4.83253 23.0302 -0.542969 24.0008Z" fill="#4B3BCF"/>
<path d="M15.2102 10.9355C9.79733 12.1674 5.35508 16.2363 -0.057745 17.4682C-0.393713 17.5429 -0.692352 17.5802 -1.02832 17.6175V22.4704C-1.02832 23.0303 -0.804341 23.553 -0.543033 24.0009C4.79513 23.0303 9.98398 20.3053 15.4715 20.2306C17.7113 20.1933 19.8764 20.6412 22.0415 21.2385V10.5995C19.7644 10.4502 17.4499 10.4502 15.2102 10.9355Z" fill="#7C68F2"/>
<path d="M17.9352 5.26156L8.56544 9.40517C7.2589 10.0024 5.80304 10.3011 4.34717 10.3011H1.92074C0.315553 10.3011 -1.02832 11.6076 -1.02832 13.2501V17.6551C-0.692352 17.6177 -0.393713 17.5804 -0.057745 17.5057C5.35508 16.2365 9.79733 12.1676 15.2102 10.9357C17.4499 10.4131 19.7644 10.4131 22.0415 10.5997V7.94931C22.0415 5.82151 19.8764 4.40298 17.9352 5.26156Z" fill="#AA9CFF"/>
</g>
<defs>
<clipPath id="clip0_297_2224">
<rect width="34.3434" height="25.7576" fill="white" transform="translate(0.828125 5)"/>
</clipPath>
</defs>
</svg>
