<svg width="126" height="20" viewBox="0 0 126 20" fill="none" xmlns="http://www.w3.org/2000/svg">
<g clip-path="url(#clip0_176_674)">
<path d="M104.408 16.6611H102.039V4.95785C102.276 4.92413 102.513 4.8904 102.817 4.92413C103.088 4.92413 103.359 4.99158 103.596 5.09276C103.832 5.19394 104.035 5.36257 104.205 5.56494C104.374 5.7673 104.442 6.03711 104.442 6.37438V16.6611H104.408Z" fill="#002645"/>
<path d="M17.2264 0.371002H14.9251C14.4851 0.371002 14.079 0.404729 13.7067 0.539636C13.3683 0.674543 12.996 0.876904 12.7929 1.55144C12.5898 2.19225 9.95004 12.0068 9.57776 12.9174L9.51007 13.1197L9.44239 12.9174C9.07011 12.0405 6.4303 2.22598 6.22724 1.55144C6.02418 0.876904 5.65189 0.674543 5.31346 0.539636C4.97502 0.404729 4.5689 0.371002 4.09509 0.371002H1.75987L0 16.6611H2.74134L4.39968 3.74368C4.77196 4.85667 7.85173 15.4806 8.25786 16.6611H10.6946C11.1007 15.4806 14.1805 4.85667 14.5528 3.74368L16.245 16.6611H18.9863L17.2264 0.371002Z" fill="#002645"/>
<path d="M41.357 6.34062C41.5262 5.83472 41.7631 5.46373 42.0677 5.26137C42.3723 5.05901 42.7446 4.95782 43.1845 4.95782H44.3014L39.9355 16.6948H37.3973L32.8961 4.95782H34.216C34.5544 4.95782 34.859 5.02528 35.1297 5.12646C35.4005 5.22764 35.6374 5.49745 35.8405 5.90218L38.7172 13.828L41.357 6.34062Z" fill="#002645"/>
<path d="M53.5407 15.0422C53.5407 15.2782 53.5407 15.4806 53.5068 15.6492C53.473 15.8179 53.3715 15.9865 53.2022 16.0877C52.6607 16.4587 52.0854 16.6948 51.5101 16.7622C50.9009 16.8297 50.3255 16.8971 49.784 16.8971C47.8211 16.8971 46.332 16.3238 45.3167 15.2108C44.3014 14.0978 43.7937 12.5801 43.7937 10.6914C43.7937 9.84822 43.9291 9.03878 44.166 8.29679C44.4367 7.55479 44.809 6.94771 45.2828 6.40808C45.7566 5.86845 46.332 5.46373 47.0089 5.16019C47.6857 4.85665 48.4303 4.72174 49.2764 4.72174C50.224 4.72174 51.0363 4.89038 51.7131 5.26137C52.39 5.63237 52.9315 6.10454 53.3376 6.71162C53.7437 7.35243 54.0483 8.0607 54.2514 8.90387C54.4545 9.74704 54.556 10.6239 54.556 11.602H46.1966C46.2643 12.5801 46.6366 13.3221 47.2796 13.8954C47.9226 14.4688 48.7687 14.7386 49.8179 14.7386C50.3932 14.7386 51.0024 14.6374 51.6116 14.4351C52.2208 14.2327 52.7961 13.9629 53.4053 13.6256L53.5407 15.0422ZM52.1192 9.5784C52.0177 8.87014 51.747 8.22933 51.2393 7.6897C50.7317 7.15007 50.0886 6.88026 49.2764 6.88026C48.3626 6.88026 47.6857 7.1838 47.1781 7.75716C46.6704 8.33051 46.3658 8.93759 46.2305 9.5784H52.1192Z" fill="#002645"/>
<path d="M64.303 15.0422C64.5738 15.0422 64.8107 15.0084 64.9799 14.9747C65.1491 14.9073 65.3183 14.8398 65.4875 14.7386L65.5552 15.8516C65.5552 16.0202 65.5214 16.1889 65.4537 16.3575C65.386 16.5261 65.2506 16.6273 65.0476 16.6948C64.9122 16.7285 64.743 16.7622 64.5738 16.796C64.4045 16.8297 64.2353 16.8297 64.0661 16.8297C63.22 16.8297 62.5093 16.5936 61.9339 16.1551C61.3586 15.683 61.0879 14.9747 61.0879 13.9966V9.03879H59.0911V7.31872H61.0879V4.62057H62.9831V7.31872H65.4537C65.4537 7.52108 65.4537 7.72344 65.4537 7.9258C65.4537 8.12816 65.386 8.33053 65.3183 8.49916C65.2506 8.66779 65.1491 8.8027 65.0137 8.90388C64.8783 9.00506 64.7091 9.07252 64.5061 9.07252H62.9831V13.5919C62.9831 14.0978 63.1185 14.4688 63.3554 14.7049C63.5584 14.9073 63.8969 15.0422 64.303 15.0422Z" fill="#002645"/>
<path d="M66.8412 2.96796C67.0443 2.93423 67.2474 2.93423 67.4504 2.93423C67.6535 2.93423 67.8566 3.00169 68.0596 3.06914C68.2288 3.17032 68.3981 3.2715 68.5334 3.44014C68.6688 3.60877 68.7365 3.81113 68.7365 4.08095V8.36425C69.0749 7.95953 69.4811 7.65599 69.921 7.45363C70.361 7.25127 70.8348 7.15009 71.3425 7.15009C72.4255 7.15009 73.3392 7.52108 74.0499 8.22935C74.7607 8.93761 75.1329 9.94941 75.1329 11.1973V16.6948H73.2377V11.9393C73.2377 10.9612 73.0685 10.1855 72.6962 9.6796C72.3239 9.1737 71.8163 8.90388 71.1732 8.90388C70.361 8.90388 69.7856 9.24115 69.3457 9.91569C68.9396 10.5902 68.7365 11.4334 68.7365 12.4789V16.7285H66.8412V2.96796Z" fill="#002645"/>
<path d="M83.6616 15.4132C83.6616 15.5818 83.6616 15.7504 83.6277 15.8853C83.5939 16.0202 83.5262 16.1552 83.3908 16.2563C82.9509 16.5599 82.5109 16.7285 82.0371 16.796C81.5633 16.8634 81.0895 16.8971 80.6495 16.8971C79.0588 16.8971 77.8743 16.4587 77.0959 15.5481C76.2837 14.6712 75.8775 13.457 75.8775 11.9393C75.8775 11.2648 75.9791 10.624 76.1821 10.0169C76.3852 9.44351 76.6898 8.93761 77.0621 8.49916C77.4343 8.06071 77.9082 7.72345 78.4158 7.48736C78.9573 7.25127 79.5665 7.11636 80.2095 7.11636C80.9541 7.11636 81.5971 7.25127 82.1386 7.55481C82.6801 7.85835 83.1201 8.22935 83.4247 8.73525C83.7631 9.24115 84 9.81451 84.1354 10.489C84.3046 11.1636 84.3723 11.8718 84.3723 12.6476H77.7051C77.7728 13.4233 78.0435 14.0304 78.5512 14.4688C79.0588 14.9073 79.7357 15.1433 80.5818 15.1433C81.0556 15.1433 81.5294 15.0759 82.0032 14.9073C82.477 14.7386 82.9509 14.5363 83.4247 14.2665L83.6616 15.4132ZM82.5109 11.0624C82.4432 10.489 82.2063 9.98314 81.8002 9.54469C81.394 9.10625 80.8864 8.90389 80.2095 8.90389C79.4988 8.90389 78.9235 9.13997 78.5173 9.57842C78.1112 10.0506 77.8743 10.5228 77.7389 11.0287H82.5109V11.0624Z" fill="#002645"/>
<path d="M96.2176 2.2597C95.3038 2.2597 94.4577 2.42833 93.747 2.73187C93.0363 3.06914 92.4271 3.47386 91.9533 4.04722C91.4795 4.62057 91.1072 5.26138 90.8364 6.00337C90.5995 6.74536 90.4641 7.5548 90.4641 8.39797C90.4641 9.3086 90.5995 10.1518 90.8364 10.8938C91.1072 11.6357 91.4795 12.2766 91.9533 12.8162C92.4609 13.3558 93.0701 13.7605 93.7808 14.0641C94.4915 14.3676 95.3038 14.5025 96.1837 14.5025C96.8268 14.5025 97.4359 14.4351 98.0451 14.3002C98.6543 14.1653 99.2297 13.9292 99.805 13.6594L100.008 14.9747C100.042 15.2445 100.042 15.4469 100.008 15.6492C99.9742 15.8516 99.8727 15.9865 99.7373 16.0877C99.1958 16.425 98.5866 16.5936 97.8759 16.661C97.1652 16.7285 96.556 16.7622 96.0822 16.7622C94.83 16.7622 93.7131 16.5599 92.6978 16.1551C91.6825 15.7504 90.8364 15.1771 90.1257 14.4688C89.415 13.7605 88.8735 12.8836 88.4674 11.8381C88.0951 10.7926 87.892 9.64587 87.892 8.36425C87.892 7.15008 88.0951 6.00337 88.4674 4.99157C88.8396 3.97976 89.415 3.06914 90.1257 2.32715C90.8364 1.58516 91.7164 1.0118 92.6978 0.607082C93.7131 0.202361 94.83 0 96.0822 0C96.5898 0 97.0975 0.0674536 97.6052 0.168634C98.1128 0.269814 98.6205 0.438448 99.0943 0.607082C99.365 0.74199 99.5342 0.94435 99.6358 1.18044C99.7373 1.41653 99.7711 1.65261 99.7711 1.8887L99.5681 3.44013C99.162 3.17032 98.6543 2.90051 97.9774 2.63069C97.4021 2.3946 96.7929 2.2597 96.2176 2.2597Z" fill="#002645"/>
<path d="M101.7 1.72008C101.7 1.28163 101.836 0.910635 102.14 0.607094C102.445 0.269826 102.783 0.134918 103.189 0.134918C103.595 0.134918 103.934 0.303552 104.239 0.607094C104.543 0.944362 104.678 1.31536 104.678 1.72008C104.678 2.19225 104.543 2.56325 104.239 2.86679C103.934 3.17033 103.595 3.33897 103.189 3.33897C102.783 3.33897 102.411 3.17033 102.14 2.86679C101.869 2.56325 101.7 2.15853 101.7 1.72008Z" fill="#00B3F0"/>
<path d="M112.158 14.57C112.53 14.57 112.801 14.5363 113.004 14.4688C113.207 14.4013 113.444 14.3002 113.647 14.1653L113.749 15.5818C113.749 15.8179 113.715 16.0202 113.613 16.2226C113.512 16.425 113.342 16.5599 113.106 16.661C112.936 16.7285 112.699 16.7622 112.496 16.796C112.259 16.8297 112.056 16.8297 111.853 16.8297C110.77 16.8297 109.89 16.5261 109.18 15.9528C108.469 15.3794 108.097 14.4688 108.097 13.2209V7.0489H105.592V4.89038H108.097V1.5177H110.466V4.89038H113.546C113.546 5.1602 113.546 5.39628 113.546 5.6661C113.512 5.93591 113.478 6.172 113.376 6.37436C113.275 6.57672 113.173 6.74536 113.004 6.88026C112.835 7.01517 112.632 7.08263 112.361 7.08263H110.466V12.7487C110.466 13.3895 110.635 13.8617 110.94 14.1315C111.244 14.4013 111.65 14.57 112.158 14.57Z" fill="#002645"/>
<path d="M119.164 15.6492C119.164 15.548 119.13 15.3457 119.062 15.1096C118.994 14.8398 118.893 14.6374 118.825 14.4351L114.629 4.95783H115.948C116.321 4.95783 116.625 5.02528 116.93 5.16019C117.201 5.2951 117.471 5.56491 117.675 6.00336C117.911 6.57672 118.148 7.15007 118.351 7.6897C118.588 8.22933 118.825 8.80268 119.028 9.34231C119.265 9.88194 119.502 10.4216 119.705 10.9612C119.942 11.5008 120.179 12.0742 120.45 12.6475C120.653 12.1416 120.856 11.602 121.059 11.0624C121.262 10.5227 121.499 9.98312 121.736 9.47722C121.939 8.93759 122.176 8.39796 122.379 7.89206C122.582 7.35243 122.819 6.84653 123.022 6.3069C123.225 5.83473 123.462 5.49746 123.766 5.26137C124.071 5.05901 124.443 4.9241 124.849 4.9241H126L121.533 15.5143C121.33 16.0202 121.093 16.5261 120.822 17.032C120.585 17.5379 120.28 18.0101 119.942 18.4485C119.604 18.8533 119.231 19.2243 118.791 19.4941C118.351 19.7639 117.844 19.9325 117.268 20C117.065 20 116.862 20 116.727 19.9663C116.592 19.9325 116.456 19.9325 116.388 19.8988C116.084 19.7976 115.881 19.6627 115.813 19.4603C115.712 19.2917 115.678 19.0556 115.712 18.8533C115.712 18.7858 115.712 18.6509 115.745 18.516C115.745 18.3811 115.779 18.2125 115.779 18.0776C115.779 17.9089 115.813 17.7403 115.813 17.6054C115.813 17.4705 115.847 17.3356 115.847 17.2681C115.948 17.5042 116.084 17.6391 116.287 17.7066C116.456 17.774 116.659 17.8077 116.896 17.8077C117.302 17.8077 117.641 17.7066 117.911 17.5042C118.182 17.3018 118.419 17.0657 118.622 16.8297C118.791 16.5598 118.927 16.3238 118.994 16.0877C119.096 15.8516 119.164 15.6829 119.164 15.6492Z" fill="#002645"/>
<path d="M32.9976 10.3541C32.9976 13.9966 30.0532 16.9309 26.3981 16.9309C22.743 16.9309 19.7986 13.9966 19.7986 10.3541C19.7986 6.71164 22.743 3.7774 26.3981 3.7774C30.0532 3.7774 32.9976 6.71164 32.9976 10.3541Z" fill="#0095D5"/>
<path d="M27.3119 11.973C26.4996 11.973 25.7212 11.7032 25.1797 11.1636C25.0443 11.0287 25.0105 10.7926 25.1459 10.6577C25.2812 10.5228 25.5181 10.489 25.6535 10.6239C26.2289 11.1298 27.0749 11.3659 27.921 11.1636C28.7671 10.9612 29.444 10.4216 29.7486 9.67959C29.8163 9.47723 30.0532 9.40978 30.2224 9.47723C30.4255 9.54468 30.4932 9.78077 30.4255 9.94941C30.0532 10.8938 29.1733 11.602 28.0903 11.8718C27.8534 11.9393 27.5826 11.973 27.3119 11.973Z" fill="white"/>
<path d="M24.7059 8.93762C24.7059 9.27489 24.4351 9.5447 24.0967 9.5447C23.7583 9.5447 23.4875 9.27489 23.4875 8.93762C23.4875 8.60035 23.7583 8.33054 24.0967 8.33054C24.4351 8.33054 24.7059 8.60035 24.7059 8.93762Z" fill="white"/>
<path d="M30.8654 7.656C30.8654 7.99327 30.5947 8.26309 30.2563 8.26309C29.9178 8.26309 29.6471 7.99327 29.6471 7.656C29.6471 7.31873 29.9178 7.04892 30.2563 7.04892C30.5608 7.04892 30.8654 7.31873 30.8654 7.656Z" fill="white"/>
</g>
<defs>
<clipPath id="clip0_176_674">
<rect width="126" height="20" fill="white"/>
</clipPath>
</defs>
</svg>
