<svg width="24" height="24" viewBox="0 0 24 24" fill="none" xmlns="http://www.w3.org/2000/svg">
<path fill-rule="evenodd" clip-rule="evenodd" d="M7.41507 3.86853C8.63392 2.67023 10.2835 2 12 2C13.7165 2 15.3661 2.67023 16.5849 3.86853C17.8043 5.0674 18.4926 6.69708 18.4926 8.4C18.4926 11.0002 19.1568 12.7175 19.8483 13.8101L19.8602 13.8288C20.1864 14.3442 20.4457 14.754 20.621 15.0529C20.7088 15.2027 20.7905 15.3497 20.8516 15.4821C20.8821 15.5482 20.9172 15.6313 20.945 15.7229C20.9678 15.7981 21.0132 15.9649 20.9962 16.1696C20.9855 16.2985 20.9581 16.5281 20.8238 16.7658C20.6903 17.0021 20.5087 17.144 20.4054 17.2194C20.1602 17.3982 19.8818 17.4385 19.7929 17.4514L19.7874 17.4522C19.6488 17.4724 19.4927 17.4822 19.3375 17.4882C19.0293 17.5 18.6033 17.5 18.0762 17.5H5.92376C5.39665 17.5 4.9707 17.5 4.66247 17.4882C4.50726 17.4822 4.35122 17.4724 4.21258 17.4522L4.20708 17.4514C4.11814 17.4385 3.83978 17.3982 3.59459 17.2194C3.49125 17.144 3.30967 17.0021 3.17614 16.7658C3.04185 16.5281 3.01449 16.2985 3.00376 16.1696C2.98674 15.9649 3.03218 15.7981 3.05498 15.7229C3.08274 15.6313 3.11788 15.5482 3.14838 15.4821C3.20953 15.3497 3.2912 15.2027 3.379 15.0529C3.55422 14.754 3.81357 14.3442 4.13972 13.8289L4.15164 13.8101C4.84315 12.7175 5.50739 11.0002 5.50739 8.4C5.50739 6.69707 6.19564 5.0674 7.41507 3.86853ZM12 4C10.803 4 9.65848 4.46763 8.81721 5.29472C7.97652 6.12124 7.50739 7.23859 7.50739 8.4C7.50739 11.3621 6.74442 13.4532 5.8416 14.8797C5.69246 15.1153 5.56246 15.3208 5.45036 15.4996C5.59887 15.5 5.76415 15.5 5.94793 15.5H18.0521C18.2358 15.5 18.4011 15.5 18.5496 15.4996C18.4375 15.3208 18.3075 15.1153 18.1584 14.8797C17.2556 13.4532 16.4926 11.3621 16.4926 8.4C16.4926 7.23859 16.0235 6.12124 15.1828 5.29472C14.3415 4.46763 13.1969 4 12 4ZM8.82263 19.4446C9.18459 19.0275 9.81618 18.9827 10.2333 19.3447C10.7024 19.7518 11.3193 20 12 20C12.6807 20 13.2976 19.7518 13.7667 19.3447C14.1838 18.9827 14.8154 19.0275 15.1774 19.4446C15.5393 19.8617 15.4946 20.4933 15.0775 20.8553C14.2556 21.5685 13.1766 22 12 22C10.8234 22 9.74442 21.5685 8.92252 20.8553C8.50539 20.4933 8.46067 19.8617 8.82263 19.4446Z" fill="white"/>
</svg>
