<svg width="36" height="36" viewBox="0 0 36 36" fill="none" xmlns="http://www.w3.org/2000/svg">
<g clip-path="url(#clip0_297_3192)">
<path d="M17.6563 32.0034V29.5419C23.3315 29.5419 27.9537 24.9197 27.9537 19.2444V12.2564C27.9537 7.96239 24.4529 4.46154 20.1589 4.46154H15.7144C11.4204 4.46154 7.91955 7.96239 7.91955 12.2564V24.7419H5.45801V12.2564C5.45801 6.60855 10.0529 2 15.7144 2H20.1589C25.8204 2 30.4153 6.60855 30.4153 12.2564V19.2444C30.4153 26.2735 24.699 32.0034 17.6563 32.0034Z" fill="#0059DB"/>
<path d="M5.99145 13.4734H7.38633C8.69915 13.4734 9.75214 14.5401 9.75214 15.8392V23.2101C9.75214 24.523 8.68547 25.576 7.38633 25.576H5.99145C3.24274 25.576 1 23.3469 1 20.5845V18.4512C1 15.7025 3.22906 13.4597 5.99145 13.4597V13.4734Z" fill="#3180FF"/>
<path d="M28.6241 13.4736H30.019C32.7677 13.4736 35.0104 15.7027 35.0104 18.4651V20.5984C35.0104 23.3471 32.7814 25.5899 30.019 25.5899H28.6241C27.3113 25.5899 26.2583 24.5232 26.2583 23.2241V15.8531C26.2583 14.5403 27.325 13.4873 28.6241 13.4873V13.4736Z" fill="#3180FF"/>
<path d="M17.7249 34.0001C19.5073 34.0001 20.9523 32.5552 20.9523 30.7728C20.9523 28.9903 19.5073 27.5454 17.7249 27.5454C15.9425 27.5454 14.4976 28.9903 14.4976 30.7728C14.4976 32.5552 15.9425 34.0001 17.7249 34.0001Z" fill="#A4CDFF"/>
<path d="M14 13C14.5523 13 15 13.4477 15 14C15 14.7956 15.3161 15.5587 15.8787 16.1213C16.4413 16.6839 17.2043 17 18 17C18.7956 17 19.5587 16.6839 20.1213 16.1213C20.6839 15.5587 21 14.7956 21 14C21 13.4477 21.4477 13 22 13C22.5523 13 23 13.4477 23 14C23 15.3261 22.4732 16.5979 21.5355 17.5355C20.5979 18.4732 19.3261 19 18 19C16.6739 19 15.4021 18.4732 14.4645 17.5355C13.5268 16.5979 13 15.3261 13 14C13 13.4477 13.4477 13 14 13Z" fill="#2C333B"/>
</g>
<defs>
<clipPath id="clip0_297_3192">
<rect width="33.9966" height="32" fill="white" transform="translate(1 2)"/>
</clipPath>
</defs>
</svg>
