<svg width="20" height="20" viewBox="0 0 20 20" fill="none" xmlns="http://www.w3.org/2000/svg">
<path d="M3.07317 14.4648L1 18.538" stroke="#253B95" stroke-width="1.46341" stroke-linecap="round" stroke-linejoin="round"/>
<path d="M18.5605 18.538L16.4873 14.4648" stroke="#253B95" stroke-width="1.46341" stroke-linecap="round" stroke-linejoin="round"/>
<path d="M14.4391 2H5.122C3.97566 2 3.04883 2.92683 3.04883 4.07317V14.4634H16.4879V4.07317C16.4879 2.92683 15.561 2 14.4147 2H14.4391ZM13.683 8.34146H5.8781V4.92683H13.683V8.34146Z" stroke="#253B95" stroke-width="1.46341" stroke-linecap="round" stroke-linejoin="round"/>
<path d="M2.02441 17.123H17.5366" stroke="#253B95" stroke-width="1.46341" stroke-linecap="round" stroke-linejoin="round"/>
<path d="M6.36612 12.2205C5.75636 12.2205 5.26855 11.7327 5.26855 11.123C5.26855 10.5132 5.75636 10.0254 6.36612 10.0254C6.97587 10.0254 7.46368 10.5132 7.46368 11.123C7.46368 11.7327 6.97587 12.2205 6.36612 12.2205Z" fill="#253B95"/>
<path d="M13.1952 12.2205C12.5855 12.2205 12.0977 11.7327 12.0977 11.123C12.0977 10.5132 12.5855 10.0254 13.1952 10.0254C13.805 10.0254 14.2928 10.5132 14.2928 11.123C14.2928 11.7327 13.805 12.2205 13.1952 12.2205Z" fill="#253B95"/>
</svg>
