<svg width="50" height="50" viewBox="0 0 50 50" fill="none" xmlns="http://www.w3.org/2000/svg">
<path d="M12.3849 18.6844C12.4913 18.4798 12.4062 18.2292 12.1934 18.1248C11.9848 18.0204 11.7295 18.1039 11.6231 18.3127C9.66536 22.1551 9.43128 26.6825 11.1677 30.7964C11.2571 31.0094 11.5082 31.1096 11.7252 31.0219C11.9423 30.9342 12.0444 30.6878 11.955 30.4748C10.3761 26.7284 10.4655 22.4517 12.3849 18.6844Z" fill="#8597A8" stroke="#8597A8" stroke-width="1.5"/>
<path d="M14.7298 15.36C17.5515 12.3821 21.6202 10.6948 25.8378 10.8451C26.0719 10.8535 26.2719 10.6739 26.2804 10.4442C26.2889 10.2145 26.1059 10.0182 25.8718 10.0098C21.4882 9.85529 17.1599 11.576 14.1127 14.7919C13.951 14.959 13.9638 15.2263 14.134 15.3808C14.3042 15.5395 14.5766 15.527 14.7341 15.36H14.7298Z" fill="#8597A8" stroke="#8597A8" stroke-width="1.5"/>
<path d="M29.8939 11.5677C33.8179 12.8499 37.0524 15.7233 38.6951 19.6075C38.6951 19.6493 39.9804 22.2178 38.2398 24.9493C38.1163 25.1456 38.1759 25.4045 38.376 25.5256C38.576 25.6468 38.8398 25.5883 38.9633 25.392C38.8909 25.392 40.0017 24.114 40.0017 21.8461C40.0017 20.9899 39.8315 20.1212 39.4825 19.2901C37.7461 15.1762 34.3158 12.1357 30.1663 10.7783C29.945 10.7073 29.7024 10.8243 29.63 11.0414C29.5577 11.2586 29.6768 11.4967 29.8982 11.5677H29.8939Z" fill="#8597A8" stroke="#8597A8" stroke-width="1.5"/>
<path d="M25.306 14.178C20.0499 14.178 15.4833 17.8408 14.4576 22.9612C14.4108 23.1867 14.564 23.4081 14.7939 23.4499C15.0237 23.4958 15.2492 23.3455 15.2918 23.1199C16.2366 18.3921 20.4542 15.0133 25.3017 15.0133C28.6639 15.0133 31.9367 16.6463 33.8732 19.5615C34.0008 19.7536 34.2647 19.8079 34.4605 19.6826C34.6563 19.5573 34.7116 19.2984 34.5839 19.1063C32.4857 15.9446 28.9406 14.178 25.3017 14.178H25.306Z" fill="#8597A8" stroke="#8597A8" stroke-width="1.5"/>
<path d="M21.582 20.4845C21.765 20.3384 21.7948 20.0752 21.6459 19.8957C21.4969 19.7161 21.2288 19.6868 21.0458 19.833C18.7263 21.6665 17.8538 24.8156 19.0285 27.5972C20.4414 30.9467 23.0078 33.6531 26.2976 35.2736C26.5061 35.378 26.7615 35.2945 26.8679 35.0899C26.9743 34.8852 26.8892 34.6346 26.6806 34.5302C23.5738 32.9974 21.1522 30.4414 19.8158 27.2798C18.7944 24.8615 19.5392 22.1009 21.582 20.4887V20.4845Z" fill="#18E2D7" stroke="#18E2D7" stroke-width="1.5"/>
<path d="M24.6844 19.2274C27.2465 18.9559 29.7915 20.3509 30.8257 22.8067C30.8683 22.8484 31.0598 23.5 31.8088 23.9636C33.1111 24.7696 34.9199 24.2852 35.5455 22.8067C35.6349 22.5937 35.5328 22.3473 35.3157 22.2596C35.0987 22.1718 34.8476 22.2721 34.7582 22.4851C34.1836 23.8383 32.2046 23.8759 31.6131 22.4851C30.4214 19.6701 27.5103 18.0872 24.5908 18.3963C24.3567 18.4213 24.1865 18.626 24.212 18.8557C24.2375 19.0854 24.4461 19.2525 24.6802 19.2274H24.6844Z" fill="#18E2D7" stroke="#18E2D7" stroke-width="1.5"/>
<path d="M25.3227 23.3705C25.9909 23.3705 26.625 23.7589 26.8974 24.4021C28.3316 27.7976 32.3067 29.4348 35.7965 28.019C36.0136 27.9313 36.1157 27.6848 36.0263 27.4718C35.937 27.2588 35.6859 27.1586 35.4688 27.2463C32.4045 28.4909 28.9317 27.0417 27.6847 24.0805C27.1442 22.7983 25.6461 22.1969 24.3481 22.7231C23.0415 23.2536 22.4287 24.7237 22.9649 25.9975C23.0202 26.0518 23.5735 27.7475 25.3057 29.4682C25.4716 29.6311 25.7398 29.6353 25.9058 29.4682C26.0717 29.3053 26.076 29.0422 25.9058 28.8793C24.4928 27.4718 23.748 25.7511 23.748 25.6759C23.6288 25.4379 23.6161 25.0829 23.6161 25.0369C23.6161 24.1014 24.3949 23.3663 25.3184 23.3663L25.3227 23.3705Z" fill="#18E2D7" stroke="#18E2D7" stroke-width="1.5"/>
<path d="M34.7628 36.8022C34.9968 36.7772 35.1671 36.5725 35.1415 36.3428C35.116 36.1131 34.9075 35.946 34.6734 35.9711C33.3626 36.1047 31.9879 36.0672 30.5877 35.8124C30.3579 35.7706 30.1366 35.921 30.094 36.1465C30.0515 36.372 30.2047 36.5892 30.4345 36.631C31.8645 36.8899 33.32 36.9442 34.7628 36.7981V36.8022Z" fill="#8597A8" stroke="#8597A8" stroke-width="1.5"/>
<path d="M15.1001 29.1968C17.2961 34.3966 21.5861 38.214 26.7188 39.9765C26.9401 40.0516 27.1827 39.9389 27.2593 39.7217C27.3359 39.5045 27.221 39.2664 26.9996 39.1913C22.0883 37.4998 17.9856 33.8537 15.8874 28.8794C15.8874 28.8335 15.564 28.1986 15.3256 27.1044C15.2788 26.8789 15.0533 26.7327 14.8192 26.7828C14.5894 26.8287 14.4404 27.0501 14.4915 27.2798C14.6319 27.9272 14.832 28.5704 15.1001 29.201V29.1968Z" fill="#8597A8" stroke="#8597A8" stroke-width="1.5"/>
<path d="M15.6533 36.2635C15.4873 36.4264 15.4873 36.6895 15.6533 36.8524C16.6151 37.8046 17.6706 38.665 18.8027 39.4251C18.9984 39.5546 19.2623 39.5045 19.3943 39.3165C19.5262 39.1244 19.4751 38.8655 19.2836 38.736C18.1941 38.0051 17.1812 37.1782 16.2576 36.2677C16.0917 36.1048 15.8235 36.1048 15.6576 36.2677L15.6533 36.2635Z" fill="#8597A8" stroke="#8597A8" stroke-width="1.5"/>
<path d="M37.7812 30.8465C35.8775 32.1933 32.4603 32.4001 29.2769 31.1054C29.0598 31.0177 28.8087 31.118 28.7193 31.331C28.63 31.544 28.7321 31.7904 28.9492 31.8781C29.2769 32.0105 34.1797 34.2879 39.3762 30.8465C39.5719 30.717 39.623 30.4581 39.4911 30.2659C39.3592 30.0738 39.0953 30.0237 38.8995 30.1532L37.7812 30.8465Z" fill="#18E2D7" stroke="#18E2D7" stroke-width="1.5"/>
</svg>
