<svg width="28" height="28" viewBox="0 0 28 28" fill="none" xmlns="http://www.w3.org/2000/svg">
<path d="M20.75 4.56906C20.75 3.62983 21.0179 2.74586 21.4464 2C18.9554 2.22099 17 4.37569 17 7C17 9.62431 19.1696 12 21.8482 12C24.5268 12 25.1696 11.0331 26 9.56906C25.8661 9.56906 25.7321 9.56906 25.5714 9.56906C22.8929 9.56906 20.7232 7.33149 20.7232 4.56906H20.75Z" stroke="#1F5EFF" stroke-width="2" stroke-linecap="round" stroke-linejoin="round"/>
<path d="M23.0518 15.1802C23.0518 20.4459 18.7916 24.7061 13.5259 24.7061C8.2602 24.7061 4 20.4195 4 15.1802C4 9.94096 8.2602 5.6543 13.5259 5.6543" stroke="#1F5EFF" stroke-width="2" stroke-linecap="round" stroke-linejoin="round"/>
<path d="M13 16.853H18.0805" stroke="#1F5EFF" stroke-width="2" stroke-linecap="round" stroke-linejoin="round"/>
<path d="M13 16.853V11.853" stroke="#1F5EFF" stroke-width="2" stroke-linecap="round" stroke-linejoin="round"/>
</svg>
