<svg width="23" height="28" viewBox="0 0 23 28" fill="none" xmlns="http://www.w3.org/2000/svg">
<g clip-path="url(#clip0_180_1317)">
<path d="M21 0H2C0.895431 0 0 0.895431 0 2V26C0 27.1046 0.89543 28 2 28H21C22.1046 28 23 27.1046 23 26V2C23 0.895431 22.1046 0 21 0Z" fill="#1BCC9A"/>
<path d="M19.2626 9.94652V4.19946L3.73757 4.19946V9.94652H19.2626Z" fill="#8FFFCC"/>
<path d="M6.99774 15.3973H5.18218C4.46774 15.3973 3.88843 14.823 3.88843 14.1148C3.88843 13.4066 4.46774 12.8323 5.18218 12.8323H6.99774C7.71218 12.8323 8.29149 13.4066 8.29149 14.1148C8.29149 14.823 7.71218 15.3973 6.99774 15.3973Z" fill="#FF6B57"/>
<path d="M12.407 15.3973H10.5915C9.87704 15.3973 9.29773 14.823 9.29773 14.1148C9.29773 13.4066 9.87704 12.8323 10.5915 12.8323H12.407C13.1215 12.8323 13.7008 13.4066 13.7008 14.1148C13.7008 14.823 13.1215 15.3973 12.407 15.3973Z" fill="white"/>
<path d="M17.8178 15.3973H16.0022C15.2878 15.3973 14.7085 14.823 14.7085 14.1148C14.7085 13.4066 15.2878 12.8323 16.0022 12.8323H17.8178C18.5322 12.8323 19.1116 13.4066 19.1116 14.1148C19.1116 14.823 18.5322 15.3973 17.8178 15.3973Z" fill="white"/>
<path d="M6.99774 19.5069H5.18218C4.46774 19.5069 3.88843 18.9326 3.88843 18.2244C3.88843 17.5162 4.46774 16.9419 5.18218 16.9419H6.99774C7.71218 16.9419 8.29149 17.5162 8.29149 18.2244C8.29149 18.9326 7.71218 19.5069 6.99774 19.5069Z" fill="white"/>
<path d="M12.407 19.5069H10.5915C9.87704 19.5069 9.29773 18.9326 9.29773 18.2244C9.29773 17.5162 9.87704 16.9419 10.5915 16.9419H12.407C13.1215 16.9419 13.7008 17.5162 13.7008 18.2244C13.7008 18.9326 13.1215 19.5069 12.407 19.5069Z" fill="white"/>
<path d="M17.8178 19.5069H16.0022C15.2878 19.5069 14.7085 18.9326 14.7085 18.2244C14.7085 17.5162 15.2878 16.9419 16.0022 16.9419H17.8178C18.5322 16.9419 19.1116 17.5162 19.1116 18.2244C19.1116 18.9326 18.5322 19.5069 17.8178 19.5069Z" fill="white"/>
<path d="M6.99774 23.6153H5.18218C4.46774 23.6153 3.88843 23.041 3.88843 22.3328C3.88843 21.6246 4.46774 21.0503 5.18218 21.0503H6.99774C7.71218 21.0503 8.29149 21.6246 8.29149 22.3328C8.29149 23.041 7.71218 23.6153 6.99774 23.6153Z" fill="white"/>
<path d="M12.407 23.6153H10.5915C9.87704 23.6153 9.29773 23.041 9.29773 22.3328C9.29773 21.6246 9.87704 21.0503 10.5915 21.0503H12.407C13.1215 21.0503 13.7008 21.6246 13.7008 22.3328C13.7008 23.041 13.1215 23.6153 12.407 23.6153Z" fill="white"/>
<path d="M17.8178 23.6153H16.0022C15.2878 23.6153 14.7085 23.041 14.7085 22.3328C14.7085 21.6246 15.2878 21.0503 16.0022 21.0503H17.8178C18.5322 21.0503 19.1116 21.6246 19.1116 22.3328C19.1116 23.041 18.5322 23.6153 17.8178 23.6153Z" fill="white"/>
</g>
<defs>
<clipPath id="clip0_180_1317">
<rect width="23" height="28" fill="white"/>
</clipPath>
</defs>
</svg>
