<svg width="36" height="36" viewBox="0 0 36 36" fill="none" xmlns="http://www.w3.org/2000/svg">
<g clip-path="url(#clip0_289_3973)">
<path d="M18.0459 3C14.8418 6.10604 10.252 8.32119 5 9.08977V17.7752C5 24.8631 8.47635 31.954 18 34C27.5236 31.954 31 24.8631 31 17.7752V9.07618C25.7862 8.29552 21.2301 6.08792 18.0459 3Z" fill="#FF578B"/>
<path d="M25.0755 22.3291C26.6594 18.5539 24.8436 14.2257 21.0198 12.662C17.1959 11.0982 12.8121 12.891 11.2282 16.6662C9.64434 20.4415 11.4602 24.7696 15.284 26.3334C19.1078 27.8972 23.4917 26.1044 25.0755 22.3291Z" fill="white"/>
<path d="M17.4905 23.3199L13.6899 19.566L15.6354 17.6453L17.4905 19.4754L21.1412 15.8711L23.0882 17.7933L17.4905 23.3199Z" fill="#C40050"/>
</g>
<defs>
<clipPath id="clip0_289_3973">
<rect width="26" height="31" fill="white" transform="translate(5 3)"/>
</clipPath>
</defs>
</svg>
