<svg width="60" height="60" viewBox="0 0 60 60" fill="none" xmlns="http://www.w3.org/2000/svg">
<path d="M18.0816 39.4313C15.4519 39.4313 13.3278 37.5813 12.721 35.1146C12.3164 35.2174 11.8107 35.3202 11.4061 35.3202C8.37172 35.3202 5.94424 32.8535 5.94424 29.7702C5.94424 29.0507 6.04538 28.3313 6.34882 27.7146C3.82019 27.2007 1.89844 24.9396 1.89844 22.2674C1.89844 19.5952 3.82019 17.3341 6.34882 16.8202C6.04538 16.2035 5.94424 15.4841 5.94424 14.7646C5.94424 11.6813 8.37172 9.21463 11.4061 9.21463C11.8107 9.21463 12.3164 9.21463 12.721 9.42018C13.2267 6.95352 15.4519 5.10352 18.0816 5.10352C21.116 5.10352 23.5435 7.57018 23.5435 10.6535V33.9841C23.5435 37.0674 21.116 39.5341 18.0816 39.5341V39.4313ZM13.6313 32.7507C13.6313 32.7507 13.9347 32.7507 14.137 32.8535C14.4404 33.0591 14.6427 33.3674 14.5416 33.6757C14.5416 33.6757 14.5416 33.7785 14.5416 33.8813C14.5416 35.8341 16.1599 37.4785 18.0816 37.4785C20.0034 37.4785 21.6217 35.8341 21.6217 33.8813V10.5507C21.6217 8.59796 20.0034 6.95352 18.0816 6.95352C16.1599 6.95352 14.5416 8.59796 14.5416 10.5507C14.5416 10.5507 14.5416 10.5507 14.5416 10.6535C14.5416 10.9618 14.3393 11.373 14.137 11.4757C13.8336 11.6813 13.5301 11.6813 13.2267 11.4757C12.721 11.1674 12.1141 11.0646 11.5072 11.0646C9.58546 11.0646 7.96714 12.7091 7.96714 14.6618C7.96714 15.7924 8.47287 16.5118 8.87745 17.0257C9.18088 17.3341 9.18088 17.7452 8.97859 18.1563C8.7763 18.4646 8.37172 18.6702 8.06828 18.6702H7.96714C7.96714 18.6702 7.76485 18.6702 7.56256 18.6702C5.6408 18.6702 4.02248 20.3146 4.02248 22.2674C4.02248 24.2202 5.6408 25.8646 7.56256 25.8646C7.6637 25.8646 7.76485 25.8646 7.96714 25.8646H8.06828C8.06828 25.8646 8.87745 25.9674 8.97859 26.3785C9.18088 26.6868 9.07974 27.2007 8.87745 27.5091C8.47287 28.023 7.96714 28.7424 7.96714 29.873C7.96714 31.8257 9.58546 33.4702 11.5072 33.4702C12.1141 33.4702 12.6198 33.3674 13.2267 33.0591C13.3278 33.0591 13.5301 32.9563 13.6313 32.9563V32.7507Z" fill="#343A40"/>
<path d="M10.5975 21.6499C10.5975 21.6499 9.78834 21.4443 9.6872 21.0332C9.08033 19.286 7.6643 18.6693 7.6643 18.5666C7.15857 18.361 6.95628 17.7443 7.15857 17.3332C7.36086 16.9221 7.86659 16.6138 8.37231 16.8193C8.37231 16.8193 10.5975 17.8471 11.4067 20.4166C11.609 20.9304 11.4067 21.4443 10.7998 21.6499C10.6986 21.6499 10.5975 21.6499 10.4964 21.6499H10.5975Z" fill="#343A40"/>
<path d="M17.2728 15.5868C17.2728 15.5868 17.2728 15.5868 17.1716 15.5868C13.935 15.1757 12.8224 12.298 12.6201 10.7563C12.6201 10.2424 12.9236 9.72852 13.4293 9.72852C13.935 9.72852 14.4407 10.0368 14.4407 10.5507C14.4407 10.8591 14.7442 13.3257 17.2728 13.6341C17.7785 13.6341 18.1831 14.148 18.082 14.6618C18.082 15.1757 17.5762 15.4841 17.1716 15.4841L17.2728 15.5868Z" fill="#343A40"/>
<path d="M8.0684 27.7136C8.0684 27.7136 7.56268 27.6108 7.36039 27.4052C7.05695 26.9941 7.05695 26.3775 7.36039 26.0691C7.46153 26.0691 10.0913 23.7052 13.6314 25.1441C14.1371 25.3497 14.3394 25.8636 14.1371 26.3775C13.9348 26.8914 13.4291 27.0969 12.9234 26.8914C10.4959 25.8636 8.77642 27.4052 8.67527 27.4052C8.47298 27.6108 8.27069 27.6108 8.0684 27.6108V27.7136Z" fill="#343A40"/>
<path d="M13.6315 34.7029C13.6315 34.7029 13.5304 34.7029 13.4293 34.7029C12.9235 34.7029 12.5189 34.0862 12.6201 33.5723C12.8224 32.2362 14.1373 29.7695 17.3739 29.7695C17.8796 29.7695 18.2842 30.1806 18.2842 30.6945C18.2842 31.2084 17.8796 31.6195 17.3739 31.6195C14.8453 31.6195 14.4407 33.7779 14.4407 33.8806C14.4407 34.3945 13.935 34.7029 13.5304 34.7029H13.6315Z" fill="#343A40"/>
<path d="M30.9277 39.4306C27.8933 39.4306 25.4658 36.9639 25.4658 33.8806V10.55C25.4658 7.46667 27.8933 5 30.9277 5C33.5574 5 35.6815 6.85 36.2883 9.31667C36.6929 9.21389 37.1986 9.11111 37.6032 9.11111C40.6376 9.11111 43.0651 11.5778 43.0651 14.6611C43.0651 15.3806 42.9639 16.1 42.6605 16.7167C43.1662 16.7167 43.6719 17.025 44.0765 17.2306C44.5822 17.4361 44.6834 18.0528 44.4811 18.5667C44.2788 19.0806 43.6719 19.1833 43.1662 18.9778C42.5593 18.6694 41.8513 18.5667 41.1433 18.6694H41.0422C41.0422 18.6694 40.233 18.5667 40.1319 18.1556C39.9296 17.8472 40.0307 17.3333 40.233 17.025C40.6376 16.5111 41.1433 15.7917 41.1433 14.6611C41.1433 12.7083 39.525 11.0639 37.6032 11.0639C36.9964 11.0639 36.4906 11.1667 35.8838 11.475C35.5803 11.6806 35.1757 11.5778 34.9735 11.475C34.67 11.2694 34.4677 10.9611 34.5689 10.6528C34.5689 10.6528 34.5689 10.55 34.5689 10.4472C34.5689 8.49444 32.9506 6.85 31.0288 6.85C29.107 6.85 27.4887 8.49444 27.4887 10.4472V33.7778C27.4887 35.7306 29.107 37.375 31.0288 37.375C31.5345 37.375 31.9391 37.7861 31.9391 38.3C31.9391 38.8139 31.5345 39.225 31.0288 39.225L30.9277 39.4306Z" fill="#343A40"/>
<path d="M38.4122 21.6496C38.4122 21.6496 38.2099 21.6496 38.1087 21.6496C37.603 21.444 37.4007 20.9301 37.5018 20.4162C38.4122 17.8468 40.5362 16.9218 40.5362 16.819C41.0419 16.6134 41.5477 16.819 41.7499 17.3329C41.9522 17.8468 41.7499 18.3607 41.2442 18.5662C41.2442 18.5662 39.8282 19.2857 39.2213 21.0329C39.1202 21.444 38.7156 21.6496 38.311 21.6496H38.4122Z" fill="#343A40"/>
<path d="M31.7365 15.5859C31.7365 15.5859 30.8262 15.2775 30.8262 14.7636C30.8262 14.2498 31.1296 13.7359 31.6353 13.7359C34.2651 13.4275 34.4674 10.7553 34.4674 10.6525C34.4674 10.1386 34.9731 9.72753 35.4788 9.83031C35.9846 9.83031 36.3892 10.3442 36.288 10.8581C36.1869 12.297 35.0743 15.2775 31.7365 15.6886C31.7365 15.6886 31.7365 15.6886 31.6353 15.6886L31.7365 15.5859Z" fill="#343A40"/>
<path d="M44.5613 51.96C39.3222 51.96 35 47.568 35 42.2444C35 38.1185 37.4886 34.5251 41.1559 33.1942V31.1978C41.1559 30.5324 41.6798 30 42.3347 30H46.395C47.0499 30 47.5738 30.5324 47.5738 31.1978V33.1942C51.2411 34.5251 53.7297 38.1185 53.7297 42.2444C53.7297 47.568 49.4074 51.96 44.1684 51.96H44.5613ZM43.6445 32.6618V34.2589C43.6445 34.2589 43.2515 35.3236 42.7276 35.4567C39.5842 36.2553 37.4886 39.1833 37.4886 42.3775C37.4886 46.3702 40.632 49.5644 44.5613 49.5644C48.4906 49.5644 51.634 46.3702 51.634 42.3775C51.634 39.0502 49.4074 36.2553 46.395 35.4567C45.8711 35.3236 45.4781 34.7913 45.4781 34.2589V32.6618H43.7754H43.6445Z" fill="#FF828E"/>
<circle cx="44.5" cy="42.5" r="8.5" fill="#FF828E"/>
<rect x="42" y="32" width="5" height="4" fill="#FF828E"/>
<path d="M44.5473 47.7392C41.9176 47.7392 39.6924 45.5809 39.6924 42.8059C39.6924 42.292 40.097 41.8809 40.6027 41.8809C41.1084 41.8809 41.513 42.292 41.513 42.8059C41.513 44.4503 42.8279 45.7864 44.4462 45.7864C44.9519 45.7864 45.3565 46.1975 45.3565 46.7114C45.3565 47.2253 44.9519 47.6364 44.4462 47.6364L44.5473 47.7392Z" fill="white"/>
<path d="M44.547 31.0973C44.0413 31.0973 43.6367 30.6861 43.6367 30.1723C43.6367 27.7056 45.5585 25.7528 47.986 25.7528H49.402L50.9192 23.9028C50.9192 23.9028 51.8295 23.3889 52.234 23.8C52.6386 24.1084 52.7398 24.725 52.3352 25.1361L50.6157 27.2945C50.6157 27.2945 50.2111 27.6028 49.9077 27.6028H47.986C46.6711 27.6028 45.5585 28.7334 45.5585 30.0695C45.5585 30.5834 45.1539 30.9945 44.6482 30.9945L44.547 31.0973Z" fill="#343A40"/>
<path d="M53.5498 30.4797C53.5498 30.4797 53.1452 30.4797 52.9429 30.2742L49.2005 27.3964C49.2005 27.3964 48.7959 26.677 48.8971 26.3686C48.9982 25.9575 49.4028 25.752 49.8074 25.752H55.4715C55.9772 25.752 56.3818 26.1631 56.3818 26.677C56.3818 27.1908 55.9772 27.602 55.4715 27.602H52.6395L54.1566 28.8353C54.1566 28.8353 54.6624 29.7603 54.3589 30.1714C54.1566 30.377 53.8532 30.5825 53.6509 30.5825L53.5498 30.4797Z" fill="#343A40"/>
<path d="M57.0893 54.0004H29.4767C28.971 54.0004 28.5664 53.5893 28.5664 53.0754C28.5664 52.5615 28.971 52.1504 29.4767 52.1504H57.0893C57.595 52.1504 57.9996 52.5615 57.9996 53.0754C57.9996 53.5893 57.595 54.0004 57.0893 54.0004Z" fill="#343A40"/>
<path d="M30.9279 32.1046C30.4222 32.1046 30.0176 31.6935 30.0176 31.1796V21.2102C30.0176 20.6963 30.4222 20.2852 30.9279 20.2852C31.4336 20.2852 31.8382 20.6963 31.8382 21.2102V31.1796C31.8382 31.6935 31.4336 32.1046 30.9279 32.1046Z" fill="#343A40"/>
</svg>
