<svg width="45" height="44" viewBox="0 0 45 44" fill="none" xmlns="http://www.w3.org/2000/svg">
<g clip-path="url(#clip0_452_8500)">
<path d="M18.9344 20.5175H10.3893C9.28273 20.5175 8.3606 19.6097 8.3606 18.5203V10.1076C8.3606 9.01819 9.28273 8.11035 10.3893 8.11035H18.9344C20.0409 8.11035 20.9631 9.01819 20.9631 10.1076V18.5203C20.9631 19.6097 20.0409 20.5175 18.9344 20.5175ZM12.4794 16.4625H16.9057V12.1049H12.4794V16.4625Z" fill="white"/>
<path d="M18.9344 35.9511H10.3893C9.28273 35.9511 8.3606 35.0433 8.3606 33.9538V25.5412C8.3606 24.4518 9.28273 23.5439 10.3893 23.5439H18.9344C20.0409 23.5439 20.9631 24.4518 20.9631 25.5412V33.9538C20.9631 35.0433 20.0409 35.9511 18.9344 35.9511ZM12.4794 31.8961H16.9057V27.5384H12.4794V31.8961Z" fill="white"/>
<path d="M34.5491 20.5175H26.004C24.8975 20.5175 23.9753 19.6097 23.9753 18.5203V10.1076C23.9753 9.01819 24.8975 8.11035 26.004 8.11035H34.5491C35.6557 8.11035 36.5778 9.01819 36.5778 10.1076V18.5203C36.5778 19.6097 35.6557 20.5175 34.5491 20.5175ZM28.0942 16.4625H32.5204V12.1049H28.0942V16.4625Z" fill="white"/>
<path d="M26.1885 27.5384H26.0656C24.959 27.5384 24.0369 26.6306 24.0369 25.5412C24.0369 24.4518 24.959 23.5439 26.0656 23.5439H26.1885C27.2951 23.5439 28.2172 24.4518 28.2172 25.5412C28.2172 26.6306 27.2951 27.5384 26.1885 27.5384Z" fill="white"/>
<path d="M26.1885 35.9515H26.0656C24.959 35.9515 24.0369 35.0437 24.0369 33.9543C24.0369 32.8649 24.959 31.957 26.0656 31.957H26.1885C27.2951 31.957 28.2172 32.8649 28.2172 33.9543C28.2172 35.0437 27.2951 35.9515 26.1885 35.9515Z" fill="white"/>
<path d="M34.5493 35.9508C33.4427 35.9508 32.5206 35.043 32.5206 33.9536V31.7748H30.246C29.1394 31.7748 28.2173 30.8669 28.2173 29.7775C28.2173 28.6881 29.1394 27.7803 30.246 27.7803H34.6107C35.7173 27.7803 36.6394 28.6881 36.6394 29.7775V33.9536C36.6394 35.043 35.7173 35.9508 34.6107 35.9508H34.5493Z" fill="white"/>
<path d="M2.15164 11.6223C0.983607 11.6223 0 10.6539 0 9.50402V6.11475C0 2.72547 2.76639 0.00195312 6.20902 0.00195312H9.65164C10.8197 0.00195312 11.8033 0.970316 11.8033 2.12025C11.8033 3.27018 10.8197 4.23854 9.65164 4.23854H6.20902C5.16393 4.23854 4.30328 5.08586 4.30328 6.11475V9.50402C4.30328 10.6539 3.31967 11.6223 2.15164 11.6223Z" fill="url(#paint0_linear_452_8500)"/>
<path d="M42.8484 11.6223C41.6803 11.6223 40.6967 10.6539 40.6967 9.50402V6.11475C40.6967 5.08586 39.8361 4.23854 38.791 4.23854H35.3484C34.1803 4.23854 33.1967 3.27018 33.1967 2.12025C33.1967 0.970316 34.1803 0.00195312 35.3484 0.00195312H38.791C42.2336 0.00195312 45 2.72547 45 6.11475V9.50402C45 10.6539 44.0164 11.6223 42.8484 11.6223Z" fill="url(#paint1_linear_452_8500)"/>
<path d="M9.65164 44.002H6.20902C2.76639 44.002 0 41.2784 0 37.8892V34.4999C0 33.35 0.983607 32.3816 2.15164 32.3816C3.31967 32.3816 4.30328 33.35 4.30328 34.4999V37.8892C4.30328 38.918 5.16393 39.7654 6.20902 39.7654H9.65164C10.8197 39.7654 11.8033 40.7337 11.8033 41.8837C11.8033 43.0336 10.8197 44.002 9.65164 44.002Z" fill="url(#paint2_linear_452_8500)"/>
<path d="M38.791 44.002H35.3484C34.1803 44.002 33.1967 43.0336 33.1967 41.8837C33.1967 40.7337 34.1803 39.7654 35.3484 39.7654H38.791C39.8361 39.7654 40.6967 38.918 40.6967 37.8892V34.4999C40.6967 33.35 41.6803 32.3816 42.8484 32.3816C44.0164 32.3816 45 33.35 45 34.4999V37.8892C45 41.2784 42.2336 44.002 38.791 44.002Z" fill="url(#paint3_linear_452_8500)"/>
</g>
<defs>
<linearGradient id="paint0_linear_452_8500" x1="9.75" y1="0.00195297" x2="30.8158" y2="33.4331" gradientUnits="userSpaceOnUse">
<stop stop-color="#18E2D7"/>
<stop offset="1" stop-color="#1F5EFF"/>
</linearGradient>
<linearGradient id="paint1_linear_452_8500" x1="9.75" y1="0.00195297" x2="30.8158" y2="33.4331" gradientUnits="userSpaceOnUse">
<stop stop-color="#18E2D7"/>
<stop offset="1" stop-color="#1F5EFF"/>
</linearGradient>
<linearGradient id="paint2_linear_452_8500" x1="9.75" y1="0.00195297" x2="30.8158" y2="33.4331" gradientUnits="userSpaceOnUse">
<stop stop-color="#18E2D7"/>
<stop offset="1" stop-color="#1F5EFF"/>
</linearGradient>
<linearGradient id="paint3_linear_452_8500" x1="9.75" y1="0.00195297" x2="30.8158" y2="33.4331" gradientUnits="userSpaceOnUse">
<stop stop-color="#18E2D7"/>
<stop offset="1" stop-color="#1F5EFF"/>
</linearGradient>
<clipPath id="clip0_452_8500">
<rect width="45" height="44" fill="white"/>
</clipPath>
</defs>
</svg>
