<svg width="240" height="135" viewBox="0 0 240 135" fill="none" xmlns="http://www.w3.org/2000/svg">
<g clip-path="url(#clip0_3539_24890)">
<rect width="240" height="135" rx="8" fill="white"/>
<rect width="240" height="135" fill="#A1A1A1" fill-opacity="0.54"/>
<g clip-path="url(#clip1_3539_24890)">
<path d="M111.247 62.677H109.946V63.554H111.247V68.6463H112.549V60.5078H111.247V62.677Z" fill="#AFAFAF"/>
<path d="M108.722 61.477C108.614 60.9232 108.165 60.5078 107.607 60.5078H106.337L104.648 66.877H105.949L107.406 61.3847H107.421L108.877 66.877H110.179L109.853 65.6463L108.722 61.477Z" fill="#AFAFAF"/>
<path d="M158 62.677H156.699V60.5078H155.397V68.6463H156.699V63.554H158V62.677Z" fill="#AFAFAF"/>
<path d="M127.885 63.8164H126.584V67.1395H125.608V63.8164H124.307V67.1395H122.928V68.0318H130.658V67.1395H127.885V63.8164Z" fill="#AFAFAF"/>
<path d="M136.359 63.9386H138.946V63.0463H134.205C133.973 63.0463 133.88 62.877 133.865 62.6617H138.946V61.7694H133.849V61.3847H138.946V60.5078H132.563V62.7232C132.563 63.3847 133.075 63.9386 133.71 63.9386H135.073V64.4617H131.742V65.354H139.689V64.4617H136.359V63.9386Z" fill="#AFAFAF"/>
<path d="M135.724 65.5703C133.896 65.5703 132.718 66.4165 132.718 67.4626C132.718 68.5088 133.896 69.3549 135.724 69.3549C137.567 69.3549 138.729 68.5088 138.729 67.4626C138.729 66.4165 137.552 65.5703 135.724 65.5703ZM135.724 68.478C134.67 68.478 134.004 68.0319 134.004 67.478C134.004 66.9242 134.67 66.478 135.724 66.478C136.777 66.478 137.443 66.9242 137.443 67.478C137.428 68.0165 136.761 68.478 135.724 68.478Z" fill="#AFAFAF"/>
<path d="M144.585 62.8789H143.299V64.4481H140.65V65.3404H148.256V64.4481H144.585V62.8789Z" fill="#AFAFAF"/>
<path d="M144.445 65.5703C142.602 65.5703 141.44 66.4165 141.44 67.4626C141.44 68.5088 142.617 69.3549 144.445 69.3549C146.289 69.3549 147.45 68.5088 147.45 67.4626C147.466 66.4165 146.289 65.5703 144.445 65.5703ZM144.445 68.478C143.392 68.478 142.726 68.0319 142.726 67.478C142.726 66.9242 143.392 66.478 144.445 66.478C145.499 66.478 146.165 66.9242 146.165 67.478C146.165 68.0165 145.499 68.478 144.445 68.478Z" fill="#AFAFAF"/>
<path d="M114.051 64.6931H117.336V65.2162H114.594V66.1085H120.062V66.4931H114.594V67.4316C114.594 68.0931 115.105 68.6469 115.74 68.6469H121.363V67.7546H116.22C115.988 67.7546 115.91 67.5854 115.895 67.37H121.363V65.2162H118.637V64.6931H121.921V63.8008H114.051V64.6931Z" fill="#AFAFAF"/>
<path d="M117.986 63.5854C119.83 63.5854 120.991 62.7392 120.991 61.6931C120.991 60.6469 119.814 59.8008 117.986 59.8008C116.158 59.8008 114.981 60.6469 114.981 61.6931C114.981 62.7392 116.158 63.5854 117.986 63.5854ZM117.986 60.6777C119.04 60.6777 119.706 61.1239 119.706 61.6777C119.706 62.2316 119.04 62.6931 117.986 62.6931C116.933 62.6931 116.267 62.2469 116.267 61.6777C116.267 61.1239 116.948 60.6777 117.986 60.6777Z" fill="#AFAFAF"/>
<path d="M128.381 61.4001C128.644 61.4001 128.861 61.6309 128.861 61.9078V66.2001H130.162V61.7232C130.162 61.0617 129.651 60.5078 129.016 60.5078H123.516V61.4001H128.381Z" fill="#AFAFAF"/>
<path d="M145.917 61.4001C146.18 61.4001 146.397 61.6309 146.397 61.9078V64.0309H147.683V61.7232C147.683 61.0617 147.172 60.5078 146.552 60.5078H141.208V61.4001H145.917Z" fill="#AFAFAF"/>
<path d="M152.144 60.5078H150.874L149.186 66.877H150.487L151.943 61.3847H151.958L153.415 66.877H154.716L153.291 61.4924C153.151 60.9386 152.687 60.5078 152.144 60.5078Z" fill="#AFAFAF"/>
<path d="M113.494 73.3534C113.416 73.3072 113.354 73.2764 113.277 73.2303L112.75 72.9841C112.704 72.9534 112.657 72.938 112.611 72.9072C112.254 72.7226 112.037 72.5841 112.037 72.3226C112.037 71.8457 112.549 71.7995 112.766 71.7995C113.339 71.8303 113.819 71.9841 114.067 72.1072L114.191 72.1687V71.2149L114.036 71.1687C113.711 71.0764 113.277 70.9688 112.828 70.9688C111.712 70.9688 111.046 71.5072 111.046 72.3841C111.046 73.1687 111.914 73.5995 112.533 73.8918L112.812 74.0303C113.168 74.1995 113.509 74.3687 113.509 74.7995C113.509 75.3687 112.92 75.4457 112.564 75.4457C111.975 75.4457 111.557 75.2764 111.309 75.1841C111.278 75.1687 111.247 75.1534 111.216 75.1534L111.108 75.1072V76.0457L111.216 76.0764C111.588 76.1687 112.068 76.2918 112.518 76.2918C113.819 76.2918 114.532 75.738 114.532 74.7226C114.485 73.8764 113.943 73.5841 113.494 73.3534Z" fill="#AFAFAF"/>
<path d="M116.886 72.4453C115.755 72.4453 115.058 73.153 115.058 74.2761C115.058 74.9376 115.337 75.5222 115.786 75.8607C116.112 76.1069 116.654 76.2607 117.196 76.2607C117.63 76.2607 118.033 76.1684 118.327 75.9838L118.373 75.953V75.1992L118.249 75.2761C117.94 75.4453 117.521 75.5069 117.413 75.5069C116.638 75.5069 116.174 75.2145 116.034 74.6299H118.497V74.0915C118.466 73.1069 117.847 72.4453 116.886 72.4453ZM116.871 73.2145C117.32 73.2145 117.537 73.5376 117.568 73.8915H116.003C116.096 73.4607 116.406 73.2145 116.871 73.2145Z" fill="#AFAFAF"/>
<path d="M120.945 72.4609C119.845 72.4609 119.132 73.2148 119.132 74.384C119.132 75.5532 119.83 76.2763 120.96 76.2763C122.091 76.2763 122.788 75.5532 122.788 74.3686C122.788 73.1994 122.091 72.4609 120.945 72.4609ZM120.945 73.2302C121.766 73.2302 121.859 74.0302 121.859 74.384C121.859 74.7225 121.766 75.5225 120.976 75.5225C120.124 75.5225 120.062 74.6609 120.062 74.3994C120.046 74.1071 120.124 73.2302 120.945 73.2302Z" fill="#AFAFAF"/>
<path d="M125.794 74.0773C125.778 74.2619 125.763 74.4004 125.747 74.5542C125.67 74.8927 125.453 75.4619 124.864 75.4619C124.415 75.4619 124.353 75.1388 124.353 74.785V72.5234H123.47V75.0311C123.47 75.7234 124.012 76.2619 124.694 76.2619C125.298 76.2619 125.623 76.0004 125.809 75.7081V76.185H126.677V72.5234H125.794V74.0773Z" fill="#AFAFAF"/>
<path d="M128.536 71.0469H127.622V76.2161H128.536V71.0469Z" fill="#AFAFAF"/>
<path d="M134.159 74.9238L132.858 71.0469H131.665V76.2007H132.548V72.693L133.725 76.2007H134.562L135.739 72.7084V76.2007H136.622V71.0469H135.429L134.159 74.9238Z" fill="#AFAFAF"/>
<path d="M139.209 72.4453C138.078 72.4453 137.381 73.153 137.381 74.2761C137.381 74.9376 137.66 75.5222 138.109 75.8607C138.45 76.1069 138.977 76.2607 139.519 76.2607C139.953 76.2607 140.355 76.1684 140.665 75.9838L140.712 75.953V75.1992L140.588 75.2761C140.278 75.4453 139.86 75.5069 139.751 75.5069C138.977 75.5069 138.512 75.2145 138.373 74.6299H140.836V74.0915C140.789 73.1069 140.154 72.4453 139.209 72.4453ZM139.178 73.2145C139.627 73.2145 139.844 73.5376 139.875 73.8915H138.311C138.419 73.4607 138.729 73.2145 139.178 73.2145Z" fill="#AFAFAF"/>
<path d="M142.881 71.293L141.967 71.8468V72.5391H141.362V73.3084H141.967V75.1699C141.967 75.9084 142.369 76.2776 143.175 76.2776C143.33 76.2776 143.5 76.2776 143.795 76.2314L143.872 76.216V75.3699L143.764 75.4007C143.547 75.4622 143.423 75.4776 143.299 75.4776C142.927 75.4776 142.896 75.2468 142.896 74.893V73.3237H143.903V72.5545H142.881V71.293Z" fill="#AFAFAF"/>
<path d="M145.979 72.7551C145.87 72.8321 145.777 72.9244 145.7 73.0628V72.5397H144.786V76.2167H145.7V74.709C145.715 74.4474 145.746 74.2782 145.777 74.1397C145.932 73.509 146.583 73.3705 147.094 73.3705H147.187V72.4782H147.094C146.521 72.4628 146.289 72.5551 145.979 72.7551Z" fill="#AFAFAF"/>
<path d="M149.356 72.4609C148.256 72.4609 147.543 73.2148 147.543 74.384C147.543 75.5532 148.24 76.2763 149.371 76.2763C150.502 76.2763 151.199 75.5532 151.199 74.3686C151.199 73.1994 150.487 72.4609 149.356 72.4609ZM149.356 73.2302C150.177 73.2302 150.27 74.0302 150.27 74.384C150.27 74.7225 150.177 75.5225 149.387 75.5225C148.535 75.5225 148.473 74.6609 148.473 74.3994C148.457 74.1071 148.519 73.2302 149.356 73.2302Z" fill="#AFAFAF"/>
<path d="M86.5544 67.4923L86.8178 66.7846C87.5149 64.8 88.8626 62.8308 91.775 62.8308H99.0558L98.4052 64.6H92.6425C91.4497 64.6 90.8145 65.2462 90.2413 66.4154H101.411C100.589 62.2 96.5927 59 91.775 59C86.384 59 82 63.0308 82 68C82 68.1692 82 68.3231 82.0155 68.4923H96.9955L96.7322 69.2C96.0351 71.1846 94.6873 73.1538 91.775 73.1538H84.4941L85.1447 71.3846H90.9075C92.1003 71.3846 92.7354 70.7385 93.3086 69.5692H82.1549C82.9605 73.7846 86.9572 77 91.775 77C97.1814 77 101.55 72.9692 101.55 68C101.55 67.8308 101.55 67.6615 101.534 67.4923H86.5544Z" fill="#AFAFAF"/>
</g>
</g>
<rect x="0.5" y="0.5" width="239" height="134" rx="7.5" stroke="#E6EAED"/>
<defs>
<clipPath id="clip0_3539_24890">
<rect width="240" height="135" rx="8" fill="white"/>
</clipPath>
<clipPath id="clip1_3539_24890">
<rect width="76" height="18" fill="white" transform="translate(82 59)"/>
</clipPath>
</defs>
</svg>
