<svg width="136" height="32" viewBox="0 0 136 32" fill="none" xmlns="http://www.w3.org/2000/svg">
<g clip-path="url(#clip0_662_9272)">
<path d="M47.895 8.58176C47.7152 8.47373 47.5713 8.4017 47.3915 8.29367L46.1688 7.71748C46.0609 7.64546 45.953 7.60945 45.8451 7.53743C45.018 7.10529 44.5145 6.78118 44.5145 6.16898C44.5145 5.05263 45.7013 4.94459 46.2047 4.94459C47.5354 5.01661 48.6502 5.37673 49.2256 5.66482L49.5133 5.80887V3.57615L49.1537 3.46812C48.3985 3.25205 47.3915 2.99997 46.3486 2.99997C43.7593 2.99997 42.2128 4.26037 42.2128 6.31303C42.2128 8.14962 44.2268 9.15795 45.6653 9.84217L46.3126 10.1663C47.1398 10.5624 47.9309 10.9585 47.9309 11.9668C47.9309 13.2993 46.5644 13.4793 45.7372 13.4793C44.3706 13.4793 43.3996 13.0832 42.8242 12.8671C42.7523 12.8311 42.6804 12.7951 42.6084 12.7951L42.3567 12.6871V14.8838L42.6084 14.9558C43.4715 15.1719 44.5864 15.46 45.6293 15.46C48.6502 15.46 50.3045 14.1636 50.3045 11.7868C50.1966 9.80615 48.9379 9.12193 47.895 8.58176Z" fill="#6D6F71"/>
<path d="M55.7709 6.45645C53.1456 6.45645 51.5273 8.11298 51.5273 10.7418C51.5273 12.2903 52.1747 13.6588 53.2176 14.451C53.9728 15.0272 55.2315 15.3873 56.4902 15.3873C57.4972 15.3873 58.4322 15.1712 59.1155 14.7391L59.2234 14.6671V12.9025L58.9357 13.0826C58.2164 13.4787 57.2454 13.6228 56.9937 13.6228C55.1955 13.6228 54.1166 12.9385 53.793 11.5701H59.5111V10.3097C59.4392 8.00495 58.0006 6.45645 55.7709 6.45645ZM55.735 8.25703C56.7779 8.25703 57.2814 9.01327 57.3533 9.84154H53.7211C53.9368 8.83321 54.6561 8.25703 55.735 8.25703Z" fill="#6D6F71"/>
<path d="M65.1929 6.49261C62.6396 6.49261 60.9853 8.25718 60.9853 10.9941C60.9853 13.7309 62.6036 15.4235 65.2289 15.4235C67.8542 15.4235 69.4725 13.7309 69.4725 10.958C69.4725 8.22117 67.8542 6.49261 65.1929 6.49261ZM65.1929 8.29319C67.099 8.29319 67.3147 10.1658 67.3147 10.9941C67.3147 11.7863 67.099 13.6589 65.2649 13.6589C63.2869 13.6589 63.1431 11.6423 63.1431 11.0301C63.1071 10.3459 63.2869 8.29319 65.1929 8.29319Z" fill="#6D6F71"/>
<path d="M76.4495 10.2744C76.4135 10.7065 76.3775 11.0306 76.3416 11.3908C76.1618 12.183 75.6583 13.5154 74.2917 13.5154C73.2488 13.5154 73.1049 12.7592 73.1049 11.9309V6.63724H71.055V12.5071C71.055 14.1276 72.3137 15.388 73.8961 15.388C75.2987 15.388 76.0539 14.7759 76.4854 14.0916V15.208H78.4994V6.63724H76.4495V10.2744Z" fill="#6D6F71"/>
<path d="M82.8152 3.18033H80.6934V15.2802H82.8152V3.18033Z" fill="#6D6F71"/>
<path d="M95.8693 12.2552L92.8484 3.18033H90.0792V15.2442H92.1291V7.03356L94.8623 15.2442H96.8043L99.5375 7.06958V15.2442H101.587V3.18033H98.8182L95.8693 12.2552Z" fill="#6D6F71"/>
<path d="M107.594 6.45645C104.968 6.45645 103.35 8.11298 103.35 10.7418C103.35 12.2903 103.997 13.6588 105.04 14.451C105.831 15.0272 107.054 15.3873 108.313 15.3873C109.32 15.3873 110.255 15.1712 110.974 14.7391L111.082 14.6671V12.9025L110.794 13.0826C110.075 13.4787 109.104 13.6228 108.852 13.6228C107.054 13.6228 105.975 12.9385 105.652 11.5701H111.37V10.3097C111.262 8.00495 109.787 6.45645 107.594 6.45645ZM107.522 8.25703C108.565 8.25703 109.068 9.01327 109.14 9.84154H105.508C105.759 8.83321 106.479 8.25703 107.522 8.25703Z" fill="#6D6F71"/>
<path d="M116.117 3.75571L113.995 5.05212V6.67264H112.592V8.47322H113.995V12.8306C113.995 14.5592 114.93 15.4235 116.8 15.4235C117.16 15.4235 117.555 15.4235 118.238 15.3154L118.418 15.2794V13.2988L118.167 13.3708C117.663 13.5148 117.375 13.5509 117.088 13.5509C116.225 13.5509 116.153 13.0107 116.153 12.1824V8.50923H118.49V6.70865H116.117V3.75571Z" fill="#6D6F71"/>
<path d="M123.309 7.17676C123.058 7.35681 122.842 7.57288 122.662 7.89699V6.67259H120.54V15.2794H122.662V11.7502C122.698 11.138 122.77 10.7419 122.842 10.4178C123.202 8.94132 124.712 8.61722 125.899 8.61722H126.115V6.52855H125.899C124.568 6.49254 124.029 6.70861 123.309 7.17676Z" fill="#6D6F71"/>
<path d="M131.149 6.49261C128.596 6.49261 126.942 8.25718 126.942 10.9941C126.942 13.7309 128.56 15.4235 131.185 15.4235C133.811 15.4235 135.429 13.7309 135.429 10.958C135.429 8.22117 133.775 6.49261 131.149 6.49261ZM131.149 8.29319C133.055 8.29319 133.271 10.1658 133.271 10.9941C133.271 11.7863 133.055 13.6589 131.221 13.6589C129.243 13.6589 129.099 11.6423 129.099 11.0301C129.063 10.3459 129.207 8.29319 131.149 8.29319Z" fill="#6D6F71"/>
<path d="M8.03017 15.0974L8.4945 13.8393C9.7236 10.3111 12.0999 6.81026 17.2348 6.81026H30.0722L28.925 9.95556H18.7644C16.6612 9.95556 15.5414 11.1043 14.5308 13.1829H34.2238C32.7762 5.68889 25.7293 0 17.2348 0C7.72972 0 0 7.16581 0 16C0 16.3009 0 16.5744 0.0273135 16.8752H26.4395L25.9751 18.1333C24.746 21.6615 22.3697 25.1624 17.2348 25.1624H4.39747L5.54464 22.0171H15.7053C17.8084 22.0171 18.9282 20.8684 19.9388 18.7897H0.273135C1.69344 26.2838 8.74032 32 17.2348 32C26.7672 32 34.4696 24.8342 34.4696 16C34.4696 15.6991 34.4696 15.3983 34.4423 15.0974H8.03017Z" fill="#17288B"/>
<path d="M74.3125 25.3438C74.3125 29.0391 72.0234 31.1562 69.0312 31.1562C66.0156 31.1562 63.7344 29.0234 63.7344 25.3438C63.7344 21.6484 66.0156 19.5312 69.0312 19.5312C72.0234 19.5312 74.3125 21.6484 74.3125 25.3438ZM66.125 25.3438C66.125 27.7578 67.2734 29.0703 69.0312 29.0781C70.7734 29.0703 71.9297 27.7578 71.9219 25.3438C71.9297 22.9219 70.7734 21.6172 69.0312 21.6094C67.2734 21.6172 66.125 22.9219 66.125 25.3438ZM80.4688 22.5156V24.25H78.7812V31H76.4688V24.25H75.2656V22.5156H76.4688V21.875C76.4688 20.0859 77.5469 19.1562 79.25 19.1562C79.7734 19.1562 80.2188 19.2031 80.625 19.2969V21.0469C80.2891 21.0156 80.0469 21.0078 79.9219 21C79.1797 21.0078 78.7812 21.2891 78.7812 22V22.5156H80.4688ZM86.3438 22.5156V24.25H84.6562V31H82.3438V24.25H81.1406V22.5156H82.3438V21.875C82.3438 20.0859 83.4219 19.1562 85.125 19.1562C85.6484 19.1562 86.0938 19.2031 86.5 19.2969V21.0469C86.1641 21.0156 85.9219 21.0078 85.7969 21C85.0547 21.0078 84.6562 21.2891 84.6562 22V22.5156H86.3438ZM87.7031 31V22.5156H90.0156V31H87.7031ZM87.5938 20.2344C87.5938 19.5781 88.1641 19.0547 88.8594 19.0469C89.5469 19.0547 90.1172 19.5781 90.1094 20.2344C90.1172 20.875 89.5469 21.4062 88.8594 21.4062C88.1641 21.4062 87.5938 20.875 87.5938 20.2344ZM95.625 31.1719C93.0234 31.1641 91.4609 29.3672 91.4688 26.7812C91.4609 24.1875 93.0547 22.4062 95.625 22.4062C97.8125 22.4062 99.2969 23.6797 99.3906 25.625H97.2188C97.0781 24.7891 96.5312 24.2109 95.6562 24.2031C94.5469 24.2109 93.8125 25.1406 93.8125 26.75C93.8125 28.3906 94.5312 29.3281 95.6562 29.3281C96.4688 29.3281 97.0703 28.8203 97.2188 27.9219H99.3906C99.2891 29.8438 97.875 31.1641 95.625 31.1719ZM104.672 31.1719C102.07 31.1641 100.477 29.4844 100.484 26.7969C100.477 24.1797 102.094 22.4062 104.578 22.4062C106.805 22.4062 108.562 23.8125 108.562 26.7031V27.3594H102.766C102.766 28.6406 103.523 29.4297 104.719 29.4375C105.508 29.4297 106.07 29.0859 106.297 28.5781H108.5C108.172 30.1484 106.766 31.1641 104.672 31.1719ZM102.766 25.9062H106.375C106.367 24.875 105.656 24.1328 104.625 24.1406C103.562 24.1328 102.812 24.9297 102.766 25.9062Z" fill="#6D6F71"/>
</g>
<defs>
<clipPath id="clip0_662_9272">
<rect width="136" height="32" fill="white"/>
</clipPath>
</defs>
</svg>
